<svg xmlns="http://www.w3.org/2000/svg" width="1400" height="1000" viewBox="0 0 1400 1000">
<rect width="1400" height="1000" fill="#ddd2b2"/>
<path d="M221.1 49.2 L219.5 50.8 L209.4 51.6 L190.6 51.6 L180.5 52.3 L178.9 53.9 L153.9 55.5 L105.5 57.0 L80.1 61.3 L77.7 68.4 L76.6 81.2 L76.6 100.0 L79.7 121.1 L85.9 144.5 L89.1 175.0 L89.1 212.5 L88.3 232.0 L86.7 233.6 L85.9 239.1 L85.9 248.4 L82.8 268.0 L76.6 297.7 L71.9 328.1 L68.8 359.4 L63.3 390.6 L55.5 421.9 L52.3 446.9 L53.9 465.6 L59.4 489.8 L68.8 519.5 L73.4 543.0 L73.4 560.2 L71.9 576.6 L68.8 592.2 L67.2 612.5 L67.2 637.5 L71.1 668.0 L78.9 703.9 L82.8 746.9 L82.8 796.9 L82.0 822.7 L80.5 824.2 L79.7 831.2 L79.7 843.8 L76.6 864.8 L70.3 894.5 L66.8 919.9 L66.0 941.0 L67.2 951.6 L70.3 951.6 L72.7 950.8 L74.2 949.2 L82.8 948.4 L98.4 948.4 L107.0 947.7 L108.6 946.1 L120.3 944.5 L142.2 943.0 L153.9 941.4 L155.5 939.8 L160.2 939.1 L168.0 939.1 L172.7 938.3 L174.2 936.7 L178.1 935.9 L184.4 935.9 L188.3 935.2 L189.8 933.6 L194.5 932.8 L202.3 932.8 L207.0 932.0 L208.6 930.5 L214.8 929.7 L225.8 929.7 L232.0 928.9 L233.6 927.3 L250.8 926.6 L283.6 926.6 L300.8 927.3 L302.3 928.9 L309.4 929.7 L321.9 929.7 L328.9 930.5 L330.5 932.0 L337.5 932.8 L350.0 932.8 L357.0 933.6 L358.6 935.2 L365.6 935.9 L378.1 935.9 L385.2 936.7 L386.7 938.3 L393.8 939.1 L406.2 939.1 L413.3 939.8 L414.8 941.4 L428.9 943.0 L455.5 944.5 L469.5 946.1 L471.1 947.7 L479.7 948.4 L495.3 948.4 L503.9 949.2 L505.5 950.8 L530.5 951.6 L578.9 951.6 L603.9 950.8 L605.5 949.2 L632.0 947.7 L683.6 946.1 L710.2 944.5 L711.7 943.0 L723.4 942.2 L745.3 942.2 L757.0 941.4 L758.6 939.8 L806.2 939.8 L900.0 941.4 L947.7 943.0 L949.2 944.5 L968.0 945.3 L1003.9 945.3 L1022.7 946.1 L1024.2 947.7 L1093.8 948.4 L1231.2 948.4 L1300.8 949.2 L1302.3 950.8 L1310.2 951.6 L1324.2 951.6 L1331.6 948.0 L1332.4 941.0 L1326.6 915.6 L1314.1 871.9 L1307.0 839.1 L1305.5 817.2 L1303.9 805.5 L1302.3 803.9 L1303.1 778.9 L1306.2 730.5 L1311.7 693.0 L1319.5 666.4 L1323.4 645.3 L1323.4 629.7 L1324.2 621.1 L1325.8 619.5 L1325.8 603.9 L1324.2 574.2 L1324.2 558.6 L1325.8 557.0 L1328.1 536.7 L1331.2 497.7 L1333.6 477.3 L1335.2 475.8 L1335.9 468.8 L1335.9 456.2 L1336.7 449.2 L1338.3 447.7 L1338.3 405.5 L1336.7 322.7 L1332.0 262.5 L1324.2 225.0 L1320.3 192.2 L1320.3 164.1 L1321.1 149.2 L1322.7 147.7 L1323.4 139.8 L1323.4 125.8 L1324.2 118.0 L1325.8 116.4 L1326.6 108.6 L1326.6 94.5 L1327.3 86.7 L1328.9 85.2 L1329.3 75.4 L1328.5 57.4 L1322.7 48.4 L1311.7 48.4 L1305.5 49.2 L1303.9 50.8 L1292.2 51.6 L1270.3 51.6 L1258.6 52.3 L1257.0 53.9 L1210.9 54.7 L1120.3 54.7 L1074.2 53.9 L1072.7 52.3 L1058.6 51.6 L1032.0 51.6 L1018.0 50.8 L1016.4 49.2 L946.1 48.4 L807.0 48.4 L736.7 49.2 L735.2 50.8 L727.3 51.6 L713.3 51.6 L705.5 52.3 L703.9 53.9 L689.8 55.5 L663.3 57.0 L649.2 58.6 L647.7 60.2 L632.8 60.9 L604.7 60.9 L589.8 60.2 L588.3 58.6 L573.4 57.8 L545.3 57.8 L530.5 57.0 L528.9 55.5 L506.2 54.7 L462.5 54.7 L439.8 53.9 L438.3 52.3 L383.6 50.8 L275.8 49.2 Z" fill="#e2d7be"/>
<path d="M924.2 618.0 L922.7 619.5 L918.0 620.3 L910.2 620.3 L905.5 621.1 L903.9 622.7 L900.0 623.4 L893.8 623.4 L889.8 624.2 L888.3 625.8 L883.6 626.6 L875.8 626.6 L871.1 627.3 L869.5 628.9 L860.9 630.5 L845.3 632.0 L836.7 633.6 L835.2 635.2 L831.2 635.9 L825.0 635.9 L821.1 636.7 L819.5 638.3 L810.2 639.8 L793.0 641.4 L783.6 643.0 L782.0 644.5 L773.4 646.1 L757.8 647.7 L749.2 649.2 L747.7 650.8 L743.8 651.6 L737.5 651.6 L733.6 652.3 L732.0 653.9 L727.3 654.7 L719.5 654.7 L714.8 655.5 L713.3 657.0 L709.4 657.8 L703.1 657.8 L699.2 658.6 L697.7 660.2 L689.1 661.7 L673.4 663.3 L664.8 664.8 L663.3 666.4 L658.6 667.2 L650.8 667.2 L646.1 668.0 L644.5 669.5 L640.6 670.3 L634.4 670.3 L630.5 671.1 L628.9 672.7 L624.2 673.4 L616.4 673.4 L611.7 674.2 L610.2 675.8 L601.6 677.3 L585.9 678.9 L577.3 680.5 L575.8 682.0 L571.1 682.8 L563.3 682.8 L558.6 683.6 L557.0 685.2 L553.1 685.9 L546.9 685.9 L543.0 686.7 L541.4 688.3 L532.8 689.8 L517.2 691.4 L508.2 693.4 L505.9 695.7 L504.7 707.8 L504.7 729.7 L505.5 741.4 L507.0 743.0 L509.0 795.7 L511.3 899.6 L535.2 951.6 L580.5 951.6 L603.9 950.8 L605.5 949.2 L632.0 947.7 L683.6 946.1 L710.2 944.5 L711.7 943.0 L723.4 942.2 L745.3 942.2 L757.0 941.4 L758.6 939.8 L782.8 939.1 L829.7 939.1 L853.9 939.8 L855.5 941.4 L878.9 942.2 L924.2 942.2 L948.4 943.0 L951.6 944.5 L954.3 873.8 L956.6 730.9 L949.6 648.8 L933.2 627.7 Z" fill="#c5bd9f"/>
<path d="M736.7 49.2 L735.2 50.8 L727.3 51.6 L713.3 51.6 L705.5 52.3 L703.9 53.9 L689.8 55.5 L663.3 57.0 L649.2 58.6 L647.7 60.2 L632.8 60.9 L604.7 60.9 L589.8 60.2 L588.3 58.6 L573.4 57.8 L545.3 57.8 L530.5 57.0 L528.9 55.5 L513.3 54.7 L483.6 54.7 L469.1 66.0 L469.9 88.7 L475.4 106.6 L485.5 119.9 L494.5 126.6 L502.3 126.6 L507.0 127.3 L508.6 128.9 L536.7 129.7 L591.4 129.7 L619.5 130.5 L621.1 132.0 L669.5 133.6 L764.8 135.2 L819.1 114.5 L832.4 71.5 L813.7 49.6 L762.9 48.8 Z" fill="#bca885"/>
<path d="M836.3 60.5 L827.7 84.8 L821.1 107.0 L816.4 127.3 L843.0 185.2 L900.8 280.5 L937.9 340.2 L954.3 364.5 L966.4 375.0 L974.2 371.9 L982.8 369.5 L992.2 368.0 L1000.0 365.6 L1006.2 362.5 L1011.7 360.9 L1016.4 360.9 L1021.9 359.4 L1028.1 356.3 L1033.6 354.7 L1038.3 354.7 L1046.1 352.3 L1057.0 347.7 L1064.8 345.3 L1069.5 345.3 L1077.3 343.0 L1088.3 338.3 L1096.1 335.9 L1100.8 335.9 L1106.2 334.4 L1112.5 331.2 L1118.0 329.7 L1122.7 329.7 L1130.5 327.3 L1141.4 322.7 L1149.2 320.3 L1153.9 320.3 L1161.7 318.0 L1172.7 313.3 L1180.5 310.9 L1185.2 310.9 L1193.0 308.6 L1203.9 303.9 L1211.7 301.6 L1216.4 301.6 L1221.9 300.0 L1228.1 296.9 L1233.6 295.3 L1238.3 295.3 L1246.1 293.0 L1257.0 288.3 L1264.8 285.9 L1269.5 285.9 L1277.3 283.6 L1288.3 278.9 L1296.1 276.6 L1300.8 276.6 L1306.2 275.0 L1312.5 271.9 L1318.0 270.3 L1322.7 270.3 L1327.0 269.1 L1330.9 266.8 L1329.7 250.8 L1323.4 221.1 L1320.3 192.2 L1320.3 164.1 L1321.1 149.2 L1322.7 147.7 L1323.4 139.8 L1323.4 125.8 L1324.2 118.0 L1325.8 116.4 L1326.6 108.6 L1326.6 94.5 L1327.3 86.7 L1328.9 85.2 L1329.3 75.4 L1328.5 57.4 L1322.7 48.4 L1311.7 48.4 L1305.5 49.2 L1303.9 50.8 L1292.2 51.6 L1270.3 51.6 L1258.6 52.3 L1257.0 53.9 L1210.9 54.7 L1120.3 54.7 L1074.2 53.9 L1072.7 52.3 L1058.6 51.6 L1032.0 51.6 L1018.0 50.8 L1016.4 49.2 L971.9 48.4 L884.4 48.4 Z" fill="#f4aa79"/>
<path d="M492.6 128.5 L490.2 132.4 L489.1 142.2 L489.1 157.8 L488.3 166.4 L486.7 168.0 L485.9 176.6 L485.9 192.2 L485.2 200.8 L483.6 202.3 L482.8 210.2 L482.8 224.2 L482.0 232.0 L480.5 233.6 L479.7 242.2 L479.7 257.8 L478.9 266.4 L477.3 268.0 L476.6 276.6 L476.6 292.2 L475.8 300.8 L474.2 302.3 L473.4 310.9 L473.4 326.6 L472.7 335.2 L471.1 336.7 L470.3 345.3 L470.3 360.9 L469.5 369.5 L468.0 371.1 L467.2 378.9 L467.2 393.0 L466.4 400.8 L464.8 402.3 L464.1 410.9 L464.1 426.6 L463.3 435.2 L461.7 436.7 L460.9 445.3 L460.9 460.9 L460.2 469.5 L458.6 471.1 L457.8 479.7 L457.8 495.3 L457.0 503.9 L455.5 505.5 L454.7 514.1 L454.7 529.7 L453.9 538.3 L452.3 539.8 L451.6 548.4 L451.6 564.1 L450.8 572.7 L449.2 574.2 L446.9 593.8 L443.7 631.2 L458.2 661.3 L490.2 684.0 L507.0 694.5 L508.6 693.0 L512.5 692.2 L518.8 692.2 L522.7 691.4 L524.2 689.8 L528.9 689.1 L536.7 689.1 L541.4 688.3 L543.0 686.7 L546.9 685.9 L553.1 685.9 L557.0 685.2 L558.6 683.6 L567.2 682.0 L582.8 680.5 L591.4 678.9 L593.0 677.3 L602.3 675.8 L619.5 674.2 L628.9 672.7 L630.5 671.1 L634.4 670.3 L640.6 670.3 L644.5 669.5 L646.1 668.0 L650.8 667.2 L658.6 667.2 L663.3 666.4 L664.8 664.8 L668.8 664.1 L675.0 664.1 L678.9 663.3 L680.5 661.7 L685.2 660.9 L693.0 660.9 L697.7 660.2 L699.2 658.6 L703.1 657.8 L709.4 657.8 L713.3 657.0 L714.8 655.5 L723.4 653.9 L739.1 652.3 L747.7 650.8 L749.2 649.2 L753.9 648.4 L761.7 648.4 L766.4 647.7 L768.0 646.1 L771.9 645.3 L778.1 645.3 L782.0 644.5 L783.6 643.0 L793.0 641.4 L810.2 639.8 L819.5 638.3 L821.1 636.7 L825.0 635.9 L831.2 635.9 L835.2 635.2 L836.7 633.6 L841.4 632.8 L849.2 632.8 L853.9 632.0 L855.5 630.5 L859.4 629.7 L865.6 629.7 L869.5 628.9 L871.1 627.3 L879.7 625.8 L895.3 624.2 L903.9 622.7 L905.5 621.1 L910.2 620.3 L918.0 620.3 L923.0 619.1 L925.4 616.8 L926.6 611.7 L926.6 603.9 L927.3 599.2 L928.9 597.7 L929.7 592.2 L929.7 582.8 L931.2 572.7 L934.4 561.7 L935.9 551.6 L935.9 542.2 L936.7 536.7 L938.3 535.2 L939.1 529.7 L939.1 520.3 L939.8 514.8 L941.4 513.3 L942.2 507.8 L942.2 498.4 L943.8 488.3 L946.9 477.3 L951.6 447.7 L957.8 399.2 L928.1 322.7 L862.5 218.0 L826.6 159.4 L820.3 146.9 L816.0 139.5 L813.7 137.1 L764.8 135.2 L669.5 133.6 L621.1 132.0 L619.5 130.5 L591.4 129.7 L536.7 129.7 L508.6 128.9 L507.0 127.3 L503.1 126.6 L496.9 126.6 Z" fill="#d29268"/>
<path d="M436.7 652.3 L435.2 653.9 L430.5 655.5 L422.7 657.0 L418.0 658.6 L416.4 660.2 L393.0 668.0 L347.7 682.0 L322.7 690.6 L318.0 693.8 L309.0 697.3 L295.7 701.2 L288.3 758.6 L286.7 869.5 L289.5 925.4 L296.5 926.2 L300.8 927.3 L302.3 928.9 L309.4 929.7 L321.9 929.7 L328.9 930.5 L330.5 932.0 L337.5 932.8 L350.0 932.8 L357.0 933.6 L358.6 935.2 L365.6 935.9 L378.1 935.9 L385.2 936.7 L386.7 938.3 L393.8 939.1 L406.2 939.1 L413.3 939.8 L414.8 941.4 L428.9 943.0 L455.5 944.5 L469.5 946.1 L471.1 947.7 L479.7 948.4 L495.3 948.4 L504.7 949.2 L507.8 950.8 L509.8 925.4 L510.5 873.0 L510.2 846.1 L508.6 844.5 L507.0 806.2 L505.5 731.3 L493.4 686.3 L470.7 671.5 L457.0 661.7 L452.3 657.0 L446.9 653.9 L440.6 652.3 Z" fill="#bd835d"/>
<path d="M959.0 696.5 L958.2 767.6 L957.0 803.9 L955.5 805.5 L955.1 841.0 L955.9 910.5 L972.7 945.3 L1005.5 945.3 L1022.7 946.1 L1024.2 947.7 L1093.8 948.4 L1231.2 948.4 L1300.8 949.2 L1302.3 950.8 L1310.2 951.6 L1324.2 951.6 L1331.6 948.0 L1332.4 941.0 L1326.6 915.6 L1314.1 871.9 L1307.0 839.1 L1305.5 817.2 L1303.9 805.5 L1302.3 803.9 L1302.3 784.4 L1303.9 746.9 L1307.4 715.2 L1312.9 689.5 L1307.0 676.6 L1289.8 676.6 L1280.5 675.8 L1278.9 674.2 L1262.5 673.4 L1231.2 673.4 L1214.8 672.7 L1213.3 671.1 L1196.9 670.3 L1165.6 670.3 L1149.2 669.5 L1147.7 668.0 L1131.2 667.2 L1100.0 667.2 L1083.6 666.4 L1082.0 664.8 L1065.6 664.1 L1034.4 664.1 L1018.0 663.3 L1016.4 661.7 L1001.6 660.9 L973.4 660.9 Z" fill="#e9a273"/>
<path d="M1321.9 269.5 L1309.4 274.2 L1298.4 277.3 L1289.1 278.9 L1281.2 281.2 L1275.0 284.4 L1269.5 285.9 L1264.8 285.9 L1257.0 288.3 L1246.1 293.0 L1238.3 295.3 L1233.6 295.3 L1228.1 296.9 L1221.9 300.0 L1216.4 301.6 L1211.7 301.6 L1203.9 303.9 L1193.0 308.6 L1185.2 310.9 L1180.5 310.9 L1172.7 313.3 L1161.7 318.0 L1153.9 320.3 L1149.2 320.3 L1141.4 322.7 L1130.5 327.3 L1122.7 329.7 L1118.0 329.7 L1112.5 331.2 L1106.2 334.4 L1100.8 335.9 L1096.1 335.9 L1088.3 338.3 L1077.3 343.0 L1069.5 345.3 L1064.8 345.3 L1057.0 347.7 L1046.1 352.3 L1038.3 354.7 L1033.6 354.7 L1028.1 356.3 L1021.9 359.4 L1016.4 360.9 L1011.7 360.9 L1006.2 362.5 L1000.0 365.6 L995.3 367.2 L992.2 367.2 L989.8 368.0 L988.3 369.5 L985.2 370.3 L980.5 370.3 L973.8 372.3 L965.2 376.2 L957.8 401.6 L951.6 448.4 L946.9 477.3 L943.8 488.3 L942.2 498.4 L942.2 507.8 L941.4 513.3 L939.8 514.8 L939.1 520.3 L939.1 529.7 L938.3 535.2 L936.7 536.7 L935.9 542.2 L935.9 551.6 L934.4 561.7 L931.2 572.7 L929.7 582.8 L929.7 592.2 L928.9 597.7 L927.3 599.2 L926.6 605.5 L926.6 616.4 L934.8 631.6 L951.2 651.2 L989.8 661.7 L1050.8 663.3 L1082.0 664.8 L1083.6 666.4 L1100.0 667.2 L1131.2 667.2 L1147.7 668.0 L1149.2 669.5 L1165.6 670.3 L1196.9 670.3 L1213.3 671.1 L1214.8 672.7 L1231.2 673.4 L1262.5 673.4 L1278.9 674.2 L1280.5 675.8 L1290.2 676.2 L1308.2 675.4 L1318.8 669.5 L1321.9 658.6 L1323.4 645.3 L1323.4 629.7 L1324.2 621.1 L1325.8 619.5 L1325.8 614.8 L1324.2 607.0 L1324.2 583.6 L1325.8 544.5 L1327.3 524.2 L1328.9 522.7 L1329.7 516.4 L1329.7 505.5 L1331.2 493.8 L1334.4 481.2 L1335.9 468.8 L1335.9 456.2 L1336.7 449.2 L1338.3 447.7 L1338.3 405.5 L1336.7 322.7 L1335.2 278.1 L1333.6 271.9 L1331.6 268.4 L1329.3 267.6 Z" fill="#ca8c64"/>
<path d="M221.1 49.2 L219.5 50.8 L209.4 51.6 L190.6 51.6 L180.5 52.3 L178.9 53.9 L164.8 54.7 L138.3 54.7 L124.2 55.5 L122.7 57.0 L111.3 58.2 L90.2 59.0 L78.9 71.9 L77.3 96.9 L79.7 121.1 L85.9 144.5 L89.1 175.0 L89.1 212.5 L88.3 232.0 L86.7 233.6 L85.9 239.1 L85.9 248.4 L82.8 268.0 L76.6 297.7 L71.9 328.1 L68.8 359.4 L63.3 390.6 L55.5 421.9 L52.3 446.9 L53.9 465.6 L59.4 489.8 L68.8 519.5 L73.4 543.0 L73.4 560.2 L71.9 576.6 L68.8 592.2 L67.2 612.5 L67.2 637.5 L68.4 653.5 L70.7 660.5 L75.8 664.1 L83.6 664.1 L88.3 664.8 L89.8 666.4 L93.8 667.2 L100.0 667.2 L103.9 668.0 L105.5 669.5 L109.4 670.3 L115.6 670.3 L119.5 671.1 L121.1 672.7 L125.8 673.4 L133.6 673.4 L138.3 674.2 L139.8 675.8 L147.7 677.3 L161.7 678.9 L169.5 680.5 L171.1 682.0 L175.8 682.8 L183.6 682.8 L188.3 683.6 L189.8 685.2 L197.7 686.7 L211.7 688.3 L219.5 689.8 L221.1 691.4 L225.8 692.2 L233.6 692.2 L238.3 693.0 L239.8 694.5 L247.7 696.1 L261.7 697.7 L269.5 699.2 L271.1 700.8 L278.1 701.6 L290.6 701.6 L303.9 698.4 L318.0 692.2 L328.9 688.3 L336.7 686.7 L341.4 685.2 L343.0 683.6 L354.7 679.7 L376.6 673.4 L397.7 666.4 L418.0 658.6 L429.7 654.7 L432.8 654.7 L436.3 653.5 L440.2 651.2 L443.7 631.2 L446.9 593.8 L449.2 574.2 L450.8 572.7 L451.6 564.1 L451.6 548.4 L452.3 539.8 L453.9 538.3 L454.7 529.7 L454.7 514.1 L455.5 505.5 L457.0 503.9 L457.8 495.3 L457.8 479.7 L458.6 471.1 L460.2 469.5 L460.9 460.9 L460.9 445.3 L461.7 436.7 L463.3 435.2 L464.1 426.6 L464.1 410.9 L464.8 402.3 L466.4 400.8 L467.2 393.0 L467.2 378.9 L468.0 371.1 L469.5 369.5 L470.3 360.9 L470.3 345.3 L471.1 336.7 L472.7 335.2 L473.4 326.6 L473.4 310.9 L474.2 302.3 L475.8 300.8 L476.6 292.2 L476.6 276.6 L477.3 268.0 L478.9 266.4 L479.7 257.8 L479.7 242.2 L480.5 233.6 L482.0 232.0 L482.8 224.2 L482.8 210.2 L483.6 202.3 L485.2 200.8 L485.9 192.2 L485.9 176.6 L486.7 168.0 L488.3 166.4 L489.1 157.8 L489.1 142.2 L489.8 132.8 L491.4 129.7 L489.1 123.4 L482.8 114.1 L474.6 104.3 L464.5 94.1 L456.2 87.5 L450.0 84.4 L436.7 75.0 L416.4 59.4 L360.2 50.8 L268.0 49.2 Z" fill="#ffb782"/>
<path d="M72.3 669.9 L73.0 681.6 L75.8 696.1 L80.5 713.3 L82.8 746.9 L82.8 796.9 L82.0 822.7 L80.5 824.2 L78.9 835.9 L77.3 857.8 L75.0 873.4 L71.9 882.8 L68.8 903.1 L65.6 934.4 L66.0 950.4 L69.9 951.2 L72.7 950.8 L74.2 949.2 L89.1 947.7 L117.2 946.1 L132.0 944.5 L133.6 943.0 L139.1 942.2 L148.4 942.2 L153.9 941.4 L155.5 939.8 L160.2 939.1 L168.0 939.1 L172.7 938.3 L174.2 936.7 L178.1 935.9 L184.4 935.9 L188.3 935.2 L189.8 933.6 L194.5 932.8 L202.3 932.8 L207.0 932.0 L208.6 930.5 L214.8 929.7 L225.8 929.7 L232.0 928.9 L233.6 927.3 L246.9 926.6 L271.9 926.6 L285.5 870.7 L287.9 759.0 L280.9 702.0 L264.5 699.6 L255.5 697.7 L253.9 696.1 L250.0 695.3 L243.7 695.3 L239.8 694.5 L238.3 693.0 L233.6 692.2 L225.8 692.2 L221.1 691.4 L219.5 689.8 L215.6 689.1 L209.4 689.1 L205.5 688.3 L203.9 686.7 L200.0 685.9 L193.7 685.9 L189.8 685.2 L188.3 683.6 L183.6 682.8 L175.8 682.8 L171.1 682.0 L169.5 680.5 L161.7 678.9 L147.7 677.3 L139.8 675.8 L138.3 674.2 L133.6 673.4 L125.8 673.4 L121.1 672.7 L119.5 671.1 L115.6 670.3 L109.4 670.3 L105.5 669.5 L103.9 668.0 L100.0 667.2 L93.8 667.2 L89.8 666.4 L88.3 664.8 L83.6 664.1 L75.8 664.1 Z" fill="#d6caa4"/>
<path d="M410.2 53.1 L411.7 56.3 L424.2 65.6 L447.7 81.2 L461.7 91.4 L466.4 96.1 L469.1 94.1 L469.9 85.5 L469.5 80.5 L468.0 78.9 L466.8 72.3 L466.0 60.5 L451.6 53.9 L423.4 52.3 Z" fill="#d5c9a3"/>
<path d="M156.2 37.3 L152.5 37.5 L150.0 37.7 L143.8 38.1 L137.5 38.6 L131.2 39.2 L125.0 39.9 L118.7 40.9 L112.5 42.2 L107.0 43.8 L106.2 44.0 L100.0 46.2 L93.8 49.1 L92.2 50.0 L87.5 52.9 L83.2 56.2 L81.2 58.0 L77.0 62.5 L75.0 65.1 L72.5 68.8 L69.2 75.0 L68.8 76.0 L66.7 81.2 L65.1 87.5 L64.1 93.8 L63.6 100.0 L63.4 106.2 L63.6 112.5 L64.0 118.8 L64.7 125.0 L65.5 131.2 L66.4 137.5 L67.3 143.8 L68.2 150.0 L68.8 154.6 L69.0 156.2 L69.6 162.5 L70.2 168.8 L70.6 175.0 L71.0 181.2 L71.2 187.5 L71.2 193.8 L71.2 200.0 L71.0 206.2 L70.8 212.5 L70.4 218.8 L69.9 225.0 L69.4 231.2 L68.8 237.4 L68.7 237.5 L68.0 243.8 L67.1 250.0 L66.3 256.2 L65.3 262.5 L64.4 268.8 L63.5 275.0 L62.5 281.2 L61.5 287.5 L60.5 293.8 L59.5 300.0 L58.5 306.2 L57.6 312.5 L56.7 318.8 L56.2 321.8 L55.8 325.0 L54.8 331.2 L53.8 337.5 L52.9 343.8 L51.9 350.0 L50.9 356.2 L50.0 362.1 L49.9 362.5 L48.8 368.8 L47.6 375.0 L46.5 381.2 L45.3 387.5 L44.1 393.8 L43.8 395.9 L43.0 400.0 L41.8 406.2 L40.8 412.5 L39.9 418.8 L39.2 425.0 L38.6 431.2 L38.3 437.5 L38.2 443.8 L38.3 450.0 L38.6 456.2 L39.2 462.5 L40.0 468.8 L40.9 475.0 L42.1 481.2 L43.5 487.5 L43.8 488.7 L44.8 493.8 L46.2 500.0 L47.6 506.3 L49.0 512.5 L50.0 517.2 L50.3 518.8 L51.4 525.0 L52.3 531.2 L53.0 537.5 L53.5 543.8 L53.9 550.0 L54.0 556.2 L54.0 562.5 L53.8 568.8 L53.5 575.0 L53.2 581.2 L52.8 587.5 L52.4 593.8 L52.2 600.0 L52.0 606.2 L52.0 612.5 L52.2 618.8 L52.6 625.0 L53.3 631.2 L54.4 637.5 L55.8 643.8 L56.2 645.3 L57.6 650.0 L59.7 656.2 L62.3 662.5 L62.5 662.8 L65.3 668.8 L68.7 675.0 L68.8 675.0 L72.5 681.2 L75.0 685.3 L76.5 687.5 L80.6 693.8 L81.2 694.8 L84.6 700.0 L87.5 704.9 L88.4 706.2 L91.7 712.5 L93.8 717.3 L94.5 718.8 L96.7 725.0 L98.4 731.2 L99.4 737.5 L100.0 743.0 L100.1 743.8 L100.5 750.0 L100.7 756.2 L100.8 762.5 L100.9 768.8 L100.9 775.0 L100.8 781.2 L100.7 787.5 L100.5 793.8 L100.3 800.0 L100.0 804.8 L99.9 806.2 L99.6 812.5 L99.1 818.8 L98.6 825.0 L98.1 831.2 L97.4 837.5 L96.7 843.8 L95.9 850.0 L95.0 856.2 L94.1 862.5 L93.8 864.6 L93.2 868.8 L92.5 875.0 L91.9 881.2 L91.7 887.5 L92.1 893.8 L93.1 900.0 L93.8 902.2 L95.4 906.2 L99.5 912.5 L100.0 913.0 L106.2 917.4 L109.4 918.8 L112.5 919.8 L118.7 920.9 L125.0 921.3 L131.2 921.2 L137.5 920.8 L143.8 920.0 L150.0 919.2 L152.7 918.8 L156.2 918.2 L162.5 917.1 L168.8 916.1 L175.0 915.1 L181.2 914.1 L187.5 913.1 L191.8 912.5 L193.7 912.2 L200.0 911.2 L206.2 910.3 L212.5 909.5 L218.8 908.7 L225.0 908.1 L231.2 907.5 L237.5 907.0 L243.8 906.6 L250.0 906.3 L252.4 906.2 L256.2 906.1 L262.5 906.0 L268.8 906.0 L275.0 906.1 L280.6 906.2 L281.2 906.3 L287.5 906.5 L293.8 906.9 L300.0 907.3 L306.2 907.7 L312.5 908.3 L318.8 908.8 L325.0 909.5 L331.2 910.1 L337.5 910.8 L343.8 911.5 L350.0 912.2 L352.3 912.5 L356.3 912.9 L362.5 913.6 L368.8 914.3 L375.0 914.9 L381.2 915.6 L387.5 916.3 L393.8 917.0 L400.0 917.7 L406.2 918.5 L408.5 918.8 L412.5 919.2 L418.8 919.8 L425.0 920.5 L431.2 921.2 L437.5 921.8 L443.8 922.5 L450.0 923.2 L456.2 923.9 L462.5 924.6 L466.3 925.0 L468.8 925.2 L475.0 925.8 L481.2 926.4 L487.5 926.9 L493.8 927.4 L500.0 927.9 L506.2 928.3 L512.5 928.7 L518.8 929.0 L525.0 929.3 L531.2 929.6 L537.5 929.7 L543.8 929.8 L550.0 929.9 L556.2 929.9 L562.5 929.8 L568.8 929.7 L575.0 929.6 L581.2 929.4 L587.5 929.1 L593.8 928.9 L600.0 928.5 L606.2 928.2 L612.5 927.8 L618.8 927.5 L625.0 927.1 L631.2 926.7 L637.5 926.3 L643.8 925.9 L650.0 925.6 L656.2 925.2 L660.5 925.0 L662.5 924.9 L668.8 924.5 L675.0 924.1 L681.2 923.8 L687.5 923.4 L693.8 923.1 L700.0 922.7 L706.2 922.4 L712.5 922.0 L718.8 921.6 L725.0 921.2 L731.2 920.8 L737.5 920.4 L743.8 920.1 L750.0 919.7 L756.3 919.4 L762.5 919.1 L768.8 918.8 L769.7 918.8 L775.0 918.5 L781.2 918.3 L787.5 918.1 L793.8 918.0 L800.0 917.9 L806.2 917.9 L812.5 917.9 L818.7 918.0 L825.0 918.2 L831.2 918.4 L837.5 918.6 L840.6 918.8 L843.8 918.9 L850.0 919.1 L856.2 919.4 L862.5 919.6 L868.8 919.9 L875.0 920.1 L881.2 920.5 L887.5 921.1 L893.8 922.0 L900.0 923.5 L904.4 925.0 L906.2 925.5 L912.5 928.0 L918.8 930.9 L919.4 931.2 L925.0 934.1 L931.0 937.5 L931.3 937.6 L937.5 941.0 L942.8 943.8 L943.8 944.2 L950.0 947.1 L956.2 949.6 L957.3 950.0 L962.5 951.9 L968.8 953.8 L975.0 955.4 L979.2 956.2 L981.2 956.7 L987.5 957.8 L993.7 958.6 L1000.0 959.3 L1006.2 959.8 L1012.5 960.3 L1018.8 960.6 L1025.0 961.0 L1031.2 961.2 L1037.5 961.5 L1043.8 961.7 L1050.0 961.8 L1056.2 962.0 L1062.5 962.1 L1068.8 962.2 L1075.0 962.2 L1081.2 962.3 L1087.5 962.3 L1093.8 962.3 L1100.0 962.3 L1106.2 962.3 L1112.5 962.3 L1118.8 962.3 L1125.0 962.3 L1131.2 962.3 L1137.5 962.3 L1143.8 962.3 L1150.0 962.3 L1156.2 962.3 L1162.5 962.3 L1168.8 962.3 L1175.0 962.3 L1181.2 962.3 L1187.5 962.3 L1193.8 962.3 L1200.0 962.3 L1206.2 962.3 L1212.5 962.3 L1218.8 962.3 L1225.0 962.3 L1231.2 962.3 L1237.5 962.3 L1243.8 962.4 L1250.0 962.4 L1256.2 962.5 L1262.5 962.5 L1268.8 962.4 L1275.0 962.2 L1281.2 961.8 L1287.5 961.2 L1293.8 960.3 L1300.0 958.9 L1306.2 956.8 L1307.4 956.2 L1312.5 953.8 L1318.3 950.0 L1318.8 949.7 L1324.9 943.8 L1324.9 943.8 L1329.3 937.5 L1331.2 933.6 L1332.3 931.2 L1334.2 925.0 L1335.3 918.8 L1335.8 912.5 L1335.7 906.2 L1335.2 900.0 L1334.3 893.8 L1333.3 887.5 L1331.9 881.2 L1331.2 878.3 L1330.5 875.0 L1329.1 868.8 L1327.6 862.5 L1326.2 856.2 L1325.0 851.1 L1324.8 850.0 L1323.5 843.8 L1322.4 837.5 L1321.4 831.2 L1320.5 825.0 L1319.7 818.8 L1319.0 812.5 L1318.8 809.2 L1318.5 806.2 L1318.2 800.0 L1317.9 793.8 L1317.8 787.5 L1317.8 781.2 L1317.9 775.0 L1318.0 768.8 L1318.3 762.5 L1318.6 756.2 L1318.8 753.7 L1319.0 750.0 L1319.4 743.8 L1319.9 737.5 L1320.3 731.2 L1320.7 725.0 L1321.0 718.8 L1321.2 712.5 L1321.2 706.2 L1321.1 700.0 L1320.7 693.8 L1320.1 687.5 L1319.2 681.2 L1318.8 678.6 L1318.1 675.0 L1316.8 668.8 L1315.2 662.5 L1313.4 656.2 L1312.5 653.1 L1311.5 650.0 L1309.5 643.8 L1307.8 637.5 L1306.3 631.2 L1305.0 625.0 L1304.0 618.8 L1303.3 612.5 L1302.9 606.2 L1302.8 600.0 L1302.8 593.8 L1302.9 587.5 L1303.1 581.2 L1303.2 575.0 L1303.4 568.8 L1303.7 562.5 L1304.1 556.2 L1304.5 550.0 L1304.9 543.8 L1305.5 537.5 L1306.1 531.2 L1306.2 530.1 L1306.7 525.0 L1307.4 518.8 L1308.0 512.5 L1308.7 506.3 L1309.5 500.0 L1310.3 493.8 L1311.0 487.5 L1311.8 481.2 L1312.5 475.7 L1312.6 475.0 L1313.3 468.8 L1313.9 462.5 L1314.5 456.2 L1315.1 450.0 L1315.6 443.8 L1316.0 437.5 L1316.4 431.2 L1316.7 425.0 L1317.0 418.8 L1317.1 412.5 L1317.2 406.2 L1317.2 400.0 L1317.1 393.8 L1316.9 387.5 L1316.8 381.2 L1316.5 375.0 L1316.3 368.8 L1316.0 362.5 L1315.8 356.2 L1315.6 350.0 L1315.6 343.8 L1315.7 337.5 L1316.1 331.2 L1316.8 325.0 L1317.9 318.8 L1318.8 314.9 L1319.2 312.5 L1320.8 306.2 L1322.5 300.0 L1324.4 293.8 L1325.0 291.8 L1326.2 287.5 L1328.0 281.2 L1329.5 275.0 L1330.8 268.8 L1331.2 265.9 L1331.8 262.5 L1332.6 256.2 L1333.1 250.0 L1333.4 243.8 L1333.4 237.5 L1333.1 231.2 L1332.7 225.0 L1332.3 218.8 L1331.7 212.5 L1331.2 207.8 L1331.1 206.2 L1330.6 200.0 L1330.1 193.8 L1329.8 187.5 L1329.5 181.2 L1329.4 175.0 L1329.4 168.8 L1329.6 162.5 L1329.8 156.2 L1330.1 150.0 L1330.5 143.8 L1331.0 137.5 L1331.2 134.5 L1331.5 131.2 L1332.1 125.0 L1332.6 118.8 L1333.0 112.5 L1333.3 106.2 L1333.3 100.0 L1333.1 93.8 L1332.5 87.5 L1331.5 81.2 L1331.2 80.4 L1329.8 75.0 L1327.2 68.8 L1325.0 65.0 L1323.4 62.5 L1318.8 57.0 L1318.0 56.2 L1312.5 51.8 L1309.7 50.0 L1306.2 48.1 L1300.0 45.5 L1293.8 43.9 L1293.2 43.8 L1287.5 42.7 L1281.2 42.1 L1275.0 41.8 L1268.8 41.7 L1262.5 41.8 L1256.2 42.0 L1250.0 42.2 L1243.8 42.5 L1237.5 42.8 L1231.2 43.0 L1225.0 43.2 L1218.8 43.4 L1212.5 43.5 L1206.2 43.6 L1200.0 43.6 L1193.8 43.6 L1187.5 43.7 L1181.2 43.7 L1175.0 43.7 L1168.8 43.7 L1162.5 43.7 L1156.2 43.7 L1150.0 43.7 L1143.8 43.7 L1137.5 43.7 L1131.2 43.6 L1125.0 43.6 L1118.8 43.5 L1112.5 43.4 L1106.2 43.3 L1100.0 43.1 L1093.8 42.9 L1087.5 42.7 L1081.2 42.4 L1075.0 42.1 L1068.8 41.8 L1062.5 41.5 L1056.2 41.2 L1050.0 40.8 L1043.8 40.5 L1037.5 40.1 L1031.2 39.8 L1025.0 39.5 L1018.8 39.1 L1012.5 38.9 L1006.2 38.6 L1000.0 38.3 L993.7 38.1 L987.5 37.9 L981.2 37.8 L975.0 37.7 L968.8 37.6 L962.5 37.5 L960.0 37.5 L956.2 37.5 L950.0 37.4 L943.8 37.4 L937.5 37.4 L931.3 37.4 L925.0 37.4 L918.8 37.4 L912.5 37.4 L906.2 37.5 L900.1 37.5 L893.8 37.6 L887.5 37.8 L881.2 38.0 L875.0 38.4 L868.8 39.0 L862.5 39.7 L856.2 40.6 L850.0 41.8 L843.8 43.3 L841.9 43.8 L837.5 44.9 L831.2 46.8 L825.0 48.9 L821.7 50.0 L818.7 51.1 L812.5 53.5 L806.2 55.8 L805.0 56.2 L800.0 58.1 L793.8 60.2 L787.5 62.0 L785.4 62.5 L781.2 63.6 L775.0 64.8 L768.8 65.7 L762.5 66.4 L756.3 66.9 L750.0 67.3 L743.8 67.6 L737.5 68.0 L731.2 68.4 L725.9 68.8 L725.0 68.8 L718.8 69.3 L712.5 69.8 L706.2 70.4 L700.0 71.0 L693.8 71.5 L687.5 72.1 L681.2 72.6 L675.0 73.2 L668.8 73.7 L662.5 74.2 L656.2 74.6 L650.0 75.0 L649.6 75.0 L643.8 75.3 L637.5 75.5 L631.2 75.7 L625.0 75.8 L618.8 75.9 L612.5 75.8 L606.2 75.7 L600.0 75.6 L593.8 75.4 L587.5 75.2 L583.2 75.0 L581.2 74.9 L575.0 74.7 L568.8 74.4 L562.5 74.1 L556.2 73.8 L550.0 73.5 L543.8 73.1 L537.5 72.6 L531.2 72.0 L525.0 71.3 L518.8 70.4 L512.5 69.4 L509.5 68.8 L506.2 68.1 L500.0 66.6 L493.8 65.0 L487.5 63.3 L484.8 62.5 L481.2 61.4 L475.0 59.5 L468.8 57.5 L465.1 56.2 L462.5 55.4 L456.2 53.3 L450.0 51.2 L446.3 50.0 L443.8 49.1 L437.5 47.1 L431.2 45.2 L426.0 43.8 L425.0 43.5 L418.8 41.8 L412.5 40.3 L406.2 39.0 L400.0 38.0 L396.7 37.5 L393.8 37.1 L387.5 36.3 L381.2 35.7 L375.0 35.2 L368.8 34.8 L362.5 34.5 L356.3 34.2 L350.0 34.0 L343.8 33.8 L337.5 33.5 L331.2 33.3 L325.0 33.0 L318.8 32.8 L312.5 32.5 L306.2 32.3 L300.0 32.1 L293.8 31.9 L287.5 31.8 L281.2 31.7 L275.0 31.6 L268.8 31.6 L262.5 31.7 L256.2 31.7 L250.0 31.8 L243.8 32.0 L237.5 32.2 L231.2 32.5 L225.0 32.8 L218.8 33.1 L212.5 33.5 L206.2 33.9 L200.0 34.3 L193.7 34.8 L187.5 35.2 L181.2 35.6 L175.0 36.0 L168.8 36.5 L162.5 36.9 L156.2 37.3 " fill="none" stroke="#8a6f4796" stroke-width="0.8" stroke-linecap="round"/>
<path d="M200.0 49.9 L198.4 50.0 L193.7 50.3 L187.5 50.8 L181.2 51.2 L175.0 51.6 L168.8 52.0 L162.5 52.4 L156.2 52.7 L150.0 53.1 L143.8 53.6 L137.5 54.2 L131.2 55.0 L125.0 56.0 L123.9 56.2 L118.7 57.4 L112.5 59.3 L106.2 61.8 L104.9 62.5 L100.0 65.3 L95.5 68.8 L93.8 70.4 L89.5 75.0 L87.5 77.9 L85.4 81.2 L82.7 87.5 L81.2 92.6 L80.9 93.8 L79.9 100.0 L79.5 106.2 L79.5 112.5 L79.8 118.8 L80.4 125.0 L81.2 131.2 L81.2 131.8 L82.1 137.5 L82.9 143.8 L83.8 150.0 L84.6 156.2 L85.2 162.5 L85.8 168.8 L86.2 175.0 L86.6 181.2 L86.7 187.5 L86.8 193.8 L86.8 200.0 L86.6 206.2 L86.3 212.5 L86.0 218.8 L85.5 225.0 L84.9 231.2 L84.3 237.5 L83.6 243.8 L82.8 250.0 L81.9 256.2 L81.2 260.9 L81.0 262.5 L80.1 268.8 L79.1 275.0 L78.1 281.2 L77.1 287.5 L76.2 293.8 L75.2 300.0 L75.0 301.1 L74.2 306.2 L73.2 312.5 L72.3 318.8 L71.4 325.0 L70.5 331.2 L69.5 337.5 L68.8 342.6 L68.6 343.8 L67.6 350.0 L66.6 356.2 L65.6 362.5 L64.5 368.8 L63.4 375.0 L62.5 379.7 L62.2 381.2 L61.0 387.5 L59.9 393.8 L58.7 400.0 L57.6 406.2 L56.5 412.5 L56.2 414.4 L55.6 418.8 L54.8 425.0 L54.3 431.2 L53.9 437.5 L53.8 443.8 L53.9 450.0 L54.3 456.2 L54.9 462.5 L55.7 468.8 L56.2 472.0 L56.8 475.0 L58.0 481.2 L59.3 487.5 L60.7 493.8 L62.1 500.0 L62.5 501.8 L63.5 506.3 L64.8 512.5 L66.0 518.8 L67.1 525.0 L68.0 531.2 L68.7 537.5 L68.8 538.7 L69.2 543.8 L69.5 550.0 L69.6 556.2 L69.6 562.5 L69.4 568.8 L69.1 575.0 L68.8 581.2 L68.7 581.2 L68.4 587.5 L68.0 593.8 L67.7 600.0 L67.6 606.2 L67.7 612.5 L68.1 618.8 L68.7 625.0 L68.8 625.1 L69.8 631.2 L71.2 637.5 L73.2 643.8 L75.0 648.1 L75.8 650.0 L79.0 656.2 L81.2 660.0 L82.9 662.5 L87.5 668.7 L87.5 668.8 L93.1 675.0 L93.8 675.7 L99.8 681.2 L100.0 681.4 L106.2 686.3 L108.2 687.5 L112.5 690.4 L118.7 693.8 L118.7 693.8 L125.0 696.8 L131.2 699.2 L133.8 700.0 L137.5 701.3 L143.8 703.0 L150.0 704.5 L156.2 705.7 L159.6 706.2 L162.5 706.8 L168.8 708.1 L175.0 709.3 L181.2 710.4 L187.5 711.6 L192.9 712.5 L193.7 712.7 L200.0 713.9 L206.2 715.1 L212.5 716.3 L218.8 717.4 L225.0 718.5 L226.6 718.8 L231.2 719.6 L237.5 720.8 L243.8 721.7 L250.0 722.6 L256.2 723.3 L262.5 723.8 L268.8 724.2 L275.0 724.4 L281.2 724.3 L287.5 724.0 L293.8 723.5 L300.0 722.7 L306.2 721.7 L312.5 720.4 L318.8 718.8 L325.0 717.2 L331.2 715.5 L337.5 713.4 L340.2 712.5 L343.8 711.4 L350.0 709.4 L356.3 707.2 L358.9 706.2 L362.5 705.1 L368.8 703.1 L375.0 700.9 L377.4 700.0 L381.2 698.8 L387.5 696.8 L393.8 694.7 L396.6 693.8 L400.0 692.7 L406.2 691.0 L412.5 689.3 L418.8 687.7 L419.9 687.5 L425.0 686.6 L431.2 686.0 L437.5 685.7 L443.8 686.0 L450.0 686.9 L453.1 687.5 L456.2 688.3 L462.5 690.2 L468.8 692.4 L472.3 693.8 L475.0 694.9 L481.2 697.3 L487.5 699.4 L489.3 700.0 L493.8 701.4 L500.0 703.0 L506.2 704.2 L512.5 705.0 L518.8 705.5 L525.0 705.7 L531.2 705.5 L537.5 705.1 L543.8 704.5 L550.0 703.8 L556.2 702.9 L562.5 701.9 L568.8 700.8 L572.8 700.0 L575.0 699.6 L581.2 698.6 L587.5 697.5 L593.8 696.3 L600.0 695.2 L606.2 694.0 L607.8 693.8 L612.5 692.9 L618.8 691.9 L625.0 690.8 L631.2 689.7 L637.5 688.5 L642.8 687.5 L643.8 687.3 L650.0 686.3 L656.2 685.2 L662.5 684.0 L668.8 682.9 L675.0 681.7 L677.4 681.2 L681.2 680.6 L687.5 679.5 L693.8 678.4 L700.0 677.2 L706.2 676.1 L711.8 675.0 L712.5 674.9 L718.8 673.8 L725.0 672.7 L731.2 671.6 L737.5 670.4 L743.8 669.2 L746.2 668.8 L750.0 668.1 L756.3 667.0 L762.5 665.9 L768.8 664.8 L775.0 663.6 L780.8 662.5 L781.2 662.4 L787.5 661.4 L793.8 660.3 L800.0 659.2 L806.2 658.1 L812.5 656.9 L816.0 656.2 L818.7 655.8 L825.0 654.7 L831.2 653.6 L837.5 652.5 L843.8 651.3 L850.0 650.2 L850.8 650.0 L856.2 649.0 L862.5 647.9 L868.8 646.6 L875.0 645.2 L881.0 643.8 L881.0 643.8 L887.5 642.2 L893.8 640.5 L900.0 638.5 L903.0 637.5 L906.2 636.3 L912.5 633.7 L917.1 631.2 L918.8 630.3 L925.0 625.7 L925.8 625.0 L931.3 619.1 L935.6 612.5 L937.5 609.0 L938.8 606.2 L941.5 600.0 L943.7 593.8 L943.7 593.8 L945.7 587.5 L947.4 581.2 L948.9 575.0 L950.0 569.7 L950.2 568.8 L951.5 562.5 L952.6 556.2 L953.6 550.0 L954.5 543.8 L955.4 537.5 L956.2 531.5 L957.3 525.0 L958.2 518.8 L959.2 512.5 L960.1 506.3 L961.0 500.0 L961.9 493.8 L962.5 489.3 L962.8 487.5 L963.8 481.2 L964.7 475.0 L965.7 468.8 L966.6 462.5 L967.5 456.2 L968.4 450.0 L968.8 447.8 L969.4 443.8 L970.5 437.5 L971.8 431.2 L973.3 425.0 L975.0 419.2 L975.1 418.8 L977.7 412.5 L980.8 406.2 L981.2 405.4 L985.1 400.0 L987.5 397.2 L991.1 393.8 L993.7 391.5 L999.5 387.5 L1000.0 387.2 L1006.2 383.9 L1011.9 381.2 L1012.5 381.0 L1018.8 378.7 L1025.0 376.5 L1029.5 375.0 L1031.2 374.5 L1037.5 372.7 L1043.8 370.8 L1050.0 368.9 L1050.4 368.8 L1056.2 367.1 L1062.5 365.3 L1068.8 363.4 L1071.5 362.5 L1075.0 361.5 L1081.2 359.7 L1087.5 357.8 L1092.5 356.2 L1093.8 355.9 L1100.0 354.1 L1106.2 352.3 L1112.5 350.4 L1113.6 350.0 L1118.8 348.6 L1125.0 346.7 L1131.2 344.9 L1134.8 343.8 L1137.5 343.0 L1143.8 341.2 L1150.0 339.3 L1155.8 337.5 L1156.2 337.4 L1162.5 335.6 L1168.8 333.7 L1175.0 331.8 L1176.7 331.2 L1181.2 330.0 L1187.5 328.1 L1193.8 326.2 L1197.7 325.0 L1200.0 324.3 L1206.2 322.5 L1212.5 320.7 L1218.7 318.8 L1218.7 318.8 L1225.0 317.0 L1231.2 315.1 L1237.5 313.2 L1239.9 312.5 L1243.8 311.4 L1250.0 309.6 L1256.2 307.7 L1260.5 306.2 L1262.5 305.6 L1268.8 303.3 L1275.0 300.4 L1275.7 300.0 L1281.2 297.0 L1285.8 293.8 L1287.5 292.6 L1293.2 287.5 L1293.8 287.0 L1298.6 281.2 L1300.0 279.5 L1302.8 275.0 L1306.2 268.8 L1306.2 268.8 L1308.7 262.5 L1310.6 256.2 L1312.0 250.0 L1312.5 246.9 L1312.9 243.8 L1313.4 237.5 L1313.5 231.2 L1313.3 225.0 L1313.0 218.8 L1312.6 212.5 L1312.5 211.8 L1312.0 206.2 L1311.5 200.0 L1311.1 193.8 L1310.7 187.5 L1310.5 181.2 L1310.4 175.0 L1310.4 168.8 L1310.5 162.5 L1310.8 156.2 L1311.1 150.0 L1311.5 143.8 L1312.0 137.5 L1312.5 131.7 L1312.5 131.2 L1313.1 125.0 L1313.5 118.8 L1313.8 112.5 L1313.8 106.2 L1313.5 100.0 L1312.8 93.8 L1312.5 92.4 L1311.3 87.5 L1308.9 81.2 L1306.2 76.7 L1305.0 75.0 L1300.0 70.1 L1298.1 68.8 L1293.8 66.3 L1287.5 63.8 L1282.0 62.5 L1281.2 62.3 L1275.0 61.5 L1268.8 61.1 L1262.5 60.9 L1256.2 61.0 L1250.0 61.2 L1243.8 61.5 L1237.5 61.8 L1231.2 62.0 L1225.0 62.1 L1218.8 62.3 L1212.5 62.4 L1206.2 62.5 L1200.5 62.5 L1200.0 62.5 L1193.8 62.5 L1187.5 62.6 L1181.2 62.6 L1175.0 62.6 L1168.8 62.6 L1162.5 62.6 L1156.2 62.6 L1150.0 62.6 L1143.8 62.6 L1137.5 62.6 L1131.2 62.5 L1127.5 62.5 L1125.0 62.5 L1118.8 62.4 L1112.5 62.3 L1106.2 62.2 L1100.0 62.1 L1093.8 61.9 L1087.5 61.7 L1081.2 61.4 L1075.0 61.1 L1068.8 60.9 L1062.5 60.5 L1056.2 60.2 L1050.0 59.9 L1043.8 59.5 L1037.5 59.2 L1031.2 58.8 L1025.0 58.5 L1018.8 58.2 L1012.5 57.9 L1006.2 57.6 L1000.0 57.3 L993.7 57.1 L987.5 56.9 L981.2 56.7 L975.0 56.6 L968.8 56.5 L962.5 56.4 L956.2 56.4 L950.0 56.3 L943.8 56.3 L937.5 56.3 L931.3 56.3 L925.0 56.3 L918.8 56.3 L912.5 56.3 L906.2 56.3 L900.0 56.4 L893.8 56.5 L887.5 56.8 L881.2 57.2 L875.0 57.8 L868.8 58.6 L862.5 59.8 L856.2 61.2 L852.0 62.5 L850.0 63.1 L843.8 65.6 L837.5 68.4 L836.8 68.8 L831.2 71.9 L826.3 75.0 L825.0 76.0 L818.7 80.7 L818.1 81.2 L812.5 86.2 L811.0 87.5 L806.2 92.0 L804.2 93.8 L800.0 97.6 L796.9 100.0 L793.8 102.5 L787.8 106.2 L781.2 109.2 L775.0 111.3 L769.6 112.5 L768.8 112.7 L762.5 113.5 L756.3 114.0 L750.0 114.1 L743.8 114.1 L737.5 114.0 L731.2 113.8 L725.0 113.6 L718.8 113.4 L712.5 113.2 L706.2 113.1 L700.0 113.0 L693.8 113.0 L687.5 113.0 L681.2 112.9 L675.0 112.9 L668.8 113.0 L662.5 113.0 L656.2 112.9 L650.0 112.9 L643.8 112.8 L637.5 112.7 L631.2 112.5 L629.7 112.5 L625.0 112.4 L618.8 112.2 L612.5 112.0 L606.2 111.8 L600.0 111.6 L593.8 111.4 L587.5 111.2 L581.2 111.0 L575.0 110.9 L568.8 110.8 L562.5 110.6 L556.2 110.4 L550.0 110.1 L543.8 109.6 L537.5 108.9 L531.2 107.9 L525.0 106.4 L524.5 106.2 L518.8 104.5 L512.5 102.2 L507.7 100.0 L506.2 99.4 L500.0 96.2 L495.5 93.8 L493.8 92.8 L487.5 89.4 L484.3 87.5 L481.2 85.9 L475.0 82.5 L472.7 81.2 L468.8 79.2 L462.5 76.1 L460.2 75.0 L456.2 73.2 L450.0 70.3 L446.4 68.8 L443.8 67.6 L437.5 65.1 L431.2 62.7 L430.6 62.5 L425.0 60.6 L418.8 58.6 L412.5 56.9 L410.1 56.2 L406.2 55.3 L400.0 54.0 L393.8 53.0 L387.5 52.1 L381.2 51.4 L375.0 50.8 L368.8 50.4 L362.5 50.1 L360.4 50.0 L356.3 49.8 L350.0 49.6 L343.8 49.3 L337.5 49.1 L331.2 48.8 L325.0 48.6 L318.8 48.3 L312.5 48.0 L306.2 47.8 L300.0 47.6 L293.8 47.4 L287.5 47.2 L281.2 47.1 L275.0 47.1 L268.8 47.1 L262.5 47.1 L256.2 47.2 L250.0 47.3 L243.8 47.5 L237.5 47.7 L231.2 48.0 L225.0 48.3 L218.8 48.7 L212.5 49.1 L206.2 49.5 L200.0 49.9 " fill="none" stroke="#8a6f4796" stroke-width="0.8" stroke-linecap="round"/>
<path d="M975.0 636.8 L972.3 637.5 L968.8 638.4 L962.5 640.5 L956.2 643.6 L955.9 643.8 L950.0 647.7 L947.5 650.0 L943.8 654.5 L942.5 656.2 L939.1 662.5 L937.5 666.2 L936.5 668.8 L934.4 675.0 L932.7 681.2 L931.5 687.5 L931.3 689.0 L930.4 693.8 L929.6 700.0 L929.0 706.2 L928.5 712.5 L928.3 718.8 L928.1 725.0 L928.0 731.2 L928.0 737.5 L928.0 743.8 L927.9 750.0 L927.9 756.2 L927.8 762.5 L927.7 768.8 L927.5 775.0 L927.3 781.2 L927.1 787.5 L926.9 793.8 L926.7 800.0 L926.4 806.2 L926.2 812.5 L926.0 818.8 L925.8 825.0 L925.6 831.2 L925.5 837.5 L925.4 843.8 L925.3 850.0 L925.3 856.2 L925.2 862.5 L925.3 868.8 L925.6 875.0 L926.2 881.2 L927.3 887.5 L929.0 893.8 L931.3 899.3 L931.5 900.0 L934.6 906.2 L937.5 910.5 L938.8 912.5 L943.8 918.2 L944.3 918.8 L950.0 923.9 L951.4 925.0 L956.2 928.4 L960.8 931.2 L962.5 932.2 L968.8 935.3 L974.3 937.5 L975.0 937.8 L981.2 939.7 L987.5 941.2 L993.7 942.4 L1000.0 943.3 L1003.6 943.8 L1006.2 944.1 L1012.5 944.6 L1018.8 945.1 L1025.0 945.4 L1031.2 945.7 L1037.5 946.0 L1043.8 946.2 L1050.0 946.4 L1056.2 946.5 L1062.5 946.6 L1068.8 946.7 L1075.0 946.8 L1081.2 946.8 L1087.5 946.9 L1093.8 946.9 L1100.0 946.9 L1106.2 946.9 L1112.5 946.9 L1118.8 946.9 L1125.0 946.9 L1131.2 946.9 L1137.5 946.9 L1143.8 946.9 L1150.0 946.9 L1156.2 946.9 L1162.5 946.9 L1168.8 946.9 L1175.0 946.9 L1181.2 946.9 L1187.5 946.9 L1193.8 946.9 L1200.0 946.9 L1206.2 946.9 L1212.5 946.9 L1218.8 946.9 L1225.0 946.9 L1231.2 946.9 L1237.5 946.9 L1243.8 946.9 L1250.0 947.0 L1256.2 947.0 L1262.5 946.9 L1268.8 946.6 L1275.0 946.2 L1281.2 945.4 L1287.5 944.2 L1289.3 943.8 L1293.8 942.4 L1300.0 939.6 L1303.4 937.5 L1306.2 935.3 L1310.3 931.2 L1312.5 928.3 L1314.5 925.0 L1317.0 918.8 L1318.3 912.5 L1318.8 907.2 L1318.8 906.2 L1318.8 902.7 L1318.7 900.0 L1318.1 893.8 L1317.2 887.5 L1316.0 881.2 L1314.7 875.0 L1313.2 868.8 L1312.5 865.7 L1311.7 862.5 L1310.3 856.2 L1309.0 850.0 L1307.8 843.8 L1306.7 837.5 L1306.2 834.6 L1305.7 831.2 L1304.8 825.0 L1304.1 818.8 L1303.5 812.5 L1303.0 806.2 L1302.7 800.0 L1302.4 793.8 L1302.3 787.5 L1302.3 781.2 L1302.4 775.0 L1302.5 768.8 L1302.8 762.5 L1303.1 756.2 L1303.5 750.0 L1303.9 743.8 L1304.3 737.5 L1304.6 731.2 L1304.8 725.0 L1304.9 718.8 L1304.8 712.5 L1304.5 706.2 L1303.8 700.0 L1302.7 693.8 L1301.2 687.5 L1300.0 683.9 L1299.0 681.2 L1296.3 675.0 L1293.8 670.2 L1292.8 668.8 L1288.1 662.5 L1287.5 661.7 L1281.6 656.2 L1275.0 651.8 L1271.0 650.0 L1268.8 648.9 L1262.5 646.7 L1256.2 645.3 L1250.0 644.5 L1243.8 643.9 L1240.7 643.8 L1237.5 643.5 L1231.2 643.2 L1225.0 642.8 L1218.8 642.5 L1212.5 642.2 L1206.2 641.8 L1200.0 641.5 L1193.8 641.2 L1187.5 640.9 L1181.2 640.6 L1175.0 640.3 L1168.8 640.0 L1162.5 639.7 L1156.2 639.4 L1150.0 639.2 L1143.8 638.9 L1137.5 638.6 L1131.2 638.4 L1125.0 638.1 L1118.8 637.8 L1112.5 637.6 L1111.1 637.5 L1106.2 637.2 L1100.0 636.9 L1093.8 636.6 L1087.5 636.2 L1081.2 635.9 L1075.0 635.6 L1068.8 635.3 L1062.5 634.9 L1056.2 634.6 L1050.0 634.3 L1043.8 634.0 L1037.5 633.8 L1031.2 633.5 L1025.0 633.3 L1018.8 633.1 L1012.5 633.1 L1006.2 633.2 L1000.0 633.4 L993.7 633.8 L987.5 634.5 L981.2 635.4 L975.0 636.8 " fill="none" stroke="#8a6f4796" stroke-width="0.8" stroke-linecap="round"/>
<path d="M150.0 68.7 L148.8 68.8 L143.8 69.2 L137.5 70.0 L131.2 71.1 L125.0 72.6 L118.7 74.6 L117.9 75.0 L112.5 77.8 L107.6 81.2 L106.2 82.5 L102.1 87.5 L100.0 91.2 L98.8 93.8 L96.9 100.0 L95.9 106.2 L95.5 112.5 L95.6 118.8 L96.1 125.0 L96.9 131.2 L97.8 137.5 L98.6 143.8 L99.4 150.0 L100.0 155.0 L100.2 156.2 L100.8 162.5 L101.4 168.8 L101.8 175.0 L102.1 181.2 L102.3 187.5 L102.4 193.8 L102.4 200.0 L102.2 206.2 L101.9 212.5 L101.6 218.8 L101.1 225.0 L100.5 231.2 L100.0 236.2 L99.9 237.5 L99.2 243.8 L98.4 250.0 L97.6 256.2 L96.7 262.5 L95.8 268.8 L94.8 275.0 L93.8 281.2 L93.7 281.2 L92.8 287.5 L91.8 293.8 L90.9 300.0 L89.9 306.2 L88.9 312.5 L87.9 318.8 L87.5 321.5 L87.0 325.0 L86.1 331.2 L85.2 337.5 L84.2 343.8 L83.3 350.0 L82.3 356.2 L81.2 362.2 L81.2 362.5 L80.2 368.8 L79.1 375.0 L78.0 381.2 L76.8 387.5 L75.6 393.8 L75.0 396.7 L74.4 400.0 L73.3 406.2 L72.3 412.5 L71.3 418.8 L70.5 425.0 L69.9 431.2 L69.5 437.5 L69.4 443.8 L69.5 450.0 L69.9 456.2 L70.6 462.5 L71.5 468.8 L72.6 475.0 L73.8 481.2 L75.0 487.1 L75.1 487.5 L76.6 493.8 L78.0 500.0 L79.3 506.3 L80.6 512.5 L81.2 516.1 L81.8 518.8 L82.8 525.0 L83.7 531.2 L84.3 537.5 L84.8 543.8 L85.0 550.0 L85.2 556.2 L85.1 562.5 L85.0 568.8 L84.7 575.0 L84.3 581.2 L83.9 587.5 L83.6 593.8 L83.4 600.0 L83.3 606.2 L83.6 612.5 L84.2 618.8 L85.2 625.0 L86.7 631.2 L87.5 633.7 L89.0 637.5 L92.1 643.8 L93.8 646.4 L96.5 650.0 L100.0 654.0 L102.4 656.2 L106.2 659.5 L110.7 662.5 L112.5 663.7 L118.7 666.9 L123.2 668.8 L125.0 669.5 L131.2 671.6 L137.5 673.3 L143.8 674.7 L145.3 675.0 L150.0 676.0 L156.2 677.1 L162.5 678.3 L168.8 679.5 L175.0 680.7 L178.1 681.2 L181.2 681.8 L187.5 683.0 L193.7 684.2 L200.0 685.4 L206.2 686.5 L211.5 687.5 L212.5 687.7 L218.8 688.9 L225.0 690.0 L231.2 691.1 L237.5 692.2 L243.8 693.2 L247.6 693.8 L250.0 694.1 L256.2 694.9 L262.5 695.5 L268.8 695.9 L275.0 696.0 L281.2 695.9 L287.5 695.5 L293.8 694.9 L300.0 693.9 L301.0 693.8 L306.2 692.7 L312.5 691.3 L318.8 689.7 L325.0 687.9 L326.2 687.5 L331.2 686.0 L337.5 684.0 L343.8 681.9 L345.6 681.2 L350.0 679.8 L356.3 677.7 L362.5 675.6 L364.2 675.0 L368.8 673.5 L375.0 671.4 L381.2 669.3 L382.8 668.8 L387.5 667.2 L393.8 665.1 L400.0 663.1 L401.8 662.5 L406.2 661.1 L412.5 659.2 L418.8 657.4 L423.2 656.2 L425.0 655.8 L431.2 654.3 L437.5 653.1 L443.8 652.2 L450.0 651.7 L456.2 651.5 L462.5 651.8 L468.8 652.5 L475.0 653.8 L481.2 655.5 L483.6 656.2 L487.5 657.4 L493.8 659.4 L500.0 661.3 L504.3 662.5 L506.2 663.0 L512.5 664.2 L518.8 665.0 L525.0 665.4 L531.2 665.3 L537.5 665.0 L543.8 664.4 L550.0 663.6 L556.2 662.7 L557.8 662.5 L562.5 661.7 L568.8 660.6 L575.0 659.4 L581.2 658.3 L587.5 657.3 L593.4 656.2 L593.4 656.2 L600.0 655.0 L606.2 653.9 L612.5 652.8 L618.8 651.7 L625.0 650.6 L628.5 650.0 L631.2 649.5 L637.5 648.3 L643.8 647.2 L650.0 646.1 L656.2 645.0 L662.5 643.9 L663.2 643.8 L668.8 642.7 L675.0 641.5 L681.2 640.4 L687.5 639.3 L693.8 638.2 L697.6 637.5 L700.0 637.0 L706.2 635.9 L712.5 634.7 L718.8 633.6 L725.0 632.5 L731.2 631.4 L732.0 631.2 L737.5 630.2 L743.8 629.0 L750.0 627.9 L756.3 626.8 L762.5 625.7 L766.5 625.0 L768.8 624.6 L775.0 623.4 L781.2 622.3 L787.5 621.2 L793.8 620.1 L800.0 619.0 L801.6 618.8 L806.2 617.9 L812.5 616.7 L818.7 615.6 L825.0 614.5 L831.2 613.4 L836.6 612.5 L837.5 612.3 L843.8 611.1 L850.0 610.0 L856.2 608.7 L862.5 607.4 L867.0 606.2 L868.8 605.8 L875.0 603.7 L881.2 601.2 L883.7 600.0 L887.5 597.8 L893.4 593.8 L893.4 593.8 L899.5 587.5 L900.0 586.8 L903.6 581.2 L906.2 576.1 L906.7 575.0 L909.0 568.8 L910.8 562.5 L912.3 556.2 L912.5 555.3 L913.5 550.0 L914.5 543.8 L915.4 537.5 L916.3 531.2 L917.2 525.0 L918.2 518.8 L918.8 515.3 L919.1 512.5 L920.0 506.3 L920.9 500.0 L921.8 493.8 L922.8 487.5 L923.7 481.2 L924.7 475.0 L925.0 473.2 L925.6 468.8 L926.5 462.5 L927.5 456.2 L928.4 450.0 L929.4 443.8 L930.4 437.5 L931.3 432.6 L931.5 431.2 L932.6 425.0 L933.8 418.8 L935.2 412.5 L936.9 406.2 L937.5 404.5 L938.9 400.0 L941.2 393.8 L943.8 388.2 L944.1 387.5 L947.5 381.2 L950.0 377.6 L951.8 375.0 L956.2 369.7 L957.2 368.8 L962.5 363.6 L963.9 362.5 L968.8 358.7 L972.5 356.2 L975.0 354.7 L981.2 351.2 L983.9 350.0 L987.5 348.3 L993.7 345.7 L999.1 343.8 L1000.0 343.4 L1006.2 341.2 L1012.5 339.1 L1018.0 337.5 L1018.8 337.2 L1025.0 335.3 L1031.2 333.4 L1037.5 331.6 L1038.7 331.2 L1043.8 329.7 L1050.0 327.8 L1056.2 326.0 L1059.8 325.0 L1062.5 324.1 L1068.8 322.2 L1075.0 320.4 L1080.8 318.8 L1081.2 318.6 L1087.5 316.7 L1093.8 314.8 L1100.0 313.0 L1101.9 312.5 L1106.2 311.2 L1112.5 309.3 L1118.8 307.5 L1123.1 306.2 L1125.0 305.6 L1131.2 303.7 L1137.5 301.9 L1143.8 300.1 L1150.0 298.2 L1156.2 296.3 L1162.5 294.5 L1165.0 293.8 L1168.8 292.6 L1175.0 290.7 L1181.2 288.8 L1185.9 287.5 L1187.5 287.0 L1193.8 285.1 L1200.0 283.2 L1206.2 281.5 L1207.0 281.2 L1212.5 279.6 L1218.8 277.7 L1225.0 275.9 L1228.2 275.0 L1231.2 274.0 L1237.5 272.1 L1243.8 270.3 L1249.2 268.8 L1250.0 268.5 L1256.2 266.4 L1262.5 263.9 L1265.5 262.5 L1268.8 260.7 L1275.0 256.4 L1281.0 250.0 L1281.2 249.6 L1284.4 243.8 L1286.7 237.5 L1287.5 233.9 L1288.0 231.2 L1288.5 225.0 L1288.6 218.8 L1288.4 212.5 L1288.1 206.2 L1287.7 200.0 L1287.5 196.8 L1287.3 193.8 L1286.9 187.5 L1286.7 181.2 L1286.6 175.0 L1286.6 168.8 L1286.8 162.5 L1287.0 156.2 L1287.4 150.0 L1287.5 148.3 L1287.8 143.8 L1288.2 137.5 L1288.7 131.2 L1289.1 125.0 L1289.3 118.8 L1289.1 112.5 L1288.3 106.2 L1287.5 103.2 L1286.3 100.0 L1282.2 93.8 L1281.2 92.8 L1275.0 88.6 L1272.2 87.5 L1268.8 86.5 L1262.5 85.5 L1256.2 85.1 L1250.0 85.1 L1243.8 85.3 L1237.5 85.6 L1231.2 85.7 L1225.0 85.9 L1218.8 86.0 L1212.5 86.1 L1206.2 86.2 L1200.0 86.2 L1193.8 86.2 L1187.5 86.3 L1181.2 86.3 L1175.0 86.3 L1168.8 86.3 L1162.5 86.3 L1156.2 86.3 L1150.0 86.3 L1143.8 86.3 L1137.5 86.2 L1131.2 86.2 L1125.0 86.2 L1118.8 86.1 L1112.5 86.1 L1106.2 86.0 L1100.0 85.8 L1093.8 85.7 L1087.5 85.5 L1081.2 85.2 L1075.0 85.0 L1068.8 84.7 L1062.5 84.4 L1056.2 84.1 L1050.0 83.7 L1043.8 83.4 L1037.5 83.0 L1031.2 82.6 L1025.0 82.3 L1018.8 81.9 L1012.5 81.5 L1007.3 81.2 L1006.2 81.2 L1000.0 81.0 L993.7 80.7 L987.5 80.5 L981.2 80.4 L975.0 80.3 L968.8 80.2 L962.5 80.1 L956.2 80.1 L950.0 80.0 L943.8 80.0 L937.5 80.0 L931.3 80.0 L925.0 80.0 L918.8 80.0 L912.5 80.0 L906.2 80.0 L900.0 80.1 L893.8 80.3 L887.5 80.8 L883.0 81.2 L881.2 81.5 L875.0 82.8 L868.8 84.6 L862.5 87.0 L861.4 87.5 L856.2 90.7 L852.0 93.8 L850.0 95.6 L845.7 100.0 L843.8 102.3 L840.7 106.2 L837.5 110.7 L836.2 112.5 L831.9 118.8 L831.2 119.7 L827.3 125.0 L825.0 127.8 L821.9 131.2 L818.7 134.3 L814.8 137.5 L812.5 139.2 L806.2 143.0 L804.8 143.8 L800.0 146.1 L793.8 148.4 L787.8 150.0 L781.2 151.4 L775.0 152.3 L768.8 152.9 L762.5 153.2 L756.3 153.4 L750.0 153.4 L743.8 153.3 L737.5 153.1 L731.2 152.8 L725.0 152.6 L718.8 152.3 L712.5 152.1 L706.2 151.9 L700.0 151.7 L693.8 151.5 L687.5 151.4 L681.2 151.3 L675.0 151.2 L668.8 151.0 L662.5 150.9 L656.2 150.8 L650.0 150.7 L643.8 150.5 L637.5 150.3 L631.3 150.0 L625.0 149.8 L618.8 149.5 L612.5 149.2 L606.2 149.0 L600.0 148.8 L593.8 148.6 L587.5 148.4 L581.2 148.2 L575.0 148.1 L568.8 148.0 L562.5 147.9 L556.2 147.7 L550.0 147.4 L543.8 146.8 L537.5 145.8 L531.2 144.3 L529.4 143.8 L525.0 142.5 L518.8 140.0 L514.0 137.5 L512.5 136.8 L506.2 133.0 L503.9 131.2 L500.0 128.6 L495.4 125.0 L493.8 123.8 L487.6 118.8 L481.2 113.5 L480.0 112.5 L475.0 108.5 L472.3 106.2 L468.8 103.6 L464.1 100.0 L462.5 98.9 L456.2 94.6 L455.0 93.8 L450.0 90.6 L444.7 87.5 L443.8 87.0 L437.5 83.7 L432.6 81.2 L431.2 80.6 L425.0 78.0 L418.8 75.5 L417.2 75.0 L412.5 73.5 L406.2 71.7 L400.0 70.2 L393.8 68.9 L393.1 68.8 L387.5 67.9 L381.2 67.1 L375.0 66.5 L368.8 66.1 L362.5 65.7 L356.3 65.4 L350.0 65.1 L343.8 64.9 L337.5 64.6 L331.2 64.4 L325.0 64.1 L318.8 63.8 L312.5 63.6 L306.2 63.3 L300.0 63.1 L293.8 62.9 L287.5 62.7 L281.2 62.6 L275.0 62.5 L268.8 62.5 L262.5 62.6 L256.2 62.6 L250.0 62.8 L243.8 63.0 L237.5 63.2 L231.2 63.5 L225.0 63.9 L218.8 64.2 L212.5 64.6 L206.2 65.0 L200.0 65.5 L193.7 65.9 L187.5 66.3 L181.2 66.7 L175.0 67.1 L168.8 67.5 L162.5 67.9 L156.2 68.2 L150.0 68.7 " fill="none" stroke="#8a6f4796" stroke-width="0.8" stroke-linecap="round"/>
<path d="M1006.2 662.1 L1002.7 662.5 L1000.0 662.9 L993.7 664.1 L987.5 666.1 L981.7 668.8 L981.2 669.0 L975.0 673.3 L973.1 675.0 L968.8 679.7 L967.5 681.2 L963.8 687.5 L962.5 690.5 L961.2 693.8 L959.4 700.0 L958.2 706.2 L957.3 712.5 L956.8 718.8 L956.5 725.0 L956.3 731.2 L956.2 735.9 L956.2 737.5 L956.2 743.8 L956.2 750.0 L956.1 756.2 L956.0 762.5 L955.9 768.8 L955.7 775.0 L955.5 781.2 L955.3 787.5 L955.1 793.8 L954.8 800.0 L954.6 806.2 L954.3 812.5 L954.0 818.8 L953.8 825.0 L953.6 831.2 L953.5 837.5 L953.4 843.8 L953.3 850.0 L953.2 856.2 L953.2 862.5 L953.2 868.8 L953.5 875.0 L954.1 881.2 L955.1 887.5 L956.2 891.9 L956.7 893.8 L959.2 900.0 L962.5 905.8 L962.8 906.2 L968.0 912.5 L968.8 913.2 L975.0 918.1 L976.1 918.8 L981.2 921.5 L987.5 924.0 L990.8 925.0 L993.7 925.8 L1000.0 927.1 L1006.2 928.1 L1012.5 928.9 L1018.8 929.4 L1025.0 929.9 L1031.2 930.2 L1037.5 930.4 L1043.8 930.7 L1050.0 930.9 L1056.2 931.1 L1062.5 931.2 L1066.2 931.2 L1068.8 931.3 L1075.0 931.4 L1081.2 931.4 L1087.5 931.4 L1093.8 931.4 L1100.0 931.4 L1106.2 931.4 L1112.5 931.4 L1118.8 931.4 L1125.0 931.4 L1131.2 931.4 L1137.5 931.4 L1143.8 931.4 L1150.0 931.4 L1156.2 931.4 L1162.5 931.4 L1168.8 931.4 L1175.0 931.4 L1181.2 931.4 L1187.5 931.4 L1193.8 931.4 L1200.0 931.4 L1206.2 931.4 L1212.5 931.4 L1218.8 931.4 L1225.0 931.4 L1231.2 931.4 L1237.5 931.5 L1243.8 931.5 L1250.0 931.5 L1256.2 931.4 L1259.4 931.2 L1262.5 931.1 L1268.8 930.5 L1275.0 929.5 L1281.2 927.9 L1287.5 925.3 L1288.1 925.0 L1293.8 920.7 L1295.6 918.8 L1299.3 912.5 L1300.0 910.3 L1301.1 906.2 L1301.7 900.0 L1301.6 893.8 L1301.0 887.5 L1300.1 881.2 L1298.8 875.0 L1297.3 868.8 L1295.9 862.5 L1294.6 856.2 L1293.8 852.2 L1293.3 850.0 L1292.1 843.8 L1291.0 837.5 L1290.0 831.2 L1289.2 825.0 L1288.5 818.8 L1287.9 812.5 L1287.5 806.5 L1287.1 800.0 L1286.9 793.8 L1286.8 787.5 L1286.8 781.2 L1286.9 775.0 L1287.0 768.8 L1287.3 762.5 L1287.5 758.7 L1287.6 756.2 L1288.0 750.0 L1288.3 743.8 L1288.6 737.5 L1288.8 731.2 L1288.8 725.0 L1288.6 718.8 L1288.1 712.5 L1287.5 708.7 L1287.0 706.2 L1285.2 700.0 L1282.5 693.8 L1281.2 691.5 L1278.3 687.5 L1275.0 684.0 L1271.5 681.2 L1268.8 679.4 L1262.5 676.3 L1258.4 675.0 L1256.2 674.3 L1250.0 673.0 L1243.8 672.2 L1237.5 671.6 L1231.2 671.2 L1225.0 670.9 L1218.8 670.6 L1212.5 670.3 L1206.2 670.0 L1200.0 669.7 L1193.8 669.4 L1187.5 669.1 L1181.2 668.8 L1179.6 668.8 L1175.0 668.5 L1168.8 668.2 L1162.5 667.9 L1156.2 667.6 L1150.0 667.3 L1143.8 667.0 L1137.5 666.7 L1131.2 666.4 L1125.0 666.1 L1118.8 665.8 L1112.5 665.5 L1106.2 665.3 L1100.0 665.0 L1093.8 664.7 L1087.5 664.4 L1081.2 664.1 L1075.0 663.8 L1068.8 663.5 L1062.5 663.2 L1056.2 662.9 L1050.0 662.6 L1048.3 662.5 L1043.8 662.3 L1037.5 662.0 L1031.2 661.7 L1025.0 661.5 L1018.8 661.5 L1012.5 661.6 L1006.2 662.1 " fill="none" stroke="#8a6f4796" stroke-width="0.8" stroke-linecap="round"/>
<path d="M193.7 87.2 L189.1 87.5 L187.5 87.6 L181.2 88.1 L175.0 88.5 L168.8 88.9 L162.5 89.3 L156.2 89.8 L150.0 90.3 L143.8 91.2 L137.5 92.6 L134.4 93.8 L131.2 95.3 L125.0 99.7 L124.7 100.0 L120.7 106.2 L118.7 111.6 L118.5 112.5 L117.9 118.8 L117.9 125.0 L118.5 131.2 L118.7 133.6 L119.4 137.5 L120.3 143.8 L121.1 150.0 L121.9 156.2 L122.5 162.5 L123.0 168.8 L123.4 175.0 L123.6 181.2 L123.8 187.5 L123.8 193.8 L123.8 200.0 L123.7 206.2 L123.4 212.5 L123.1 218.8 L122.7 225.0 L122.1 231.2 L121.5 237.5 L120.8 243.8 L120.0 250.0 L119.1 256.2 L118.7 258.4 L118.2 262.5 L117.4 268.8 L116.5 275.0 L115.5 281.2 L114.5 287.5 L113.4 293.8 L112.5 299.1 L112.4 300.0 L111.5 306.2 L110.6 312.5 L109.7 318.8 L108.7 325.0 L107.7 331.2 L106.7 337.5 L106.2 340.3 L105.8 343.8 L104.9 350.0 L104.0 356.2 L103.0 362.5 L102.0 368.8 L100.8 375.0 L100.0 379.0 L99.6 381.2 L98.6 387.5 L97.5 393.8 L96.3 400.0 L95.1 406.2 L93.9 412.5 L93.8 413.2 L93.0 418.8 L92.2 425.0 L91.6 431.2 L91.2 437.5 L91.1 443.8 L91.2 450.0 L91.7 456.2 L92.3 462.5 L93.2 468.8 L93.8 471.8 L94.4 475.0 L95.8 481.2 L97.2 487.5 L98.6 493.8 L99.8 500.0 L100.0 500.8 L101.3 506.3 L102.5 512.5 L103.6 518.8 L104.5 525.0 L105.2 531.2 L105.8 537.5 L106.1 543.8 L106.2 546.9 L106.4 550.0 L106.5 556.2 L106.4 562.5 L106.2 568.4 L106.2 568.8 L106.0 575.0 L105.7 581.2 L105.3 587.5 L105.0 593.8 L104.9 600.0 L105.2 606.2 L105.9 612.5 L106.2 614.3 L107.5 618.8 L110.1 625.0 L112.5 629.0 L114.2 631.2 L118.7 635.7 L121.1 637.5 L125.0 639.8 L131.2 642.7 L134.3 643.8 L137.5 644.7 L143.8 646.1 L150.0 647.3 L156.2 648.6 L162.5 649.8 L163.3 650.0 L168.8 650.9 L175.0 652.1 L181.2 653.2 L187.5 654.4 L193.7 655.7 L196.7 656.2 L200.0 656.8 L206.2 657.9 L212.5 659.1 L218.8 660.2 L225.0 661.5 L230.2 662.5 L231.2 662.7 L237.5 663.7 L243.8 664.7 L250.0 665.6 L256.2 666.4 L262.5 667.0 L268.8 667.5 L275.0 667.6 L281.2 667.5 L287.5 667.0 L293.8 666.2 L300.0 665.1 L306.2 663.8 L311.6 662.5 L312.5 662.2 L318.8 660.4 L325.0 658.4 L331.2 656.6 L332.2 656.2 L337.5 654.4 L343.8 652.3 L350.0 650.3 L351.0 650.0 L356.3 648.1 L362.5 646.0 L368.8 644.0 L369.5 643.8 L375.0 641.8 L381.2 639.6 L387.4 637.5 L387.4 637.5 L393.8 635.0 L400.0 632.6 L403.4 631.2 L406.2 630.0 L412.5 627.0 L416.7 625.0 L418.8 623.8 L425.0 619.9 L426.7 618.8 L431.2 614.9 L433.9 612.5 L437.5 608.2 L439.0 606.2 L442.5 600.0 L443.8 596.5 L444.8 593.8 L446.3 587.5 L447.3 581.2 L448.0 575.0 L448.6 568.8 L449.2 562.5 L449.8 556.2 L450.0 554.4 L450.4 550.0 L451.0 543.8 L451.6 537.5 L452.1 531.2 L452.7 525.0 L453.3 518.8 L453.8 512.5 L454.4 506.3 L455.0 500.0 L455.5 493.8 L456.1 487.5 L456.2 485.9 L456.7 481.2 L457.3 475.0 L457.8 468.8 L458.4 462.5 L458.9 456.2 L459.5 450.0 L460.1 443.8 L460.7 437.5 L461.2 431.2 L461.8 425.0 L462.4 418.8 L462.5 417.6 L463.0 412.5 L463.6 406.2 L464.1 400.0 L464.7 393.8 L465.3 387.5 L465.9 381.2 L466.5 375.0 L467.1 368.8 L467.7 362.5 L468.3 356.2 L468.8 351.2 L468.9 350.0 L469.4 343.8 L470.0 337.5 L470.6 331.2 L471.2 325.0 L471.7 318.8 L472.3 312.5 L472.9 306.2 L473.4 300.0 L474.0 293.8 L474.6 287.5 L475.0 282.8 L475.1 281.2 L475.7 275.0 L476.3 268.8 L476.9 262.5 L477.4 256.2 L478.0 250.0 L478.6 243.8 L479.2 237.5 L479.8 231.2 L480.4 225.0 L481.0 218.8 L481.2 215.6 L481.5 212.5 L482.1 206.2 L482.7 200.0 L483.0 193.8 L483.0 187.5 L482.6 181.2 L481.7 175.0 L481.2 173.2 L480.2 168.8 L477.9 162.5 L475.1 156.2 L471.5 150.0 L468.8 145.9 L467.4 143.8 L462.8 137.5 L462.5 137.1 L457.7 131.2 L456.2 129.6 L452.1 125.0 L450.0 123.0 L445.6 118.8 L443.8 117.2 L438.2 112.5 L437.5 112.0 L431.2 107.7 L429.2 106.2 L425.0 103.8 L418.8 100.3 L418.2 100.0 L412.5 97.5 L406.2 95.0 L402.7 93.8 L400.0 92.9 L393.8 91.4 L387.5 90.1 L381.2 89.0 L375.0 88.1 L368.9 87.5 L362.5 87.1 L356.3 86.8 L350.0 86.6 L343.8 86.3 L337.5 86.1 L331.2 85.8 L325.0 85.6 L318.8 85.3 L312.5 85.0 L306.2 84.8 L300.0 84.5 L293.8 84.3 L287.5 84.2 L281.2 84.0 L275.0 84.0 L268.8 84.0 L262.5 84.0 L256.2 84.1 L250.0 84.2 L243.8 84.4 L237.5 84.7 L231.2 85.0 L225.0 85.3 L218.8 85.7 L212.5 86.1 L206.2 86.4 L200.0 86.8 L193.7 87.2 " fill="none" stroke="#8a6f4796" stroke-width="0.8" stroke-linecap="round"/>
<path d="M1006.2 692.7 L1003.5 693.8 L1000.0 695.6 L994.4 700.0 L993.7 700.7 L990.1 706.2 L987.5 712.0 L987.3 712.5 L985.9 718.8 L985.1 725.0 L984.6 731.2 L984.5 737.5 L984.4 743.8 L984.4 750.0 L984.3 756.2 L984.2 762.5 L984.1 768.8 L984.0 775.0 L983.8 781.2 L983.5 787.5 L983.3 793.8 L983.0 800.0 L982.7 806.2 L982.4 812.5 L982.1 818.8 L981.9 825.0 L981.6 831.2 L981.4 837.5 L981.3 843.8 L981.2 846.0 L981.2 850.0 L981.1 856.2 L981.1 862.5 L981.2 868.8 L981.2 870.2 L981.6 875.0 L982.8 881.2 L984.9 887.5 L987.5 892.4 L988.4 893.8 L993.7 899.0 L995.0 900.0 L1000.0 902.7 L1006.2 905.2 L1009.9 906.2 L1012.5 906.8 L1018.8 907.7 L1025.0 908.3 L1031.2 908.7 L1037.5 909.0 L1043.8 909.2 L1050.0 909.4 L1056.2 909.6 L1062.5 909.7 L1068.8 909.8 L1075.0 909.9 L1081.2 910.0 L1087.5 910.0 L1093.8 910.0 L1100.0 910.0 L1106.2 910.0 L1112.5 910.0 L1118.8 910.0 L1125.0 910.0 L1131.2 910.0 L1137.5 910.0 L1143.8 910.0 L1150.0 910.0 L1156.2 910.0 L1162.5 910.0 L1168.8 910.0 L1175.0 910.0 L1181.2 910.0 L1187.5 910.0 L1193.8 910.0 L1200.0 910.0 L1206.2 910.0 L1212.5 910.0 L1218.8 910.0 L1225.0 910.0 L1231.2 910.0 L1237.5 910.0 L1243.8 910.0 L1250.0 909.7 L1256.2 909.0 L1262.5 907.7 L1266.4 906.2 L1268.8 904.9 L1274.1 900.0 L1275.0 898.4 L1276.8 893.8 L1277.6 887.5 L1277.4 881.2 L1276.6 875.0 L1275.4 868.8 L1275.0 866.6 L1274.0 862.5 L1272.6 856.2 L1271.4 850.0 L1270.3 843.8 L1269.4 837.5 L1268.8 832.7 L1268.5 831.2 L1267.6 825.0 L1266.9 818.8 L1266.3 812.5 L1265.9 806.2 L1265.6 800.0 L1265.4 793.8 L1265.3 787.5 L1265.3 781.2 L1265.4 775.0 L1265.5 768.8 L1265.8 762.5 L1266.1 756.2 L1266.5 750.0 L1266.7 743.8 L1266.8 737.5 L1266.5 731.2 L1265.6 725.0 L1264.0 718.8 L1262.5 715.1 L1260.9 712.5 L1256.2 707.2 L1255.1 706.2 L1250.0 703.4 L1243.8 701.2 L1237.9 700.0 L1237.5 699.9 L1231.2 699.3 L1225.0 699.0 L1218.8 698.7 L1212.5 698.5 L1206.2 698.2 L1200.0 697.9 L1193.8 697.6 L1187.5 697.4 L1181.2 697.1 L1175.0 696.8 L1168.8 696.5 L1162.5 696.2 L1156.2 695.8 L1150.0 695.5 L1143.8 695.2 L1137.5 694.8 L1131.2 694.5 L1125.0 694.2 L1118.8 693.8 L1117.2 693.8 L1112.5 693.6 L1106.2 693.3 L1100.0 693.0 L1093.8 692.8 L1087.5 692.5 L1081.2 692.2 L1075.0 691.9 L1068.8 691.7 L1062.5 691.4 L1056.2 691.1 L1050.0 690.8 L1043.8 690.5 L1037.5 690.2 L1031.2 690.0 L1025.0 689.9 L1018.8 690.2 L1012.5 691.1 L1006.2 692.7 " fill="none" stroke="#8a6f4796" stroke-width="0.8" stroke-linecap="round"/>
<path d="M924.2 618.0 L922.7 619.5 L918.0 620.3 L910.2 620.3 L905.5 621.1 L903.9 622.7 L900.0 623.4 L893.8 623.4 L889.8 624.2 L888.3 625.8 L883.6 626.6 L875.8 626.6 L871.1 627.3 L869.5 628.9 L860.9 630.5 L845.3 632.0 L836.7 633.6 L835.2 635.2 L831.2 635.9 L825.0 635.9 L821.1 636.7 L819.5 638.3 L810.2 639.8 L793.0 641.4 L783.6 643.0 L782.0 644.5 L773.4 646.1 L757.8 647.7 L749.2 649.2 L747.7 650.8 L743.8 651.6 L737.5 651.6 L733.6 652.3 L732.0 653.9 L727.3 654.7 L719.5 654.7 L714.8 655.5 L713.3 657.0 L709.4 657.8 L703.1 657.8 L699.2 658.6 L697.7 660.2 L689.1 661.7 L673.4 663.3 L664.8 664.8 L663.3 666.4 L658.6 667.2 L650.8 667.2 L646.1 668.0 L644.5 669.5 L640.6 670.3 L634.4 670.3 L630.5 671.1 L628.9 672.7 L624.2 673.4 L616.4 673.4 L611.7 674.2 L610.2 675.8 L601.6 677.3 L585.9 678.9 L577.3 680.5 L575.8 682.0 L571.1 682.8 L563.3 682.8 L558.6 683.6 L557.0 685.2 L553.1 685.9 L546.9 685.9 L543.0 686.7 L541.4 688.3 L532.8 689.8 L517.2 691.4 L508.2 693.4 L505.9 695.7 L504.7 707.8 L504.7 729.7 L505.5 741.4 L507.0 743.0 L509.0 795.7 L511.3 899.6 L535.2 951.6 L580.5 951.6 L603.9 950.8 L605.5 949.2 L632.0 947.7 L683.6 946.1 L710.2 944.5 L711.7 943.0 L723.4 942.2 L745.3 942.2 L757.0 941.4 L758.6 939.8 L782.8 939.1 L829.7 939.1 L853.9 939.8 L855.5 941.4 L878.9 942.2 L924.2 942.2 L948.4 943.0 L951.6 944.5 L954.3 873.8 L956.6 730.9 L949.6 648.8 L933.2 627.7 Z" fill="none" stroke="#4a38225a" stroke-width="0.9" stroke-linecap="round" stroke-dasharray="5.0 4.0"/>
<path d="M736.7 49.2 L735.2 50.8 L727.3 51.6 L713.3 51.6 L705.5 52.3 L703.9 53.9 L689.8 55.5 L663.3 57.0 L649.2 58.6 L647.7 60.2 L632.8 60.9 L604.7 60.9 L589.8 60.2 L588.3 58.6 L573.4 57.8 L545.3 57.8 L530.5 57.0 L528.9 55.5 L513.3 54.7 L483.6 54.7 L469.1 66.0 L469.9 88.7 L475.4 106.6 L485.5 119.9 L494.5 126.6 L502.3 126.6 L507.0 127.3 L508.6 128.9 L536.7 129.7 L591.4 129.7 L619.5 130.5 L621.1 132.0 L669.5 133.6 L764.8 135.2 L819.1 114.5 L832.4 71.5 L813.7 49.6 L762.9 48.8 Z" fill="none" stroke="#4a38225a" stroke-width="0.9" stroke-linecap="round" stroke-dasharray="5.0 4.0"/>
<path d="M836.3 60.5 L827.7 84.8 L821.1 107.0 L816.4 127.3 L843.0 185.2 L900.8 280.5 L937.9 340.2 L954.3 364.5 L966.4 375.0 L974.2 371.9 L982.8 369.5 L992.2 368.0 L1000.0 365.6 L1006.2 362.5 L1011.7 360.9 L1016.4 360.9 L1021.9 359.4 L1028.1 356.3 L1033.6 354.7 L1038.3 354.7 L1046.1 352.3 L1057.0 347.7 L1064.8 345.3 L1069.5 345.3 L1077.3 343.0 L1088.3 338.3 L1096.1 335.9 L1100.8 335.9 L1106.2 334.4 L1112.5 331.2 L1118.0 329.7 L1122.7 329.7 L1130.5 327.3 L1141.4 322.7 L1149.2 320.3 L1153.9 320.3 L1161.7 318.0 L1172.7 313.3 L1180.5 310.9 L1185.2 310.9 L1193.0 308.6 L1203.9 303.9 L1211.7 301.6 L1216.4 301.6 L1221.9 300.0 L1228.1 296.9 L1233.6 295.3 L1238.3 295.3 L1246.1 293.0 L1257.0 288.3 L1264.8 285.9 L1269.5 285.9 L1277.3 283.6 L1288.3 278.9 L1296.1 276.6 L1300.8 276.6 L1306.2 275.0 L1312.5 271.9 L1318.0 270.3 L1322.7 270.3 L1327.0 269.1 L1330.9 266.8 L1329.7 250.8 L1323.4 221.1 L1320.3 192.2 L1320.3 164.1 L1321.1 149.2 L1322.7 147.7 L1323.4 139.8 L1323.4 125.8 L1324.2 118.0 L1325.8 116.4 L1326.6 108.6 L1326.6 94.5 L1327.3 86.7 L1328.9 85.2 L1329.3 75.4 L1328.5 57.4 L1322.7 48.4 L1311.7 48.4 L1305.5 49.2 L1303.9 50.8 L1292.2 51.6 L1270.3 51.6 L1258.6 52.3 L1257.0 53.9 L1210.9 54.7 L1120.3 54.7 L1074.2 53.9 L1072.7 52.3 L1058.6 51.6 L1032.0 51.6 L1018.0 50.8 L1016.4 49.2 L971.9 48.4 L884.4 48.4 Z" fill="none" stroke="#4a38225a" stroke-width="0.9" stroke-linecap="round" stroke-dasharray="5.0 4.0"/>
<path d="M492.6 128.5 L490.2 132.4 L489.1 142.2 L489.1 157.8 L488.3 166.4 L486.7 168.0 L485.9 176.6 L485.9 192.2 L485.2 200.8 L483.6 202.3 L482.8 210.2 L482.8 224.2 L482.0 232.0 L480.5 233.6 L479.7 242.2 L479.7 257.8 L478.9 266.4 L477.3 268.0 L476.6 276.6 L476.6 292.2 L475.8 300.8 L474.2 302.3 L473.4 310.9 L473.4 326.6 L472.7 335.2 L471.1 336.7 L470.3 345.3 L470.3 360.9 L469.5 369.5 L468.0 371.1 L467.2 378.9 L467.2 393.0 L466.4 400.8 L464.8 402.3 L464.1 410.9 L464.1 426.6 L463.3 435.2 L461.7 436.7 L460.9 445.3 L460.9 460.9 L460.2 469.5 L458.6 471.1 L457.8 479.7 L457.8 495.3 L457.0 503.9 L455.5 505.5 L454.7 514.1 L454.7 529.7 L453.9 538.3 L452.3 539.8 L451.6 548.4 L451.6 564.1 L450.8 572.7 L449.2 574.2 L446.9 593.8 L443.7 631.2 L458.2 661.3 L490.2 684.0 L507.0 694.5 L508.6 693.0 L512.5 692.2 L518.8 692.2 L522.7 691.4 L524.2 689.8 L528.9 689.1 L536.7 689.1 L541.4 688.3 L543.0 686.7 L546.9 685.9 L553.1 685.9 L557.0 685.2 L558.6 683.6 L567.2 682.0 L582.8 680.5 L591.4 678.9 L593.0 677.3 L602.3 675.8 L619.5 674.2 L628.9 672.7 L630.5 671.1 L634.4 670.3 L640.6 670.3 L644.5 669.5 L646.1 668.0 L650.8 667.2 L658.6 667.2 L663.3 666.4 L664.8 664.8 L668.8 664.1 L675.0 664.1 L678.9 663.3 L680.5 661.7 L685.2 660.9 L693.0 660.9 L697.7 660.2 L699.2 658.6 L703.1 657.8 L709.4 657.8 L713.3 657.0 L714.8 655.5 L723.4 653.9 L739.1 652.3 L747.7 650.8 L749.2 649.2 L753.9 648.4 L761.7 648.4 L766.4 647.7 L768.0 646.1 L771.9 645.3 L778.1 645.3 L782.0 644.5 L783.6 643.0 L793.0 641.4 L810.2 639.8 L819.5 638.3 L821.1 636.7 L825.0 635.9 L831.2 635.9 L835.2 635.2 L836.7 633.6 L841.4 632.8 L849.2 632.8 L853.9 632.0 L855.5 630.5 L859.4 629.7 L865.6 629.7 L869.5 628.9 L871.1 627.3 L879.7 625.8 L895.3 624.2 L903.9 622.7 L905.5 621.1 L910.2 620.3 L918.0 620.3 L923.0 619.1 L925.4 616.8 L926.6 611.7 L926.6 603.9 L927.3 599.2 L928.9 597.7 L929.7 592.2 L929.7 582.8 L931.2 572.7 L934.4 561.7 L935.9 551.6 L935.9 542.2 L936.7 536.7 L938.3 535.2 L939.1 529.7 L939.1 520.3 L939.8 514.8 L941.4 513.3 L942.2 507.8 L942.2 498.4 L943.8 488.3 L946.9 477.3 L951.6 447.7 L957.8 399.2 L928.1 322.7 L862.5 218.0 L826.6 159.4 L820.3 146.9 L816.0 139.5 L813.7 137.1 L764.8 135.2 L669.5 133.6 L621.1 132.0 L619.5 130.5 L591.4 129.7 L536.7 129.7 L508.6 128.9 L507.0 127.3 L503.1 126.6 L496.9 126.6 Z" fill="none" stroke="#4a38225a" stroke-width="0.9" stroke-linecap="round" stroke-dasharray="5.0 4.0"/>
<path d="M436.7 652.3 L435.2 653.9 L430.5 655.5 L422.7 657.0 L418.0 658.6 L416.4 660.2 L393.0 668.0 L347.7 682.0 L322.7 690.6 L318.0 693.8 L309.0 697.3 L295.7 701.2 L288.3 758.6 L286.7 869.5 L289.5 925.4 L296.5 926.2 L300.8 927.3 L302.3 928.9 L309.4 929.7 L321.9 929.7 L328.9 930.5 L330.5 932.0 L337.5 932.8 L350.0 932.8 L357.0 933.6 L358.6 935.2 L365.6 935.9 L378.1 935.9 L385.2 936.7 L386.7 938.3 L393.8 939.1 L406.2 939.1 L413.3 939.8 L414.8 941.4 L428.9 943.0 L455.5 944.5 L469.5 946.1 L471.1 947.7 L479.7 948.4 L495.3 948.4 L504.7 949.2 L507.8 950.8 L509.8 925.4 L510.5 873.0 L510.2 846.1 L508.6 844.5 L507.0 806.2 L505.5 731.3 L493.4 686.3 L470.7 671.5 L457.0 661.7 L452.3 657.0 L446.9 653.9 L440.6 652.3 Z" fill="none" stroke="#4a38225a" stroke-width="0.9" stroke-linecap="round" stroke-dasharray="5.0 4.0"/>
<path d="M959.0 696.5 L958.2 767.6 L957.0 803.9 L955.5 805.5 L955.1 841.0 L955.9 910.5 L972.7 945.3 L1005.5 945.3 L1022.7 946.1 L1024.2 947.7 L1093.8 948.4 L1231.2 948.4 L1300.8 949.2 L1302.3 950.8 L1310.2 951.6 L1324.2 951.6 L1331.6 948.0 L1332.4 941.0 L1326.6 915.6 L1314.1 871.9 L1307.0 839.1 L1305.5 817.2 L1303.9 805.5 L1302.3 803.9 L1302.3 784.4 L1303.9 746.9 L1307.4 715.2 L1312.9 689.5 L1307.0 676.6 L1289.8 676.6 L1280.5 675.8 L1278.9 674.2 L1262.5 673.4 L1231.2 673.4 L1214.8 672.7 L1213.3 671.1 L1196.9 670.3 L1165.6 670.3 L1149.2 669.5 L1147.7 668.0 L1131.2 667.2 L1100.0 667.2 L1083.6 666.4 L1082.0 664.8 L1065.6 664.1 L1034.4 664.1 L1018.0 663.3 L1016.4 661.7 L1001.6 660.9 L973.4 660.9 Z" fill="none" stroke="#4a38225a" stroke-width="0.9" stroke-linecap="round" stroke-dasharray="5.0 4.0"/>
<path d="M1321.9 269.5 L1309.4 274.2 L1298.4 277.3 L1289.1 278.9 L1281.2 281.2 L1275.0 284.4 L1269.5 285.9 L1264.8 285.9 L1257.0 288.3 L1246.1 293.0 L1238.3 295.3 L1233.6 295.3 L1228.1 296.9 L1221.9 300.0 L1216.4 301.6 L1211.7 301.6 L1203.9 303.9 L1193.0 308.6 L1185.2 310.9 L1180.5 310.9 L1172.7 313.3 L1161.7 318.0 L1153.9 320.3 L1149.2 320.3 L1141.4 322.7 L1130.5 327.3 L1122.7 329.7 L1118.0 329.7 L1112.5 331.2 L1106.2 334.4 L1100.8 335.9 L1096.1 335.9 L1088.3 338.3 L1077.3 343.0 L1069.5 345.3 L1064.8 345.3 L1057.0 347.7 L1046.1 352.3 L1038.3 354.7 L1033.6 354.7 L1028.1 356.3 L1021.9 359.4 L1016.4 360.9 L1011.7 360.9 L1006.2 362.5 L1000.0 365.6 L995.3 367.2 L992.2 367.2 L989.8 368.0 L988.3 369.5 L985.2 370.3 L980.5 370.3 L973.8 372.3 L965.2 376.2 L957.8 401.6 L951.6 448.4 L946.9 477.3 L943.8 488.3 L942.2 498.4 L942.2 507.8 L941.4 513.3 L939.8 514.8 L939.1 520.3 L939.1 529.7 L938.3 535.2 L936.7 536.7 L935.9 542.2 L935.9 551.6 L934.4 561.7 L931.2 572.7 L929.7 582.8 L929.7 592.2 L928.9 597.7 L927.3 599.2 L926.6 605.5 L926.6 616.4 L934.8 631.6 L951.2 651.2 L989.8 661.7 L1050.8 663.3 L1082.0 664.8 L1083.6 666.4 L1100.0 667.2 L1131.2 667.2 L1147.7 668.0 L1149.2 669.5 L1165.6 670.3 L1196.9 670.3 L1213.3 671.1 L1214.8 672.7 L1231.2 673.4 L1262.5 673.4 L1278.9 674.2 L1280.5 675.8 L1290.2 676.2 L1308.2 675.4 L1318.8 669.5 L1321.9 658.6 L1323.4 645.3 L1323.4 629.7 L1324.2 621.1 L1325.8 619.5 L1325.8 614.8 L1324.2 607.0 L1324.2 583.6 L1325.8 544.5 L1327.3 524.2 L1328.9 522.7 L1329.7 516.4 L1329.7 505.5 L1331.2 493.8 L1334.4 481.2 L1335.9 468.8 L1335.9 456.2 L1336.7 449.2 L1338.3 447.7 L1338.3 405.5 L1336.7 322.7 L1335.2 278.1 L1333.6 271.9 L1331.6 268.4 L1329.3 267.6 Z" fill="none" stroke="#4a38225a" stroke-width="0.9" stroke-linecap="round" stroke-dasharray="5.0 4.0"/>
<path d="M221.1 49.2 L219.5 50.8 L209.4 51.6 L190.6 51.6 L180.5 52.3 L178.9 53.9 L164.8 54.7 L138.3 54.7 L124.2 55.5 L122.7 57.0 L111.3 58.2 L90.2 59.0 L78.9 71.9 L77.3 96.9 L79.7 121.1 L85.9 144.5 L89.1 175.0 L89.1 212.5 L88.3 232.0 L86.7 233.6 L85.9 239.1 L85.9 248.4 L82.8 268.0 L76.6 297.7 L71.9 328.1 L68.8 359.4 L63.3 390.6 L55.5 421.9 L52.3 446.9 L53.9 465.6 L59.4 489.8 L68.8 519.5 L73.4 543.0 L73.4 560.2 L71.9 576.6 L68.8 592.2 L67.2 612.5 L67.2 637.5 L68.4 653.5 L70.7 660.5 L75.8 664.1 L83.6 664.1 L88.3 664.8 L89.8 666.4 L93.8 667.2 L100.0 667.2 L103.9 668.0 L105.5 669.5 L109.4 670.3 L115.6 670.3 L119.5 671.1 L121.1 672.7 L125.8 673.4 L133.6 673.4 L138.3 674.2 L139.8 675.8 L147.7 677.3 L161.7 678.9 L169.5 680.5 L171.1 682.0 L175.8 682.8 L183.6 682.8 L188.3 683.6 L189.8 685.2 L197.7 686.7 L211.7 688.3 L219.5 689.8 L221.1 691.4 L225.8 692.2 L233.6 692.2 L238.3 693.0 L239.8 694.5 L247.7 696.1 L261.7 697.7 L269.5 699.2 L271.1 700.8 L278.1 701.6 L290.6 701.6 L303.9 698.4 L318.0 692.2 L328.9 688.3 L336.7 686.7 L341.4 685.2 L343.0 683.6 L354.7 679.7 L376.6 673.4 L397.7 666.4 L418.0 658.6 L429.7 654.7 L432.8 654.7 L436.3 653.5 L440.2 651.2 L443.7 631.2 L446.9 593.8 L449.2 574.2 L450.8 572.7 L451.6 564.1 L451.6 548.4 L452.3 539.8 L453.9 538.3 L454.7 529.7 L454.7 514.1 L455.5 505.5 L457.0 503.9 L457.8 495.3 L457.8 479.7 L458.6 471.1 L460.2 469.5 L460.9 460.9 L460.9 445.3 L461.7 436.7 L463.3 435.2 L464.1 426.6 L464.1 410.9 L464.8 402.3 L466.4 400.8 L467.2 393.0 L467.2 378.9 L468.0 371.1 L469.5 369.5 L470.3 360.9 L470.3 345.3 L471.1 336.7 L472.7 335.2 L473.4 326.6 L473.4 310.9 L474.2 302.3 L475.8 300.8 L476.6 292.2 L476.6 276.6 L477.3 268.0 L478.9 266.4 L479.7 257.8 L479.7 242.2 L480.5 233.6 L482.0 232.0 L482.8 224.2 L482.8 210.2 L483.6 202.3 L485.2 200.8 L485.9 192.2 L485.9 176.6 L486.7 168.0 L488.3 166.4 L489.1 157.8 L489.1 142.2 L489.8 132.8 L491.4 129.7 L489.1 123.4 L482.8 114.1 L474.6 104.3 L464.5 94.1 L456.2 87.5 L450.0 84.4 L436.7 75.0 L416.4 59.4 L360.2 50.8 L268.0 49.2 Z" fill="none" stroke="#4a38225a" stroke-width="0.9" stroke-linecap="round" stroke-dasharray="5.0 4.0"/>
<path d="M72.3 669.9 L73.0 681.6 L75.8 696.1 L80.5 713.3 L82.8 746.9 L82.8 796.9 L82.0 822.7 L80.5 824.2 L78.9 835.9 L77.3 857.8 L75.0 873.4 L71.9 882.8 L68.8 903.1 L65.6 934.4 L66.0 950.4 L69.9 951.2 L72.7 950.8 L74.2 949.2 L89.1 947.7 L117.2 946.1 L132.0 944.5 L133.6 943.0 L139.1 942.2 L148.4 942.2 L153.9 941.4 L155.5 939.8 L160.2 939.1 L168.0 939.1 L172.7 938.3 L174.2 936.7 L178.1 935.9 L184.4 935.9 L188.3 935.2 L189.8 933.6 L194.5 932.8 L202.3 932.8 L207.0 932.0 L208.6 930.5 L214.8 929.7 L225.8 929.7 L232.0 928.9 L233.6 927.3 L246.9 926.6 L271.9 926.6 L285.5 870.7 L287.9 759.0 L280.9 702.0 L264.5 699.6 L255.5 697.7 L253.9 696.1 L250.0 695.3 L243.7 695.3 L239.8 694.5 L238.3 693.0 L233.6 692.2 L225.8 692.2 L221.1 691.4 L219.5 689.8 L215.6 689.1 L209.4 689.1 L205.5 688.3 L203.9 686.7 L200.0 685.9 L193.7 685.9 L189.8 685.2 L188.3 683.6 L183.6 682.8 L175.8 682.8 L171.1 682.0 L169.5 680.5 L161.7 678.9 L147.7 677.3 L139.8 675.8 L138.3 674.2 L133.6 673.4 L125.8 673.4 L121.1 672.7 L119.5 671.1 L115.6 670.3 L109.4 670.3 L105.5 669.5 L103.9 668.0 L100.0 667.2 L93.8 667.2 L89.8 666.4 L88.3 664.8 L83.6 664.1 L75.8 664.1 Z" fill="none" stroke="#4a38225a" stroke-width="0.9" stroke-linecap="round" stroke-dasharray="5.0 4.0"/>
<path d="M410.2 53.1 L411.7 56.3 L424.2 65.6 L447.7 81.2 L461.7 91.4 L466.4 96.1 L469.1 94.1 L469.9 85.5 L469.5 80.5 L468.0 78.9 L466.8 72.3 L466.0 60.5 L451.6 53.9 L423.4 52.3 Z" fill="none" stroke="#4a38225a" stroke-width="0.9" stroke-linecap="round" stroke-dasharray="5.0 4.0"/>
<path d="M221.1 49.2 L219.5 50.8 L209.4 51.6 L190.6 51.6 L180.5 52.3 L178.9 53.9 L153.9 55.5 L105.5 57.0 L80.1 61.3 L77.7 68.4 L76.6 81.2 L76.6 100.0 L79.7 121.1 L85.9 144.5 L89.1 175.0 L89.1 212.5 L88.3 232.0 L86.7 233.6 L85.9 239.1 L85.9 248.4 L82.8 268.0 L76.6 297.7 L71.9 328.1 L68.8 359.4 L63.3 390.6 L55.5 421.9 L52.3 446.9 L53.9 465.6 L59.4 489.8 L68.8 519.5 L73.4 543.0 L73.4 560.2 L71.9 576.6 L68.8 592.2 L67.2 612.5 L67.2 637.5 L71.1 668.0 L78.9 703.9 L82.8 746.9 L82.8 796.9 L82.0 822.7 L80.5 824.2 L79.7 831.2 L79.7 843.8 L76.6 864.8 L70.3 894.5 L66.8 919.9 L66.0 941.0 L67.2 951.6 L70.3 951.6 L72.7 950.8 L74.2 949.2 L82.8 948.4 L98.4 948.4 L107.0 947.7 L108.6 946.1 L120.3 944.5 L142.2 943.0 L153.9 941.4 L155.5 939.8 L160.2 939.1 L168.0 939.1 L172.7 938.3 L174.2 936.7 L178.1 935.9 L184.4 935.9 L188.3 935.2 L189.8 933.6 L194.5 932.8 L202.3 932.8 L207.0 932.0 L208.6 930.5 L214.8 929.7 L225.8 929.7 L232.0 928.9 L233.6 927.3 L250.8 926.6 L283.6 926.6 L300.8 927.3 L302.3 928.9 L309.4 929.7 L321.9 929.7 L328.9 930.5 L330.5 932.0 L337.5 932.8 L350.0 932.8 L357.0 933.6 L358.6 935.2 L365.6 935.9 L378.1 935.9 L385.2 936.7 L386.7 938.3 L393.8 939.1 L406.2 939.1 L413.3 939.8 L414.8 941.4 L428.9 943.0 L455.5 944.5 L469.5 946.1 L471.1 947.7 L479.7 948.4 L495.3 948.4 L503.9 949.2 L505.5 950.8 L530.5 951.6 L578.9 951.6 L603.9 950.8 L605.5 949.2 L632.0 947.7 L683.6 946.1 L710.2 944.5 L711.7 943.0 L723.4 942.2 L745.3 942.2 L757.0 941.4 L758.6 939.8 L806.2 939.8 L900.0 941.4 L947.7 943.0 L949.2 944.5 L968.0 945.3 L1003.9 945.3 L1022.7 946.1 L1024.2 947.7 L1093.8 948.4 L1231.2 948.4 L1300.8 949.2 L1302.3 950.8 L1310.2 951.6 L1324.2 951.6 L1331.6 948.0 L1332.4 941.0 L1326.6 915.6 L1314.1 871.9 L1307.0 839.1 L1305.5 817.2 L1303.9 805.5 L1302.3 803.9 L1303.1 778.9 L1306.2 730.5 L1311.7 693.0 L1319.5 666.4 L1323.4 645.3 L1323.4 629.7 L1324.2 621.1 L1325.8 619.5 L1325.8 603.9 L1324.2 574.2 L1324.2 558.6 L1325.8 557.0 L1328.1 536.7 L1331.2 497.7 L1333.6 477.3 L1335.2 475.8 L1335.9 468.8 L1335.9 456.2 L1336.7 449.2 L1338.3 447.7 L1338.3 405.5 L1336.7 322.7 L1332.0 262.5 L1324.2 225.0 L1320.3 192.2 L1320.3 164.1 L1321.1 149.2 L1322.7 147.7 L1323.4 139.8 L1323.4 125.8 L1324.2 118.0 L1325.8 116.4 L1326.6 108.6 L1326.6 94.5 L1327.3 86.7 L1328.9 85.2 L1329.3 75.4 L1328.5 57.4 L1322.7 48.4 L1311.7 48.4 L1305.5 49.2 L1303.9 50.8 L1292.2 51.6 L1270.3 51.6 L1258.6 52.3 L1257.0 53.9 L1210.9 54.7 L1120.3 54.7 L1074.2 53.9 L1072.7 52.3 L1058.6 51.6 L1032.0 51.6 L1018.0 50.8 L1016.4 49.2 L946.1 48.4 L807.0 48.4 L736.7 49.2 L735.2 50.8 L727.3 51.6 L713.3 51.6 L705.5 52.3 L703.9 53.9 L689.8 55.5 L663.3 57.0 L649.2 58.6 L647.7 60.2 L632.8 60.9 L604.7 60.9 L589.8 60.2 L588.3 58.6 L573.4 57.8 L545.3 57.8 L530.5 57.0 L528.9 55.5 L506.2 54.7 L462.5 54.7 L439.8 53.9 L438.3 52.3 L383.6 50.8 L275.8 49.2 Z" fill="none" stroke="#4a3822" stroke-width="2.2" stroke-linecap="round"/>
<path d="M221.1 49.2 L219.5 50.8 L209.4 51.6 L190.6 51.6 L180.5 52.3 L178.9 53.9 L153.9 55.5 L105.5 57.0 L80.1 61.3 L77.7 68.4 L76.6 81.2 L76.6 100.0 L79.7 121.1 L85.9 144.5 L89.1 175.0 L89.1 212.5 L88.3 232.0 L86.7 233.6 L85.9 239.1 L85.9 248.4 L82.8 268.0 L76.6 297.7 L71.9 328.1 L68.8 359.4 L63.3 390.6 L55.5 421.9 L52.3 446.9 L53.9 465.6 L59.4 489.8 L68.8 519.5 L73.4 543.0 L73.4 560.2 L71.9 576.6 L68.8 592.2 L67.2 612.5 L67.2 637.5 L71.1 668.0 L78.9 703.9 L82.8 746.9 L82.8 796.9 L82.0 822.7 L80.5 824.2 L79.7 831.2 L79.7 843.8 L76.6 864.8 L70.3 894.5 L66.8 919.9 L66.0 941.0 L67.2 951.6 L70.3 951.6 L72.7 950.8 L74.2 949.2 L82.8 948.4 L98.4 948.4 L107.0 947.7 L108.6 946.1 L120.3 944.5 L142.2 943.0 L153.9 941.4 L155.5 939.8 L160.2 939.1 L168.0 939.1 L172.7 938.3 L174.2 936.7 L178.1 935.9 L184.4 935.9 L188.3 935.2 L189.8 933.6 L194.5 932.8 L202.3 932.8 L207.0 932.0 L208.6 930.5 L214.8 929.7 L225.8 929.7 L232.0 928.9 L233.6 927.3 L250.8 926.6 L283.6 926.6 L300.8 927.3 L302.3 928.9 L309.4 929.7 L321.9 929.7 L328.9 930.5 L330.5 932.0 L337.5 932.8 L350.0 932.8 L357.0 933.6 L358.6 935.2 L365.6 935.9 L378.1 935.9 L385.2 936.7 L386.7 938.3 L393.8 939.1 L406.2 939.1 L413.3 939.8 L414.8 941.4 L428.9 943.0 L455.5 944.5 L469.5 946.1 L471.1 947.7 L479.7 948.4 L495.3 948.4 L503.9 949.2 L505.5 950.8 L530.5 951.6 L578.9 951.6 L603.9 950.8 L605.5 949.2 L632.0 947.7 L683.6 946.1 L710.2 944.5 L711.7 943.0 L723.4 942.2 L745.3 942.2 L757.0 941.4 L758.6 939.8 L806.2 939.8 L900.0 941.4 L947.7 943.0 L949.2 944.5 L968.0 945.3 L1003.9 945.3 L1022.7 946.1 L1024.2 947.7 L1093.8 948.4 L1231.2 948.4 L1300.8 949.2 L1302.3 950.8 L1310.2 951.6 L1324.2 951.6 L1331.6 948.0 L1332.4 941.0 L1326.6 915.6 L1314.1 871.9 L1307.0 839.1 L1305.5 817.2 L1303.9 805.5 L1302.3 803.9 L1303.1 778.9 L1306.2 730.5 L1311.7 693.0 L1319.5 666.4 L1323.4 645.3 L1323.4 629.7 L1324.2 621.1 L1325.8 619.5 L1325.8 603.9 L1324.2 574.2 L1324.2 558.6 L1325.8 557.0 L1328.1 536.7 L1331.2 497.7 L1333.6 477.3 L1335.2 475.8 L1335.9 468.8 L1335.9 456.2 L1336.7 449.2 L1338.3 447.7 L1338.3 405.5 L1336.7 322.7 L1332.0 262.5 L1324.2 225.0 L1320.3 192.2 L1320.3 164.1 L1321.1 149.2 L1322.7 147.7 L1323.4 139.8 L1323.4 125.8 L1324.2 118.0 L1325.8 116.4 L1326.6 108.6 L1326.6 94.5 L1327.3 86.7 L1328.9 85.2 L1329.3 75.4 L1328.5 57.4 L1322.7 48.4 L1311.7 48.4 L1305.5 49.2 L1303.9 50.8 L1292.2 51.6 L1270.3 51.6 L1258.6 52.3 L1257.0 53.9 L1210.9 54.7 L1120.3 54.7 L1074.2 53.9 L1072.7 52.3 L1058.6 51.6 L1032.0 51.6 L1018.0 50.8 L1016.4 49.2 L946.1 48.4 L807.0 48.4 L736.7 49.2 L735.2 50.8 L727.3 51.6 L713.3 51.6 L705.5 52.3 L703.9 53.9 L689.8 55.5 L663.3 57.0 L649.2 58.6 L647.7 60.2 L632.8 60.9 L604.7 60.9 L589.8 60.2 L588.3 58.6 L573.4 57.8 L545.3 57.8 L530.5 57.0 L528.9 55.5 L506.2 54.7 L462.5 54.7 L439.8 53.9 L438.3 52.3 L383.6 50.8 L275.8 49.2 Z" fill="none" stroke="#4a382246" stroke-width="5.5" stroke-linecap="round"/>
<path d="M741.5 799.9 Q1065.5 536.4 1079.9 185.8" fill="none" stroke="#7a5a38aa" stroke-width="2.2"/>
<path d="M741.5 799.9 Q615.1 522.7 270.4 366.7" fill="none" stroke="#7a5a38aa" stroke-width="2.0"/>
<path d="M659.1 93.9 Q396.0 180.3 270.4 366.7" fill="none" stroke="#7a5a38aa" stroke-width="1.4"/>
<path d="M659.1 93.9 Q716.0 513.7 1134.5 811.3" fill="none" stroke="#7a5a38aa" stroke-width="1.3"/>
<path d="M1079.9 185.8 Q629.6 172.2 270.4 366.7" fill="none" stroke="#7a5a38aa" stroke-width="2.6"/>
<path d="M1079.9 185.8 Q949.6 505.6 1134.5 811.3" fill="none" stroke="#7a5a38aa" stroke-width="2.6"/>
<path d="M688.1 412.1 Q810.7 669.1 1134.5 811.3" fill="none" stroke="#7a5a38aa" stroke-width="2.6"/>
<path d="M688.1 412.1 Q941.0 349.3 1079.9 185.8" fill="none" stroke="#7a5a38aa" stroke-width="2.6"/>
<path d="M402.9 809.6 Q645.7 647.5 688.1 412.1" fill="none" stroke="#7a5a38aa" stroke-width="2.1"/>
<path d="M402.9 809.6 Q768.2 904.5 1134.5 811.3" fill="none" stroke="#7a5a38aa" stroke-width="1.9"/>
<path d="M1134.5 811.3 Q1011.9 554.3 688.1 412.1" fill="none" stroke="#7a5a38aa" stroke-width="2.6"/>
<path d="M1134.5 811.3 Q1264.8 491.6 1079.9 185.8" fill="none" stroke="#7a5a38aa" stroke-width="2.1"/>
<path d="M1151.2 495.7 Q1063.3 651.3 1134.5 811.3" fill="none" stroke="#7a5a38aa" stroke-width="2.3"/>
<path d="M1151.2 495.7 Q940.7 394.4 688.1 412.1" fill="none" stroke="#7a5a38aa" stroke-width="2.2"/>
<path d="M270.4 366.7 Q467.8 443.1 688.1 412.1" fill="none" stroke="#7a5a38aa" stroke-width="2.6"/>
<path d="M270.4 366.7 Q590.4 700.1 1134.5 811.3" fill="none" stroke="#7a5a38aa" stroke-width="2.6"/>
<path d="M178.7 812.4 Q336.9 601.3 270.4 366.7" fill="none" stroke="#7a5a38aa" stroke-width="2.6"/>
<path d="M178.7 812.4 Q534.3 677.7 688.1 412.1" fill="none" stroke="#7a5a38aa" stroke-width="2.4"/>
<path d="M448.6 69.8 Q735.0 209.0 1079.9 185.8" fill="none" stroke="#7a5a38aa" stroke-width="1.8"/>
<path d="M448.6 69.8 Q482.1 271.7 688.1 412.1" fill="none" stroke="#7a5a38aa" stroke-width="1.6"/>
<text x="260.9" y="420.3" font-family="'DejaVu Serif',Georgia,serif" font-size="16.5" fill="#4a3822" text-anchor="middle" font-weight="bold" stroke="#e9dec4c8" stroke-width="2.5" paint-order="stroke" stroke-linejoin="round">crates/ctx2img-render</text>
<text x="260.9" y="398.9" font-family="'DejaVu Sans',Verdana,sans-serif" font-size="14.8" fill="#8a6f47" text-anchor="middle">▲</text>
<text x="1095.3" y="807.8" font-family="'DejaVu Serif',Georgia,serif" font-size="16.5" fill="#4a3822" text-anchor="middle" font-weight="bold" stroke="#e9dec4c8" stroke-width="2.5" paint-order="stroke" stroke-linejoin="round">crates/ctx2img-index</text>
<text x="1095.3" y="786.4" font-family="'DejaVu Sans',Verdana,sans-serif" font-size="14.8" fill="#8a6f47" text-anchor="middle">▲</text>
<text x="714.1" y="379.7" font-family="'DejaVu Serif',Georgia,serif" font-size="16.5" fill="#4a3822" text-anchor="middle" font-weight="bold" stroke="#e9dec4c8" stroke-width="2.5" paint-order="stroke" stroke-linejoin="round">crates/ctx2img-core</text>
<text x="1010.9" y="204.7" font-family="'DejaVu Serif',Georgia,serif" font-size="16.5" fill="#4a3822" text-anchor="middle" font-weight="bold" stroke="#e9dec4c8" stroke-width="2.5" paint-order="stroke" stroke-linejoin="round">crates/ctx2img-cli</text>
<text x="1160.9" y="492.2" font-family="'DejaVu Serif',Georgia,serif" font-size="16.5" fill="#4a3822" text-anchor="middle" font-weight="bold" stroke="#e9dec4c8" stroke-width="2.5" paint-order="stroke" stroke-linejoin="round">crates/ctx2img-layout</text>
<text x="804.7" y="789.1" font-family="'DejaVu Serif',Georgia,serif" font-size="16.5" fill="#4a3822" text-anchor="middle" font-weight="bold" stroke="#e9dec4c8" stroke-width="2.5" paint-order="stroke" stroke-linejoin="round">/</text>
<text x="185.9" y="785.9" font-family="'DejaVu Serif',Georgia,serif" font-size="16.5" fill="#4a3822" text-anchor="middle" font-weight="bold" stroke="#e9dec4c8" stroke-width="2.5" paint-order="stroke" stroke-linejoin="round">docs</text>
<text x="398.4" y="779.7" font-family="'DejaVu Serif',Georgia,serif" font-size="16.5" fill="#4a3822" text-anchor="middle" font-weight="bold" stroke="#e9dec4c8" stroke-width="2.5" paint-order="stroke" stroke-linejoin="round">crates/ctx2img-eval</text>
<text x="739.1" y="92.2" font-family="'DejaVu Serif',Georgia,serif" font-size="16.5" fill="#4a3822" text-anchor="middle" font-weight="bold" stroke="#e9dec4c8" stroke-width="2.5" paint-order="stroke" stroke-linejoin="round">assets</text>
<text x="448.4" y="70.3" font-family="'DejaVu Serif',Georgia,serif" font-size="16.5" fill="#4a3822" text-anchor="middle" font-weight="bold" stroke="#e9dec4c8" stroke-width="2.5" paint-order="stroke" stroke-linejoin="round">skills</text>
<circle cx="804.7" cy="831.0" r="3.1" fill="#4a3822"/>
<circle cx="731.2" cy="757.6" r="2.3" fill="#4a3822"/>
<circle cx="878.1" cy="776.5" r="2.0" fill="#4a3822"/>
<circle cx="739.1" cy="103.8" r="3.1" fill="#4a3822"/>
<circle cx="1010.9" cy="248.4" r="3.1" fill="#4a3822"/>
<text x="1010.9" y="262.0" font-family="'DejaVu Serif',Georgia,serif" font-size="11.0" fill="#4a3822" text-anchor="middle" stroke="#e9dec4be" stroke-width="2.5" paint-order="stroke" stroke-linejoin="round">providers.rs</text>
<circle cx="934.4" cy="171.9" r="2.3" fill="#4a3822"/>
<text x="934.4" y="184.6" font-family="'DejaVu Serif',Georgia,serif" font-size="11.0" fill="#4a3822" text-anchor="middle" stroke="#e9dec4be" stroke-width="2.5" paint-order="stroke" stroke-linejoin="round">ops.rs</text>
<circle cx="1087.5" cy="191.6" r="2.0" fill="#4a3822"/>
<circle cx="714.1" cy="449.3" r="3.1" fill="#4a3822"/>
<text x="714.1" y="462.9" font-family="'DejaVu Serif',Georgia,serif" font-size="11.0" fill="#4a3822" text-anchor="middle" stroke="#e9dec4be" stroke-width="2.5" paint-order="stroke" stroke-linejoin="round">types.rs</text>
<circle cx="592.2" cy="327.5" r="2.3" fill="#4a3822"/>
<text x="592.2" y="340.2" font-family="'DejaVu Serif',Georgia,serif" font-size="11.0" fill="#4a3822" text-anchor="middle" stroke="#e9dec4be" stroke-width="2.5" paint-order="stroke" stroke-linejoin="round">history.rs</text>
<circle cx="835.9" cy="358.8" r="2.0" fill="#4a3822"/>
<circle cx="398.4" cy="810.9" r="3.1" fill="#4a3822"/>
<circle cx="343.7" cy="756.2" r="2.3" fill="#4a3822"/>
<circle cx="453.1" cy="770.3" r="2.0" fill="#4a3822"/>
<circle cx="1095.3" cy="847.1" r="3.1" fill="#4a3822"/>
<text x="1095.3" y="860.6" font-family="'DejaVu Serif',Georgia,serif" font-size="11.0" fill="#4a3822" text-anchor="middle" stroke="#e9dec4be" stroke-width="2.5" paint-order="stroke" stroke-linejoin="round">handles.rs</text>
<circle cx="1026.6" cy="778.3" r="2.3" fill="#4a3822"/>
<text x="1026.6" y="791.1" font-family="'DejaVu Serif',Georgia,serif" font-size="11.0" fill="#4a3822" text-anchor="middle" stroke="#e9dec4be" stroke-width="2.5" paint-order="stroke" stroke-linejoin="round">cache.rs</text>
<circle cx="1164.1" cy="796.0" r="2.0" fill="#4a3822"/>
<circle cx="1160.9" cy="541.3" r="3.1" fill="#4a3822"/>
<text x="1160.9" y="554.8" font-family="'DejaVu Serif',Georgia,serif" font-size="11.0" fill="#4a3822" text-anchor="middle" stroke="#e9dec4be" stroke-width="2.5" paint-order="stroke" stroke-linejoin="round">lib.rs</text>
<circle cx="1075.0" cy="455.4" r="2.3" fill="#4a3822"/>
<text x="1075.0" y="468.1" font-family="'DejaVu Serif',Georgia,serif" font-size="11.0" fill="#4a3822" text-anchor="middle" stroke="#e9dec4be" stroke-width="2.5" paint-order="stroke" stroke-linejoin="round">grid.rs</text>
<circle cx="1246.9" cy="477.5" r="2.0" fill="#4a3822"/>
<circle cx="260.9" cy="478.3" r="3.1" fill="#4a3822"/>
<text x="260.9" y="491.9" font-family="'DejaVu Serif',Georgia,serif" font-size="11.0" fill="#4a3822" text-anchor="middle" stroke="#e9dec4be" stroke-width="2.5" paint-order="stroke" stroke-linejoin="round">display.rs</text>
<circle cx="159.4" cy="376.8" r="2.3" fill="#4a3822"/>
<text x="159.4" y="389.5" font-family="'DejaVu Serif',Georgia,serif" font-size="11.0" fill="#4a3822" text-anchor="middle" stroke="#e9dec4be" stroke-width="2.5" paint-order="stroke" stroke-linejoin="round">text.rs</text>
<circle cx="362.5" cy="402.9" r="2.0" fill="#4a3822"/>
<circle cx="185.9" cy="814.5" r="3.1" fill="#4a3822"/>
<circle cx="448.4" cy="73.9" r="3.1" fill="#4a3822"/>
<circle cx="46.4" cy="896.6" r="14.1" fill="#c6b18c" stroke="#4a3822" stroke-width="1.2"/>
<text x="46.4" y="919.2" font-family="'DejaVu Serif',Georgia,serif" font-size="10.5" fill="#4a3822d2" text-anchor="middle">anyhow</text>
<circle cx="210.6" cy="968.9" r="20.1" fill="#c6b18c" stroke="#4a3822" stroke-width="1.2"/>
<circle cx="1356.2" cy="210.4" r="16.5" fill="#c6b18c" stroke="#4a3822" stroke-width="1.2"/>
<text x="1356.2" y="235.3" font-family="'DejaVu Serif',Georgia,serif" font-size="10.5" fill="#4a3822d2" text-anchor="middle">ctx2img_layout</text>
<circle cx="50.3" cy="201.9" r="19.5" fill="#c6b18c" stroke="#4a3822" stroke-width="1.2"/>
<text x="50.3" y="229.9" font-family="'DejaVu Serif',Georgia,serif" font-size="10.5" fill="#4a3822d2" text-anchor="middle">rayon</text>
<text x="700.0" y="52.0" font-family="'DejaVu Serif',Georgia,serif" font-size="26.0" fill="#4a3822" text-anchor="middle" font-weight="bold" stroke="#e9dec4dc" stroke-width="2.5" paint-order="stroke" stroke-linejoin="round">The Realm of h5i-context2map</text>
<text x="28.0" y="975.0" font-family="'DejaVu Serif',Georgia,serif" font-size="12.0" fill="#4a3822c8" text-anchor="start">10 regions · 10.6k lines charted</text>
<path d="M1309.0 43.0 L1318.9 75.0 L1299.1 75.0 Z" fill="#4a3822"/>
<path d="M1326.4 62.6 L1314.1 78.6 L1303.9 71.4 Z" fill="#8a6f47"/>
<path d="M1353.8 75.0 L1309.0 82.0 L1309.0 68.0 Z" fill="#4a3822"/>
<path d="M1326.4 87.4 L1303.9 78.6 L1314.1 71.4 Z" fill="#8a6f47"/>
<path d="M1309.0 107.0 L1299.1 75.0 L1318.9 75.0 Z" fill="#4a3822"/>
<path d="M1291.6 87.4 L1303.9 71.4 L1314.1 78.6 Z" fill="#8a6f47"/>
<path d="M1264.2 75.0 L1309.0 68.0 L1309.0 82.0 Z" fill="#4a3822"/>
<path d="M1291.6 62.6 L1314.1 71.4 L1303.9 78.6 Z" fill="#8a6f47"/>
<circle cx="1309.0" cy="75.0" r="2.2" fill="#e9dec4" stroke="#4a3822" stroke-width="1.0"/>
<text x="1309.0" y="28.6" font-family="'DejaVu Serif',Georgia,serif" font-size="14.0" fill="#4a3822" text-anchor="middle" font-weight="bold">N</text>
</svg>
