<svg xmlns="http://www.w3.org/2000/svg" width="1400" height="1000" viewBox="0 0 1400 1000">
<rect width="1400" height="1000" fill="#ddd2b2"/>
<path d="M221.1 49.2 L219.5 50.8 L209.4 51.6 L190.6 51.6 L180.5 52.3 L178.9 53.9 L153.9 55.5 L105.5 57.0 L80.1 61.3 L77.7 68.4 L76.6 81.2 L76.6 100.0 L79.7 121.1 L85.9 144.5 L89.1 175.0 L89.1 212.5 L88.3 232.0 L86.7 233.6 L85.9 239.1 L85.9 248.4 L82.8 268.0 L76.6 297.7 L71.9 328.1 L68.8 359.4 L63.3 390.6 L55.5 421.9 L52.3 446.9 L53.9 465.6 L59.4 489.8 L68.8 519.5 L73.4 543.0 L73.4 560.2 L71.9 576.6 L68.8 592.2 L67.2 612.5 L67.2 637.5 L71.1 668.0 L78.9 703.9 L82.8 746.9 L82.8 796.9 L82.0 822.7 L80.5 824.2 L79.7 831.2 L79.7 843.8 L76.6 864.8 L70.3 894.5 L66.8 919.9 L66.0 941.0 L67.2 951.6 L70.3 951.6 L72.7 950.8 L74.2 949.2 L82.8 948.4 L98.4 948.4 L107.0 947.7 L108.6 946.1 L120.3 944.5 L142.2 943.0 L153.9 941.4 L155.5 939.8 L160.2 939.1 L168.0 939.1 L172.7 938.3 L174.2 936.7 L178.1 935.9 L184.4 935.9 L188.3 935.2 L189.8 933.6 L194.5 932.8 L202.3 932.8 L207.0 932.0 L208.6 930.5 L214.8 929.7 L225.8 929.7 L232.0 928.9 L233.6 927.3 L250.8 926.6 L283.6 926.6 L300.8 927.3 L302.3 928.9 L309.4 929.7 L321.9 929.7 L328.9 930.5 L330.5 932.0 L337.5 932.8 L350.0 932.8 L357.0 933.6 L358.6 935.2 L365.6 935.9 L378.1 935.9 L385.2 936.7 L386.7 938.3 L393.8 939.1 L406.2 939.1 L413.3 939.8 L414.8 941.4 L428.9 943.0 L455.5 944.5 L469.5 946.1 L471.1 947.7 L479.7 948.4 L495.3 948.4 L503.9 949.2 L505.5 950.8 L530.5 951.6 L578.9 951.6 L603.9 950.8 L605.5 949.2 L632.0 947.7 L683.6 946.1 L710.2 944.5 L711.7 943.0 L723.4 942.2 L745.3 942.2 L757.0 941.4 L758.6 939.8 L806.2 939.8 L900.0 941.4 L947.7 943.0 L949.2 944.5 L968.0 945.3 L1003.9 945.3 L1022.7 946.1 L1024.2 947.7 L1093.8 948.4 L1231.2 948.4 L1300.8 949.2 L1302.3 950.8 L1310.2 951.6 L1324.2 951.6 L1331.6 948.0 L1332.4 941.0 L1326.6 915.6 L1314.1 871.9 L1307.0 839.1 L1305.5 817.2 L1303.9 805.5 L1302.3 803.9 L1303.1 778.9 L1306.2 730.5 L1311.7 693.0 L1319.5 666.4 L1323.4 645.3 L1323.4 629.7 L1324.2 621.1 L1325.8 619.5 L1325.8 603.9 L1324.2 574.2 L1324.2 558.6 L1325.8 557.0 L1328.1 536.7 L1331.2 497.7 L1333.6 477.3 L1335.2 475.8 L1335.9 468.8 L1335.9 456.2 L1336.7 449.2 L1338.3 447.7 L1338.3 405.5 L1336.7 322.7 L1332.0 262.5 L1324.2 225.0 L1320.3 192.2 L1320.3 164.1 L1321.1 149.2 L1322.7 147.7 L1323.4 139.8 L1323.4 125.8 L1324.2 118.0 L1325.8 116.4 L1326.6 108.6 L1326.6 94.5 L1327.3 86.7 L1328.9 85.2 L1329.3 75.4 L1328.5 57.4 L1322.7 48.4 L1311.7 48.4 L1305.5 49.2 L1303.9 50.8 L1292.2 51.6 L1270.3 51.6 L1258.6 52.3 L1257.0 53.9 L1210.9 54.7 L1120.3 54.7 L1074.2 53.9 L1072.7 52.3 L1058.6 51.6 L1032.0 51.6 L1018.0 50.8 L1016.4 49.2 L946.1 48.4 L807.0 48.4 L736.7 49.2 L735.2 50.8 L727.3 51.6 L713.3 51.6 L705.5 52.3 L703.9 53.9 L689.8 55.5 L663.3 57.0 L649.2 58.6 L647.7 60.2 L632.8 60.9 L604.7 60.9 L589.8 60.2 L588.3 58.6 L573.4 57.8 L545.3 57.8 L530.5 57.0 L528.9 55.5 L506.2 54.7 L462.5 54.7 L439.8 53.9 L438.3 52.3 L383.6 50.8 L275.8 49.2 Z" fill="#e2d7be"/>
<path d="M842.6 592.6 L690.2 680.9 L622.7 752.3 L639.8 807.0 L650.0 842.2 L653.1 857.8 L657.0 871.1 L661.7 882.0 L665.6 895.3 L668.8 910.9 L673.0 925.4 L678.5 938.7 L688.3 945.3 L702.3 945.3 L710.2 944.5 L711.7 943.0 L723.4 942.2 L745.3 942.2 L757.0 941.4 L758.6 939.8 L782.8 939.1 L829.7 939.1 L853.9 939.8 L855.5 941.4 L878.9 942.2 L924.2 942.2 L947.7 943.0 L949.2 944.5 L954.7 945.3 L964.1 945.3 L969.9 944.1 L972.3 941.8 L975.0 929.7 L978.1 907.8 L981.2 893.0 L984.4 885.2 L986.7 874.2 L988.3 860.2 L990.6 849.2 L993.8 841.4 L996.1 830.5 L997.7 816.4 L1000.0 805.5 L1003.1 797.7 L1006.2 782.8 L1009.4 760.9 L1012.5 746.1 L1015.6 738.3 L1018.0 727.3 L1019.5 713.3 L1021.9 702.3 L1025.0 694.5 L1032.0 663.3 L1043.0 608.6 L1044.9 578.5 L1037.9 573.0 L1028.1 569.5 L1015.6 568.0 L1005.5 565.6 L997.7 562.5 L990.6 560.9 L984.4 560.9 L980.5 560.2 L978.9 558.6 L975.0 557.8 L968.8 557.8 L964.8 557.0 L963.3 555.5 L959.4 554.7 L953.1 554.7 L946.1 553.1 L938.3 550.0 L930.5 548.4 L922.7 548.4 Z" fill="#c5bd9f"/>
<path d="M403.5 527.0 L366.8 627.7 L346.9 680.5 L343.8 685.2 L341.4 691.4 L339.8 699.2 L337.5 705.5 L334.4 710.2 L332.0 716.4 L330.5 724.2 L328.1 730.5 L325.0 735.2 L323.8 739.5 L324.6 743.4 L378.5 735.5 L485.5 716.0 L510.9 649.2 L454.7 535.2 L425.4 477.7 L423.0 477.0 Z" fill="#bca885"/>
<path d="M736.7 49.2 L735.2 50.8 L730.9 52.0 L723.8 52.7 L721.1 56.3 L722.7 62.5 L725.8 69.5 L730.5 77.3 L739.1 98.4 L751.6 132.8 L760.2 153.9 L764.8 161.7 L805.5 260.9 L882.0 451.6 L927.0 548.0 L940.2 550.4 L947.7 552.3 L949.2 553.9 L953.1 554.7 L959.4 554.7 L963.3 555.5 L964.8 557.0 L968.8 557.8 L975.0 557.8 L978.9 558.6 L980.5 560.2 L984.4 560.9 L990.6 560.9 L997.7 562.5 L1005.5 565.6 L1015.6 568.0 L1028.1 569.5 L1035.5 567.6 L1037.9 562.1 L1039.8 550.0 L1041.4 531.2 L1046.1 502.3 L1053.9 463.3 L1057.8 439.1 L1057.8 429.7 L1062.5 400.8 L1071.9 352.3 L1076.6 323.4 L1076.6 314.1 L1080.5 289.8 L1088.3 250.8 L1092.2 226.6 L1092.2 217.2 L1096.9 188.3 L1106.2 139.8 L1112.5 101.6 L1115.6 73.4 L1118.0 58.6 L1119.5 57.0 L1109.0 55.9 L1086.3 55.1 L1074.2 53.9 L1072.7 52.3 L1058.6 51.6 L1032.0 51.6 L1018.0 50.8 L1016.4 49.2 L946.1 48.4 L807.0 48.4 Z" fill="#f4aa79"/>
<path d="M705.5 52.3 L703.9 53.9 L697.7 54.7 L686.7 54.7 L680.5 55.5 L678.9 57.0 L665.6 58.6 L640.6 60.2 L627.3 61.7 L625.8 63.3 L611.7 68.0 L585.2 75.8 L561.7 83.6 L541.4 91.4 L528.9 95.3 L524.2 95.3 L521.1 96.1 L519.5 97.7 L507.8 101.6 L485.9 107.8 L462.5 115.6 L437.5 125.0 L423.4 129.7 L420.3 129.7 L416.8 130.9 L412.9 133.2 L414.1 219.5 L420.3 389.8 L451.6 532.0 L507.8 646.1 L537.1 704.3 L539.5 706.6 L549.2 709.4 L566.4 712.5 L575.8 714.8 L577.3 716.4 L581.2 717.2 L587.5 717.2 L594.5 718.8 L602.3 721.9 L609.4 723.4 L615.6 723.4 L620.3 721.9 L623.4 718.8 L628.9 715.6 L636.7 712.5 L646.1 707.0 L657.0 699.2 L677.3 687.5 L707.0 671.9 L727.3 660.2 L738.3 652.3 L753.1 643.8 L771.9 634.4 L786.7 625.8 L797.7 618.0 L818.0 606.2 L847.7 590.6 L877.0 573.8 L905.9 555.9 L871.1 425.0 L772.7 181.2 L722.3 57.4 L719.9 53.5 L715.6 51.6 L709.4 51.6 Z" fill="#d29268"/>
<path d="M524.2 708.6 L522.7 710.2 L514.1 711.7 L498.4 713.3 L489.8 714.8 L488.3 716.4 L484.4 717.2 L478.1 717.2 L474.2 718.0 L472.7 719.5 L468.0 720.3 L460.2 720.3 L455.5 721.1 L453.9 722.7 L449.2 723.4 L441.4 723.4 L436.7 724.2 L435.2 725.8 L426.6 727.3 L410.9 728.9 L402.3 730.5 L400.8 732.0 L396.9 732.8 L390.6 732.8 L386.7 733.6 L385.2 735.2 L380.5 735.9 L372.7 735.9 L368.0 736.7 L366.4 738.3 L357.8 739.8 L342.2 741.4 L333.6 743.0 L332.0 744.5 L328.9 745.3 L324.2 745.3 L320.7 746.5 L318.4 748.8 L316.4 776.6 L314.8 829.7 L313.3 857.0 L311.7 858.6 L311.3 877.0 L312.1 912.1 L323.4 930.5 L345.3 932.0 L357.0 933.6 L358.6 935.2 L365.6 935.9 L378.1 935.9 L385.2 936.7 L386.7 938.3 L393.8 939.1 L406.2 939.1 L413.3 939.8 L414.8 941.4 L421.9 942.2 L434.4 942.2 L441.4 943.0 L443.0 944.5 L450.0 945.3 L462.5 945.3 L469.5 946.1 L471.1 947.7 L479.7 948.4 L495.3 948.4 L503.9 949.2 L505.5 950.8 L530.5 951.6 L578.9 951.6 L603.9 950.8 L605.5 949.2 L617.2 948.4 L639.1 948.4 L650.8 947.7 L652.3 946.1 L659.8 944.9 L673.0 944.1 L671.9 918.8 L656.2 868.8 L648.4 841.4 L648.4 836.7 L646.1 828.9 L641.4 818.0 L635.9 799.2 L629.7 772.7 L624.2 753.9 L619.5 743.0 L617.2 735.2 L617.2 730.5 L613.7 726.2 L606.6 722.3 L596.9 719.5 L584.4 718.0 L577.3 716.4 L575.8 714.8 L572.7 714.1 L568.0 714.1 L561.7 712.5 L553.9 709.4 L543.8 707.8 L531.2 707.8 Z" fill="#bd835d"/>
<path d="M1048.0 587.9 L1044.1 598.0 L1040.6 614.1 L1037.5 635.9 L1034.4 650.8 L1031.3 658.6 L1028.9 669.5 L1027.3 683.6 L1025.0 694.5 L1021.9 702.3 L1019.5 713.3 L1018.0 727.3 L1015.6 738.3 L1012.5 746.1 L1009.4 760.9 L1006.2 782.8 L1003.1 797.7 L1000.0 805.5 L997.7 816.4 L996.1 830.5 L993.8 841.4 L990.6 849.2 L988.3 860.2 L986.7 874.2 L982.0 896.9 L974.2 928.1 L983.2 944.1 L1009.0 944.9 L1022.7 946.1 L1024.2 947.7 L1093.8 948.4 L1231.2 948.4 L1300.8 949.2 L1302.3 950.8 L1310.2 951.6 L1324.2 951.6 L1331.6 948.0 L1332.4 941.0 L1326.6 915.6 L1314.1 871.9 L1307.0 839.1 L1305.5 817.2 L1303.9 805.5 L1302.3 803.9 L1302.3 784.4 L1303.9 746.9 L1309.4 709.4 L1318.8 671.9 L1323.4 645.3 L1323.4 629.7 L1324.2 620.3 L1325.8 617.2 L1325.4 614.5 L1323.0 612.1 L1315.6 610.9 L1303.1 610.9 L1296.1 610.2 L1294.5 608.6 L1287.5 607.8 L1275.0 607.8 L1268.0 607.0 L1266.4 605.5 L1259.4 604.7 L1246.9 604.7 L1239.8 603.9 L1238.3 602.3 L1225.0 600.8 L1200.0 599.2 L1186.7 597.7 L1185.2 596.1 L1178.1 595.3 L1165.6 595.3 L1158.6 594.5 L1157.0 593.0 L1150.0 592.2 L1137.5 592.2 L1130.5 591.4 L1128.9 589.8 L1121.9 589.1 L1109.4 589.1 L1102.3 588.3 L1100.8 586.7 L1087.5 585.2 L1062.5 583.6 Z" fill="#e9a273"/>
<path d="M1305.5 49.2 L1303.9 50.8 L1292.2 51.6 L1270.3 51.6 L1258.6 52.3 L1257.0 53.9 L1222.7 54.7 L1155.5 54.7 L1120.7 55.9 L1118.4 58.2 L1115.6 73.4 L1112.5 101.6 L1106.2 139.8 L1096.9 188.3 L1092.2 217.2 L1092.2 226.6 L1088.3 250.8 L1080.5 289.8 L1076.6 314.1 L1076.6 323.4 L1075.0 333.6 L1071.9 344.5 L1061.7 405.5 L1044.5 516.4 L1039.5 574.6 L1046.5 580.1 L1062.5 583.6 L1087.5 585.2 L1100.8 586.7 L1102.3 588.3 L1109.4 589.1 L1121.9 589.1 L1128.9 589.8 L1130.5 591.4 L1137.5 592.2 L1150.0 592.2 L1157.0 593.0 L1158.6 594.5 L1165.6 595.3 L1178.1 595.3 L1185.2 596.1 L1186.7 597.7 L1200.0 599.2 L1225.0 600.8 L1238.3 602.3 L1239.8 603.9 L1246.9 604.7 L1259.4 604.7 L1266.4 605.5 L1268.0 607.0 L1275.0 607.8 L1287.5 607.8 L1294.5 608.6 L1296.1 610.2 L1303.1 610.9 L1315.6 610.9 L1322.7 611.7 L1324.2 613.3 L1324.6 600.4 L1323.8 573.0 L1324.2 558.6 L1325.8 557.0 L1328.1 536.7 L1331.2 497.7 L1333.6 477.3 L1335.2 475.8 L1335.9 468.8 L1335.9 456.2 L1336.7 449.2 L1338.3 447.7 L1338.3 405.5 L1336.7 322.7 L1332.0 262.5 L1324.2 225.0 L1320.3 192.2 L1320.3 164.1 L1321.1 149.2 L1322.7 147.7 L1323.4 139.8 L1323.4 125.8 L1324.2 118.0 L1325.8 116.4 L1326.6 108.6 L1326.6 94.5 L1327.3 86.7 L1328.9 85.2 L1329.7 75.8 L1329.7 58.6 L1323.8 49.6 L1312.1 48.8 Z" fill="#ca8c64"/>
<path d="M221.1 49.2 L219.5 50.8 L209.4 51.6 L190.6 51.6 L180.5 52.3 L178.9 53.9 L164.8 54.7 L138.3 54.7 L124.2 55.5 L122.7 57.0 L111.3 58.2 L90.2 59.0 L78.9 71.9 L77.3 96.9 L79.7 121.1 L85.9 144.5 L89.1 175.0 L89.1 212.5 L88.3 232.0 L86.7 233.6 L85.9 239.1 L85.9 248.4 L82.8 268.0 L76.6 297.7 L71.9 328.1 L68.8 359.4 L63.3 390.6 L55.5 421.9 L52.3 446.9 L53.9 465.6 L59.4 489.8 L68.8 519.5 L73.4 543.0 L73.4 560.2 L71.9 576.6 L68.8 592.2 L67.2 612.5 L67.2 637.5 L71.5 670.7 L80.1 712.1 L93.8 732.8 L112.5 732.8 L122.7 733.6 L124.2 735.2 L134.4 735.9 L153.1 735.9 L163.3 736.7 L164.8 738.3 L175.8 739.1 L196.1 739.1 L207.0 739.8 L208.6 741.4 L218.8 742.2 L237.5 742.2 L247.7 743.0 L249.2 744.5 L260.2 745.3 L280.5 745.3 L291.4 746.1 L293.0 747.7 L300.0 748.4 L312.5 748.4 L321.5 743.4 L327.0 733.2 L330.5 724.2 L332.0 716.4 L334.4 710.2 L337.5 705.5 L339.8 699.2 L341.4 691.4 L343.8 685.2 L346.9 680.5 L354.7 659.4 L367.2 621.9 L385.9 571.1 L410.9 507.0 L420.3 389.8 L414.1 219.5 L386.3 112.9 L337.1 69.9 L289.8 48.4 L244.5 48.4 Z" fill="#ffb782"/>
<path d="M84.0 755.1 L83.2 799.6 L82.0 822.7 L80.5 824.2 L79.7 831.2 L79.7 843.8 L76.6 864.8 L70.3 894.5 L66.8 919.9 L66.0 941.0 L67.2 951.6 L70.3 951.6 L72.7 950.8 L74.2 949.2 L82.8 948.4 L98.4 948.4 L107.0 947.7 L108.6 946.1 L120.3 944.5 L142.2 943.0 L153.9 941.4 L155.5 939.8 L160.2 939.1 L168.0 939.1 L172.7 938.3 L174.2 936.7 L178.1 935.9 L184.4 935.9 L188.3 935.2 L189.8 933.6 L194.5 932.8 L202.3 932.8 L207.0 932.0 L208.6 930.5 L214.8 929.7 L225.8 929.7 L232.0 928.9 L233.6 927.3 L250.8 926.6 L283.6 926.6 L300.8 927.3 L302.3 928.9 L304.7 929.7 L307.8 929.7 L310.9 884.4 L314.1 793.8 L310.2 748.4 L299.2 748.4 L293.0 747.7 L291.4 746.1 L280.5 745.3 L260.2 745.3 L249.2 744.5 L247.7 743.0 L237.5 742.2 L218.8 742.2 L208.6 741.4 L207.0 739.8 L196.1 739.1 L175.8 739.1 L164.8 738.3 L163.3 736.7 L153.1 735.9 L134.4 735.9 L124.2 735.2 L122.7 733.6 L112.5 732.8 L93.8 732.8 Z" fill="#d6caa4"/>
<path d="M318.0 51.6 L322.7 57.8 L346.1 78.9 L388.3 114.8 L410.9 132.8 L414.1 132.8 L430.5 127.3 L460.2 116.4 L478.9 110.2 L486.7 108.6 L498.4 104.7 L514.1 98.4 L524.2 95.3 L528.9 95.3 L532.0 94.5 L533.6 93.0 L535.9 92.2 L539.1 92.2 L541.4 91.4 L543.0 89.8 L545.3 89.1 L548.4 89.1 L550.8 88.3 L552.3 86.7 L554.7 85.9 L557.8 85.9 L560.2 85.2 L561.7 83.6 L564.1 82.8 L567.2 82.8 L569.5 82.0 L571.1 80.5 L573.4 79.7 L576.6 79.7 L578.9 78.9 L580.5 77.3 L592.6 73.0 L615.2 66.0 L617.6 62.1 L599.6 61.3 L589.8 60.2 L588.3 58.6 L573.4 57.8 L545.3 57.8 L530.5 57.0 L528.9 55.5 L477.3 53.9 L375.8 52.3 L324.2 50.8 L322.7 49.2 L320.3 48.4 L317.2 48.4 Z" fill="#d5c9a3"/>
<path d="M156.2 37.3 L152.5 37.5 L150.0 37.7 L143.8 38.1 L137.5 38.6 L131.2 39.2 L125.0 39.9 L118.7 40.9 L112.5 42.2 L107.0 43.8 L106.2 44.0 L100.0 46.2 L93.8 49.1 L92.2 50.0 L87.5 52.9 L83.2 56.2 L81.2 58.0 L77.0 62.5 L75.0 65.1 L72.5 68.8 L69.2 75.0 L68.8 76.0 L66.7 81.2 L65.1 87.5 L64.1 93.8 L63.6 100.0 L63.4 106.2 L63.6 112.5 L64.0 118.8 L64.7 125.0 L65.5 131.2 L66.4 137.5 L67.3 143.8 L68.2 150.0 L68.8 154.6 L69.0 156.2 L69.6 162.5 L70.2 168.8 L70.6 175.0 L71.0 181.2 L71.2 187.5 L71.2 193.8 L71.2 200.0 L71.0 206.2 L70.8 212.5 L70.4 218.8 L69.9 225.0 L69.4 231.2 L68.8 237.4 L68.7 237.5 L68.0 243.8 L67.1 250.0 L66.3 256.2 L65.3 262.5 L64.4 268.8 L63.5 275.0 L62.5 281.2 L61.5 287.5 L60.5 293.8 L59.5 300.0 L58.5 306.2 L57.6 312.5 L56.7 318.8 L56.2 321.8 L55.8 325.0 L54.8 331.2 L53.8 337.5 L52.9 343.8 L51.9 350.0 L50.9 356.2 L50.0 362.1 L49.9 362.5 L48.8 368.8 L47.6 375.0 L46.5 381.2 L45.3 387.5 L44.1 393.8 L43.8 395.9 L43.0 400.0 L41.8 406.2 L40.8 412.5 L39.9 418.8 L39.2 425.0 L38.6 431.2 L38.3 437.5 L38.2 443.8 L38.3 450.0 L38.6 456.2 L39.2 462.5 L40.0 468.8 L40.9 475.0 L42.1 481.2 L43.5 487.5 L43.8 488.7 L44.8 493.8 L46.2 500.0 L47.6 506.3 L49.0 512.5 L50.0 517.2 L50.3 518.8 L51.4 525.0 L52.3 531.2 L53.0 537.5 L53.5 543.8 L53.9 550.0 L54.0 556.2 L54.0 562.5 L53.8 568.8 L53.5 575.0 L53.2 581.2 L52.8 587.5 L52.4 593.8 L52.1 600.0 L51.8 606.2 L51.6 612.5 L51.5 618.8 L51.5 625.0 L51.7 631.2 L51.9 637.5 L52.3 643.8 L52.9 650.0 L53.5 656.2 L54.3 662.5 L55.2 668.8 L56.2 674.7 L56.3 675.0 L57.4 681.2 L58.7 687.5 L60.1 693.8 L61.7 700.0 L62.5 702.6 L63.6 706.2 L65.6 712.5 L67.9 718.8 L68.8 720.9 L70.4 725.0 L73.2 731.2 L75.0 735.1 L76.2 737.5 L79.4 743.8 L81.2 747.3 L82.8 750.0 L86.2 756.2 L87.5 758.8 L89.5 762.5 L92.5 768.8 L93.8 772.0 L95.0 775.0 L97.1 781.2 L98.5 787.5 L99.4 793.8 L99.8 800.0 L99.8 806.2 L99.6 812.5 L99.1 818.8 L98.6 825.0 L98.1 831.2 L97.4 837.5 L96.7 843.8 L95.9 850.0 L95.0 856.2 L94.1 862.5 L93.8 864.6 L93.2 868.8 L92.5 875.0 L91.9 881.2 L91.7 887.5 L92.1 893.8 L93.1 900.0 L93.8 902.2 L95.4 906.2 L99.5 912.5 L100.0 913.0 L106.2 917.4 L109.4 918.8 L112.5 919.8 L118.7 920.9 L125.0 921.3 L131.2 921.2 L137.5 920.8 L143.8 920.0 L150.0 919.2 L152.7 918.8 L156.2 918.2 L162.5 917.1 L168.8 916.1 L175.0 915.1 L181.2 914.1 L187.5 913.1 L191.8 912.5 L193.7 912.2 L200.0 911.2 L206.2 910.3 L212.5 909.5 L218.8 908.7 L225.0 908.1 L231.2 907.5 L237.5 907.0 L243.8 906.6 L250.0 906.3 L252.4 906.2 L256.2 906.1 L262.5 906.0 L268.8 906.0 L275.0 906.1 L280.6 906.2 L281.2 906.3 L287.5 906.5 L293.8 906.9 L300.0 907.3 L306.2 907.7 L312.5 908.3 L318.8 908.8 L325.0 909.5 L331.2 910.1 L337.5 910.8 L343.8 911.5 L350.0 912.2 L352.3 912.5 L356.3 912.9 L362.5 913.6 L368.8 914.3 L375.0 914.9 L381.2 915.6 L387.5 916.3 L393.8 917.0 L400.0 917.7 L406.2 918.5 L408.5 918.8 L412.5 919.2 L418.8 919.8 L425.0 920.5 L431.2 921.2 L437.5 921.8 L443.8 922.5 L450.0 923.2 L456.2 923.9 L462.5 924.6 L466.3 925.0 L468.8 925.2 L475.0 925.8 L481.2 926.4 L487.5 926.9 L493.8 927.4 L500.0 927.9 L506.2 928.3 L512.5 928.7 L518.8 929.0 L525.0 929.3 L531.2 929.6 L537.5 929.7 L543.8 929.8 L550.0 929.9 L556.2 929.9 L562.5 929.8 L568.8 929.7 L575.0 929.6 L581.2 929.4 L587.5 929.1 L593.8 928.9 L600.0 928.5 L606.2 928.2 L612.5 927.8 L618.8 927.5 L625.0 927.1 L631.2 926.7 L637.5 926.3 L643.8 925.9 L650.0 925.6 L656.2 925.2 L660.5 925.0 L662.5 924.9 L668.8 924.5 L675.0 924.1 L681.2 923.8 L687.5 923.4 L693.8 923.1 L700.0 922.7 L706.2 922.4 L712.5 922.0 L718.8 921.6 L725.0 921.2 L731.2 920.8 L737.5 920.4 L743.8 920.1 L750.0 919.7 L756.3 919.4 L762.5 919.1 L768.8 918.8 L769.7 918.8 L775.0 918.5 L781.2 918.3 L787.5 918.1 L793.8 918.0 L800.0 917.9 L806.2 917.9 L812.5 917.9 L818.7 918.0 L825.0 918.2 L831.2 918.4 L837.5 918.6 L840.6 918.8 L843.8 918.9 L850.0 919.1 L856.2 919.4 L862.5 919.6 L868.8 919.9 L875.0 920.1 L881.2 920.3 L887.5 920.5 L893.8 920.7 L900.0 920.9 L906.2 921.3 L912.5 922.0 L918.8 923.2 L925.0 925.0 L925.0 925.0 L931.3 927.2 L937.5 930.0 L939.7 931.2 L943.8 933.2 L950.0 936.8 L951.2 937.5 L956.2 940.3 L962.5 943.7 L962.6 943.8 L968.8 946.8 L975.0 949.5 L976.3 950.0 L981.2 951.9 L987.5 953.9 L993.7 955.6 L996.5 956.2 L1000.0 957.1 L1006.2 958.3 L1012.5 959.2 L1018.8 959.9 L1025.0 960.5 L1031.2 961.0 L1037.5 961.4 L1043.8 961.6 L1050.0 961.8 L1056.2 962.0 L1062.5 962.1 L1068.8 962.2 L1075.0 962.2 L1081.2 962.3 L1087.5 962.3 L1093.8 962.3 L1100.0 962.3 L1106.2 962.3 L1112.5 962.3 L1118.8 962.3 L1125.0 962.3 L1131.2 962.3 L1137.5 962.3 L1143.8 962.3 L1150.0 962.3 L1156.2 962.3 L1162.5 962.3 L1168.8 962.3 L1175.0 962.3 L1181.2 962.3 L1187.5 962.3 L1193.8 962.3 L1200.0 962.3 L1206.2 962.3 L1212.5 962.3 L1218.8 962.3 L1225.0 962.3 L1231.2 962.3 L1237.5 962.3 L1243.8 962.4 L1250.0 962.4 L1256.2 962.5 L1262.5 962.5 L1268.8 962.4 L1275.0 962.2 L1281.2 961.8 L1287.5 961.2 L1293.8 960.3 L1300.0 958.9 L1306.2 956.8 L1307.4 956.2 L1312.5 953.8 L1318.3 950.0 L1318.8 949.7 L1324.9 943.8 L1324.9 943.8 L1329.3 937.5 L1331.2 933.6 L1332.3 931.2 L1334.2 925.0 L1335.3 918.8 L1335.8 912.5 L1335.7 906.2 L1335.2 900.0 L1334.3 893.8 L1333.3 887.5 L1331.9 881.2 L1331.2 878.3 L1330.5 875.0 L1329.1 868.8 L1327.6 862.5 L1326.2 856.2 L1325.0 851.1 L1324.8 850.0 L1323.5 843.8 L1322.4 837.5 L1321.4 831.2 L1320.5 825.0 L1319.7 818.8 L1319.0 812.5 L1318.8 809.2 L1318.5 806.2 L1318.2 800.0 L1317.9 793.8 L1317.8 787.5 L1317.8 781.2 L1317.9 775.0 L1318.0 768.8 L1318.3 762.5 L1318.6 756.2 L1318.8 753.8 L1319.0 750.0 L1319.5 743.8 L1320.1 737.5 L1320.7 731.2 L1321.5 725.0 L1322.3 718.8 L1323.3 712.5 L1324.3 706.2 L1325.0 702.2 L1325.4 700.0 L1326.6 693.8 L1327.9 687.5 L1329.1 681.2 L1330.2 675.0 L1331.2 668.8 L1331.2 668.8 L1332.1 662.5 L1332.8 656.2 L1333.3 650.0 L1333.4 643.8 L1333.3 637.5 L1332.7 631.2 L1331.8 625.0 L1331.2 622.4 L1330.5 618.8 L1328.8 612.5 L1326.8 606.2 L1325.0 601.4 L1324.4 600.0 L1321.8 593.8 L1318.9 587.5 L1315.9 581.2 L1313.2 575.0 L1312.5 573.1 L1310.7 568.8 L1308.7 562.5 L1307.2 556.2 L1306.2 550.1 L1305.8 543.8 L1305.8 537.5 L1306.2 531.2 L1306.2 530.4 L1306.7 525.0 L1307.4 518.8 L1308.0 512.5 L1308.7 506.3 L1309.5 500.0 L1310.3 493.8 L1311.0 487.5 L1311.8 481.2 L1312.5 475.7 L1312.6 475.0 L1313.3 468.8 L1313.9 462.5 L1314.5 456.2 L1315.1 450.0 L1315.6 443.8 L1316.0 437.5 L1316.4 431.2 L1316.7 425.0 L1317.0 418.8 L1317.1 412.5 L1317.2 406.2 L1317.2 400.0 L1317.1 393.8 L1316.9 387.5 L1316.8 381.2 L1316.5 375.0 L1316.3 368.8 L1316.0 362.5 L1315.8 356.2 L1315.5 350.0 L1315.3 343.8 L1315.1 337.5 L1314.9 331.2 L1314.7 325.0 L1314.5 318.8 L1314.2 312.5 L1314.0 306.2 L1313.6 300.0 L1313.3 293.8 L1312.8 287.5 L1312.5 284.1 L1312.2 281.2 L1311.5 275.0 L1310.7 268.8 L1309.9 262.5 L1309.0 256.2 L1308.0 250.0 L1307.1 243.8 L1306.2 238.2 L1306.1 237.5 L1305.1 231.2 L1304.1 225.0 L1303.2 218.8 L1302.4 212.5 L1301.7 206.2 L1301.2 200.0 L1300.7 193.8 L1300.4 187.5 L1300.2 181.2 L1300.1 175.0 L1300.1 168.8 L1300.2 162.5 L1300.5 156.2 L1300.8 150.0 L1301.1 143.8 L1301.6 137.5 L1302.1 131.2 L1302.6 125.0 L1303.0 118.8 L1303.2 112.5 L1303.0 106.2 L1302.3 100.0 L1301.0 93.8 L1300.0 91.1 L1298.3 87.5 L1293.9 81.2 L1287.5 76.7 L1283.7 75.0 L1281.2 74.1 L1275.0 72.7 L1268.8 71.9 L1262.5 71.5 L1256.2 71.5 L1250.0 71.6 L1243.8 71.9 L1237.5 72.2 L1231.2 72.4 L1225.0 72.5 L1218.8 72.7 L1212.5 72.7 L1206.2 72.8 L1200.0 72.9 L1193.8 72.9 L1187.5 72.9 L1181.2 72.7 L1175.0 72.3 L1168.8 71.6 L1162.5 70.5 L1156.2 68.9 L1155.6 68.8 L1150.0 67.1 L1143.8 64.9 L1137.8 62.5 L1131.2 59.8 L1125.0 57.1 L1122.9 56.2 L1118.8 54.6 L1112.5 52.3 L1106.2 50.3 L1105.4 50.0 L1100.0 48.4 L1093.8 46.8 L1087.5 45.4 L1081.2 44.3 L1077.4 43.8 L1075.0 43.4 L1068.8 42.6 L1062.5 41.9 L1056.2 41.4 L1050.0 40.9 L1043.8 40.5 L1037.5 40.1 L1031.2 39.8 L1025.0 39.5 L1018.8 39.1 L1012.5 38.9 L1006.2 38.6 L1000.0 38.3 L993.7 38.1 L987.5 37.9 L981.2 37.8 L975.0 37.7 L968.8 37.6 L962.5 37.5 L960.0 37.5 L956.2 37.5 L950.0 37.4 L943.8 37.4 L937.5 37.4 L931.3 37.4 L925.0 37.4 L918.8 37.4 L912.5 37.4 L906.2 37.4 L900.0 37.4 L893.8 37.4 L887.5 37.4 L881.2 37.4 L875.0 37.4 L868.8 37.4 L862.5 37.4 L856.2 37.4 L850.0 37.4 L843.8 37.4 L837.5 37.4 L831.2 37.4 L825.0 37.4 L818.7 37.4 L812.5 37.4 L806.2 37.4 L800.0 37.4 L793.8 37.5 L790.0 37.5 L787.5 37.5 L781.2 37.6 L775.0 37.7 L768.8 37.8 L762.5 38.0 L756.3 38.2 L750.0 38.5 L743.8 38.8 L737.5 39.2 L731.2 39.6 L725.0 40.2 L718.8 40.7 L712.5 41.3 L706.2 41.9 L700.0 42.6 L693.8 43.3 L689.5 43.8 L687.5 44.0 L681.2 44.6 L675.0 45.3 L668.8 46.0 L662.5 46.7 L656.2 47.4 L650.0 48.1 L643.8 48.9 L637.5 49.6 L634.3 50.0 L631.2 50.4 L625.0 51.1 L618.8 51.8 L612.5 52.6 L606.2 53.3 L600.0 54.1 L593.8 54.8 L587.5 55.6 L582.1 56.2 L581.2 56.3 L575.0 57.1 L568.8 57.8 L562.5 58.4 L556.2 59.1 L550.0 59.8 L543.8 60.4 L537.5 61.0 L531.2 61.6 L525.0 62.2 L522.1 62.5 L518.8 62.8 L512.5 63.3 L506.2 63.9 L500.0 64.4 L493.8 64.9 L487.5 65.5 L481.2 66.0 L475.0 66.4 L468.8 66.9 L462.5 67.3 L456.2 67.6 L450.0 67.8 L443.8 67.9 L437.5 67.8 L431.2 67.6 L425.0 67.2 L418.8 66.5 L412.5 65.7 L406.2 64.6 L400.0 63.3 L396.7 62.5 L393.8 61.8 L387.5 60.1 L381.2 58.3 L375.0 56.4 L374.6 56.2 L368.8 54.3 L362.5 52.2 L356.3 50.1 L350.0 47.9 L343.8 45.7 L337.7 43.8 L331.2 41.7 L325.0 39.8 L318.8 38.2 L315.5 37.5 L312.5 36.8 L306.2 35.5 L300.0 34.4 L293.8 33.6 L287.5 32.9 L281.2 32.4 L275.0 32.1 L268.8 31.9 L262.5 31.8 L256.2 31.8 L250.0 31.9 L243.8 32.0 L237.5 32.2 L231.2 32.5 L225.0 32.8 L218.8 33.1 L212.5 33.5 L206.2 33.9 L200.0 34.3 L193.7 34.8 L187.5 35.2 L181.2 35.6 L175.0 36.0 L168.8 36.5 L162.5 36.9 L156.2 37.3 " fill="none" stroke="#8a6f4796" stroke-width="0.8" stroke-linecap="round"/>
<path d="M200.0 49.9 L198.4 50.0 L193.7 50.3 L187.5 50.8 L181.2 51.2 L175.0 51.6 L168.8 52.0 L162.5 52.4 L156.2 52.7 L150.0 53.1 L143.8 53.6 L137.5 54.2 L131.2 55.0 L125.0 56.0 L123.9 56.2 L118.7 57.4 L112.5 59.3 L106.2 61.8 L104.9 62.5 L100.0 65.3 L95.5 68.8 L93.8 70.4 L89.5 75.0 L87.5 77.9 L85.4 81.2 L82.7 87.5 L81.2 92.6 L80.9 93.8 L79.9 100.0 L79.5 106.2 L79.5 112.5 L79.8 118.8 L80.4 125.0 L81.2 131.2 L81.2 131.8 L82.1 137.5 L82.9 143.8 L83.8 150.0 L84.6 156.2 L85.2 162.5 L85.8 168.8 L86.2 175.0 L86.6 181.2 L86.7 187.5 L86.8 193.8 L86.8 200.0 L86.6 206.2 L86.3 212.5 L86.0 218.8 L85.5 225.0 L84.9 231.2 L84.3 237.5 L83.6 243.8 L82.8 250.0 L81.9 256.2 L81.2 260.9 L81.0 262.5 L80.1 268.8 L79.1 275.0 L78.1 281.2 L77.1 287.5 L76.2 293.8 L75.2 300.0 L75.0 301.1 L74.2 306.2 L73.2 312.5 L72.3 318.8 L71.4 325.0 L70.5 331.2 L69.5 337.5 L68.8 342.6 L68.6 343.8 L67.6 350.0 L66.6 356.2 L65.6 362.5 L64.5 368.8 L63.4 375.0 L62.5 379.7 L62.2 381.2 L61.0 387.5 L59.9 393.8 L58.7 400.0 L57.6 406.2 L56.5 412.5 L56.2 414.4 L55.6 418.8 L54.8 425.0 L54.3 431.2 L53.9 437.5 L53.8 443.8 L53.9 450.0 L54.3 456.2 L54.9 462.5 L55.7 468.8 L56.2 472.0 L56.8 475.0 L58.0 481.2 L59.3 487.5 L60.7 493.8 L62.1 500.0 L62.5 501.8 L63.5 506.3 L64.8 512.5 L66.0 518.8 L67.1 525.0 L68.0 531.2 L68.7 537.5 L68.8 538.7 L69.2 543.8 L69.5 550.0 L69.6 556.2 L69.6 562.5 L69.4 568.8 L69.1 575.0 L68.8 581.2 L68.7 581.2 L68.4 587.5 L68.0 593.8 L67.6 600.0 L67.3 606.2 L67.1 612.5 L67.0 618.8 L67.0 625.0 L67.2 631.2 L67.5 637.5 L67.9 643.8 L68.5 650.0 L68.8 652.5 L69.2 656.2 L70.0 662.5 L70.9 668.8 L72.1 675.0 L73.3 681.2 L74.8 687.5 L75.0 688.2 L76.5 693.8 L78.5 700.0 L80.8 706.2 L81.2 707.2 L83.6 712.5 L86.8 718.8 L87.5 720.0 L90.6 725.0 L93.8 729.7 L95.0 731.2 L100.0 737.5 L100.0 737.5 L106.2 743.8 L106.2 743.8 L112.5 748.9 L114.3 750.0 L118.7 753.0 L125.0 756.1 L125.5 756.2 L131.2 758.7 L137.5 760.5 L143.8 761.8 L148.3 762.5 L150.0 762.8 L156.2 763.5 L162.5 764.1 L168.8 764.6 L175.0 765.0 L181.2 765.5 L187.5 766.0 L193.7 766.4 L200.0 766.9 L206.2 767.3 L212.5 767.7 L218.8 768.2 L225.0 768.6 L227.4 768.8 L231.2 769.1 L237.5 769.6 L243.8 770.1 L250.0 770.6 L256.2 771.0 L262.5 771.3 L268.8 771.5 L275.0 771.5 L281.2 771.3 L287.5 770.9 L293.8 770.2 L300.0 769.0 L301.1 768.8 L306.2 767.6 L312.5 765.6 L318.8 762.9 L319.5 762.5 L325.0 759.6 L329.9 756.2 L331.2 755.3 L337.3 750.0 L337.3 750.0 L343.0 743.8 L343.8 742.8 L347.7 737.5 L350.0 734.0 L351.7 731.2 L355.2 725.0 L356.3 722.8 L358.4 718.8 L361.2 712.5 L362.5 709.3 L363.8 706.2 L366.4 700.0 L368.7 693.8 L368.7 693.8 L371.3 687.5 L373.6 681.2 L375.0 677.3 L375.9 675.0 L378.3 668.8 L380.6 662.5 L381.2 660.6 L383.0 656.2 L385.3 650.0 L387.5 643.8 L390.0 637.5 L392.2 631.2 L393.8 626.9 L394.5 625.0 L396.9 618.8 L399.2 612.5 L400.0 610.1 L401.6 606.2 L404.0 600.0 L406.2 594.2 L406.4 593.8 L409.3 587.5 L412.2 581.2 L412.5 580.6 L416.0 575.0 L418.8 570.6 L420.5 568.8 L425.0 564.4 L429.7 562.5 L431.2 561.9 L434.6 562.5 L437.5 563.1 L443.8 567.7 L444.7 568.8 L449.6 575.0 L450.0 575.5 L453.3 581.2 L456.2 586.2 L456.9 587.5 L460.0 593.8 L462.5 598.7 L463.1 600.0 L466.1 606.2 L468.8 611.6 L469.2 612.5 L472.1 618.8 L475.0 624.5 L475.3 625.0 L478.2 631.2 L481.2 637.2 L481.4 637.5 L484.4 643.8 L487.5 649.7 L487.7 650.0 L490.8 656.2 L493.8 661.8 L494.1 662.5 L497.4 668.8 L500.0 673.4 L500.9 675.0 L504.6 681.2 L506.2 683.8 L508.6 687.5 L512.5 692.9 L513.1 693.8 L518.2 700.0 L518.8 700.6 L524.2 706.2 L525.0 707.0 L531.2 712.4 L531.4 712.5 L537.5 717.0 L540.3 718.8 L543.8 720.8 L550.0 724.0 L552.2 725.0 L556.2 726.8 L562.5 729.1 L568.8 730.9 L570.4 731.2 L575.0 732.4 L581.2 733.6 L587.5 734.5 L593.8 735.0 L600.0 735.1 L606.2 734.9 L612.5 734.3 L618.8 733.3 L625.0 731.9 L627.2 731.2 L631.2 730.2 L637.5 728.1 L643.8 725.5 L644.9 725.0 L650.0 722.8 L656.2 719.7 L658.1 718.8 L662.5 716.5 L668.8 713.0 L669.7 712.5 L675.0 709.6 L680.7 706.2 L681.2 706.0 L687.5 702.4 L691.6 700.0 L693.8 698.8 L700.0 695.2 L702.5 693.8 L706.2 691.6 L712.5 688.0 L713.3 687.5 L718.8 684.5 L724.2 681.2 L725.0 680.8 L731.2 677.2 L735.0 675.0 L737.5 673.6 L743.8 670.0 L745.8 668.8 L750.0 666.4 L756.3 662.7 L762.5 659.1 L767.4 656.2 L768.8 655.5 L775.0 651.9 L778.2 650.0 L781.2 648.3 L787.5 644.6 L789.0 643.8 L793.8 641.1 L799.7 637.5 L799.7 637.5 L806.2 633.8 L810.6 631.2 L812.5 630.2 L818.7 626.6 L821.4 625.0 L825.0 623.0 L831.2 619.3 L832.2 618.8 L837.5 615.8 L843.1 612.5 L843.8 612.1 L850.0 608.6 L854.0 606.2 L856.2 605.0 L862.5 601.4 L864.9 600.0 L868.8 597.8 L875.0 594.2 L875.9 593.8 L881.2 590.9 L887.4 587.5 L887.4 587.5 L893.8 584.4 L900.0 581.4 L900.4 581.2 L906.2 579.0 L912.5 576.9 L918.8 575.2 L919.8 575.0 L925.0 574.1 L931.3 573.4 L937.5 573.1 L943.8 573.2 L950.0 573.6 L956.2 574.3 L961.2 575.0 L962.5 575.2 L968.8 576.3 L975.0 577.5 L981.2 578.9 L987.5 580.4 L990.2 581.2 L993.7 582.6 L1000.0 585.6 L1002.8 587.5 L1006.2 591.2 L1007.8 593.8 L1009.8 600.0 L1010.3 606.2 L1010.0 612.5 L1009.3 618.8 L1008.4 625.0 L1007.3 631.2 L1006.2 636.6 L1006.0 637.5 L1004.6 643.8 L1003.2 650.0 L1001.8 656.2 L1000.6 662.5 L1000.0 665.4 L999.2 668.8 L997.8 675.0 L996.5 681.2 L995.2 687.5 L993.9 693.8 L993.7 694.6 L992.5 700.0 L991.1 706.2 L989.8 712.5 L988.5 718.8 L987.5 723.8 L987.2 725.0 L985.8 731.2 L984.4 737.5 L983.1 743.8 L981.9 750.0 L981.2 753.3 L980.6 756.2 L979.2 762.5 L977.8 768.8 L976.6 775.0 L975.3 781.2 L975.0 782.9 L973.9 787.5 L972.6 793.8 L971.2 800.0 L969.9 806.2 L968.8 812.3 L968.7 812.5 L967.3 818.8 L965.9 825.0 L964.6 831.2 L963.3 837.5 L962.5 841.5 L962.0 843.8 L960.5 850.0 L959.2 856.2 L957.9 862.5 L956.7 868.8 L956.2 872.0 L955.7 875.0 L955.1 881.2 L955.1 887.5 L955.7 893.8 L956.2 896.1 L957.0 900.0 L959.2 906.2 L962.5 912.5 L962.5 912.5 L967.1 918.8 L968.8 920.5 L973.4 925.0 L975.0 926.3 L981.2 930.8 L981.9 931.2 L987.5 934.4 L993.7 937.3 L994.3 937.5 L1000.0 939.6 L1006.2 941.4 L1012.5 942.8 L1018.2 943.8 L1018.8 943.8 L1025.0 944.7 L1031.2 945.3 L1037.5 945.8 L1043.8 946.1 L1050.0 946.4 L1056.2 946.5 L1062.5 946.6 L1068.8 946.7 L1075.0 946.8 L1081.2 946.8 L1087.5 946.9 L1093.8 946.9 L1100.0 946.9 L1106.2 946.9 L1112.5 946.9 L1118.8 946.9 L1125.0 946.9 L1131.2 946.9 L1137.5 946.9 L1143.8 946.9 L1150.0 946.9 L1156.2 946.9 L1162.5 946.9 L1168.8 946.9 L1175.0 946.9 L1181.2 946.9 L1187.5 946.9 L1193.8 946.9 L1200.0 946.9 L1206.2 946.9 L1212.5 946.9 L1218.8 946.9 L1225.0 946.9 L1231.2 946.9 L1237.5 946.9 L1243.8 946.9 L1250.0 947.0 L1256.2 947.0 L1262.5 946.9 L1268.8 946.6 L1275.0 946.2 L1281.2 945.4 L1287.5 944.2 L1289.3 943.8 L1293.8 942.4 L1300.0 939.6 L1303.4 937.5 L1306.2 935.3 L1310.3 931.2 L1312.5 928.3 L1314.5 925.0 L1317.0 918.8 L1318.3 912.5 L1318.8 907.2 L1318.8 906.2 L1318.8 902.7 L1318.7 900.0 L1318.1 893.8 L1317.2 887.5 L1316.0 881.2 L1314.7 875.0 L1313.2 868.8 L1312.5 865.7 L1311.7 862.5 L1310.3 856.2 L1309.0 850.0 L1307.8 843.8 L1306.7 837.5 L1306.2 834.6 L1305.7 831.2 L1304.8 825.0 L1304.1 818.8 L1303.5 812.5 L1303.0 806.2 L1302.7 800.0 L1302.4 793.8 L1302.3 787.5 L1302.3 781.2 L1302.4 775.0 L1302.5 768.8 L1302.8 762.5 L1303.1 756.2 L1303.5 750.0 L1304.0 743.8 L1304.5 737.5 L1305.1 731.2 L1305.9 725.0 L1306.2 722.0 L1306.7 718.8 L1307.6 712.5 L1308.6 706.2 L1309.7 700.0 L1310.9 693.8 L1312.1 687.5 L1312.5 685.4 L1313.3 681.2 L1314.4 675.0 L1315.5 668.8 L1316.3 662.5 L1316.8 656.2 L1317.1 650.0 L1317.0 643.8 L1316.4 637.5 L1315.3 631.2 L1313.7 625.0 L1312.5 621.7 L1311.4 618.8 L1308.4 612.5 L1306.2 608.7 L1304.7 606.2 L1300.1 600.0 L1294.2 593.8 L1293.8 593.3 L1287.5 588.3 L1286.2 587.5 L1281.2 584.3 L1275.0 581.4 L1268.8 578.9 L1262.5 577.1 L1256.2 575.8 L1250.8 575.0 L1250.0 574.9 L1243.8 574.0 L1237.5 573.2 L1231.2 572.5 L1225.0 571.8 L1218.8 571.1 L1212.5 570.4 L1206.2 569.7 L1200.0 569.0 L1197.4 568.8 L1193.8 568.3 L1187.5 567.5 L1181.2 566.7 L1175.0 566.0 L1168.8 565.3 L1162.5 564.6 L1156.2 563.9 L1150.0 563.3 L1143.8 562.6 L1142.5 562.5 L1137.5 561.9 L1131.2 561.1 L1125.0 560.4 L1118.8 559.7 L1112.5 559.0 L1106.2 558.4 L1100.0 557.6 L1093.8 556.8 L1090.2 556.2 L1087.5 555.7 L1081.2 554.1 L1075.0 551.9 L1071.2 550.0 L1068.8 548.1 L1065.2 543.8 L1062.7 537.5 L1062.5 536.0 L1061.9 531.2 L1061.9 525.0 L1062.4 518.8 L1062.5 518.1 L1063.3 512.5 L1064.3 506.3 L1065.4 500.0 L1066.5 493.8 L1067.5 487.5 L1068.4 481.2 L1068.8 479.3 L1069.5 475.0 L1070.5 468.8 L1071.6 462.5 L1072.6 456.2 L1073.5 450.0 L1074.5 443.8 L1075.0 440.5 L1075.5 437.5 L1076.5 431.2 L1077.6 425.0 L1078.6 418.8 L1079.5 412.5 L1080.5 406.2 L1081.2 401.5 L1081.5 400.0 L1082.6 393.8 L1083.7 387.5 L1084.7 381.2 L1085.7 375.0 L1086.7 368.8 L1087.5 363.6 L1087.7 362.5 L1088.8 356.2 L1089.8 350.0 L1090.8 343.8 L1091.8 337.5 L1092.8 331.2 L1093.7 325.0 L1093.7 325.0 L1094.8 318.8 L1095.8 312.5 L1096.8 306.2 L1097.8 300.0 L1098.8 293.8 L1099.8 287.5 L1100.0 286.0 L1100.8 281.2 L1101.9 275.0 L1102.9 268.8 L1103.9 262.5 L1104.9 256.2 L1105.9 250.0 L1106.2 247.5 L1106.9 243.8 L1107.9 237.5 L1108.9 231.2 L1109.9 225.0 L1110.9 218.8 L1111.9 212.5 L1112.5 208.4 L1112.9 206.2 L1113.9 200.0 L1115.0 193.8 L1116.0 187.5 L1117.0 181.2 L1118.0 175.0 L1118.8 170.0 L1119.0 168.8 L1120.1 162.5 L1121.1 156.2 L1122.1 150.0 L1123.2 143.8 L1124.1 137.5 L1125.0 131.9 L1125.1 131.2 L1126.0 125.0 L1126.5 118.8 L1126.5 112.5 L1125.8 106.2 L1125.0 103.2 L1124.3 100.0 L1121.8 93.8 L1118.8 88.9 L1117.9 87.5 L1112.5 81.4 L1106.2 76.4 L1104.3 75.0 L1100.0 72.5 L1093.8 69.3 L1092.4 68.8 L1087.5 66.9 L1081.2 65.0 L1075.0 63.5 L1070.1 62.5 L1068.8 62.3 L1062.5 61.4 L1056.2 60.6 L1050.0 60.1 L1043.8 59.6 L1037.5 59.2 L1031.2 58.8 L1025.0 58.5 L1018.8 58.2 L1012.5 57.9 L1006.2 57.6 L1000.0 57.3 L993.7 57.1 L987.5 56.9 L981.2 56.7 L975.0 56.6 L968.8 56.5 L962.5 56.4 L956.2 56.4 L950.0 56.3 L943.8 56.3 L937.5 56.3 L931.3 56.3 L925.0 56.3 L918.8 56.3 L912.5 56.3 L906.2 56.3 L900.0 56.3 L893.8 56.3 L887.5 56.3 L881.2 56.3 L875.0 56.3 L868.8 56.3 L862.5 56.3 L856.2 56.3 L850.0 56.3 L843.8 56.3 L837.5 56.3 L831.2 56.3 L825.0 56.3 L818.7 56.3 L812.5 56.3 L806.2 56.3 L800.0 56.3 L793.8 56.4 L787.5 56.4 L781.2 56.5 L775.0 56.6 L768.8 56.7 L762.5 56.9 L756.3 57.1 L750.0 57.4 L743.8 57.8 L737.5 58.2 L731.2 58.7 L725.0 59.2 L718.8 59.8 L712.5 60.4 L706.2 61.0 L700.0 61.6 L693.8 62.3 L691.9 62.5 L687.5 63.0 L681.2 63.7 L675.0 64.4 L668.8 65.1 L662.5 65.8 L656.2 66.5 L650.0 67.2 L643.8 68.0 L637.5 68.7 L637.2 68.8 L631.2 69.5 L625.0 70.3 L618.8 71.1 L612.5 72.0 L606.2 72.8 L600.0 73.7 L593.8 74.5 L590.5 75.0 L587.5 75.5 L581.2 76.4 L575.0 77.4 L568.8 78.3 L562.5 79.3 L556.2 80.2 L550.0 81.2 L549.8 81.2 L543.8 82.3 L537.5 83.3 L531.2 84.4 L525.0 85.4 L518.8 86.5 L513.3 87.5 L512.5 87.7 L506.2 88.9 L500.0 90.1 L493.8 91.3 L487.5 92.6 L482.2 93.8 L481.2 94.0 L475.0 95.3 L468.8 96.7 L462.5 98.0 L456.2 99.1 L450.4 100.0 L443.8 100.7 L437.5 101.0 L431.2 100.7 L425.6 100.0 L425.0 99.9 L418.8 98.6 L412.5 96.7 L406.2 94.4 L404.9 93.8 L400.0 91.6 L393.8 88.7 L391.5 87.5 L387.5 85.5 L381.2 82.3 L379.2 81.2 L375.0 79.1 L368.8 76.0 L366.8 75.0 L362.5 72.9 L356.3 69.9 L353.8 68.8 L350.0 67.0 L343.8 64.3 L339.6 62.5 L337.5 61.6 L331.2 59.2 L325.0 57.0 L322.8 56.2 L318.8 55.0 L312.5 53.2 L306.2 51.7 L300.0 50.4 L297.3 50.0 L293.8 49.4 L287.5 48.6 L281.2 48.0 L275.0 47.6 L268.8 47.4 L262.5 47.3 L256.2 47.3 L250.0 47.4 L243.8 47.5 L237.5 47.7 L231.2 48.0 L225.0 48.3 L218.8 48.7 L212.5 49.1 L206.2 49.5 L200.0 49.9 " fill="none" stroke="#8a6f4796" stroke-width="0.8" stroke-linecap="round"/>
<path d="M150.0 68.7 L148.8 68.8 L143.8 69.2 L137.5 70.0 L131.2 71.1 L125.0 72.6 L118.7 74.6 L117.9 75.0 L112.5 77.8 L107.6 81.2 L106.2 82.5 L102.1 87.5 L100.0 91.2 L98.8 93.8 L96.9 100.0 L95.9 106.2 L95.5 112.5 L95.6 118.8 L96.1 125.0 L96.9 131.2 L97.8 137.5 L98.6 143.8 L99.4 150.0 L100.0 155.0 L100.2 156.2 L100.8 162.5 L101.4 168.8 L101.8 175.0 L102.1 181.2 L102.3 187.5 L102.4 193.8 L102.4 200.0 L102.2 206.2 L101.9 212.5 L101.6 218.8 L101.1 225.0 L100.5 231.2 L100.0 236.2 L99.9 237.5 L99.2 243.8 L98.4 250.0 L97.6 256.2 L96.7 262.5 L95.8 268.8 L94.8 275.0 L93.8 281.2 L93.7 281.2 L92.8 287.5 L91.8 293.8 L90.9 300.0 L89.9 306.2 L88.9 312.5 L87.9 318.8 L87.5 321.5 L87.0 325.0 L86.1 331.2 L85.2 337.5 L84.2 343.8 L83.3 350.0 L82.3 356.2 L81.2 362.2 L81.2 362.5 L80.2 368.8 L79.1 375.0 L78.0 381.2 L76.8 387.5 L75.6 393.8 L75.0 396.7 L74.4 400.0 L73.3 406.2 L72.3 412.5 L71.3 418.8 L70.5 425.0 L69.9 431.2 L69.5 437.5 L69.4 443.8 L69.5 450.0 L69.9 456.2 L70.6 462.5 L71.5 468.8 L72.6 475.0 L73.8 481.2 L75.0 487.1 L75.1 487.5 L76.6 493.8 L78.0 500.0 L79.3 506.3 L80.6 512.5 L81.2 516.1 L81.8 518.8 L82.8 525.0 L83.7 531.2 L84.3 537.5 L84.8 543.8 L85.0 550.0 L85.2 556.2 L85.1 562.5 L85.0 568.8 L84.7 575.0 L84.3 581.2 L83.9 587.5 L83.5 593.8 L83.2 600.0 L82.9 606.2 L82.6 612.5 L82.5 618.8 L82.6 625.0 L82.7 631.2 L83.1 637.5 L83.5 643.8 L84.1 650.0 L84.8 656.2 L85.6 662.5 L86.7 668.8 L87.5 673.0 L87.9 675.0 L89.5 681.2 L91.3 687.5 L93.4 693.8 L93.8 694.5 L96.2 700.0 L99.5 706.2 L100.0 707.0 L104.0 712.5 L106.2 715.2 L109.9 718.8 L112.5 721.1 L118.1 725.0 L118.7 725.5 L125.0 728.6 L131.2 731.0 L132.3 731.2 L137.5 732.7 L143.8 733.9 L150.0 734.8 L156.2 735.4 L162.5 735.9 L168.8 736.3 L175.0 736.8 L181.2 737.3 L184.4 737.5 L187.5 737.7 L193.7 738.2 L200.0 738.7 L206.2 739.1 L212.5 739.6 L218.8 740.0 L225.0 740.5 L231.2 741.0 L237.5 741.4 L243.8 741.9 L250.0 742.3 L256.2 742.7 L262.5 742.9 L268.8 743.0 L275.0 742.9 L281.2 742.4 L287.5 741.5 L293.8 740.0 L300.0 737.9 L301.0 737.5 L306.2 735.0 L312.1 731.2 L312.5 730.9 L318.8 725.6 L319.3 725.0 L324.7 718.8 L324.7 718.8 L329.0 712.5 L331.2 708.7 L332.6 706.2 L335.7 700.0 L337.5 696.1 L338.5 693.8 L341.2 687.5 L343.7 681.2 L343.7 681.2 L346.1 675.0 L348.4 668.8 L350.0 664.6 L350.8 662.5 L353.1 656.2 L355.4 650.0 L356.3 647.8 L357.8 643.8 L360.1 637.5 L362.4 631.2 L362.4 631.2 L364.7 625.0 L367.0 618.8 L368.8 614.1 L369.3 612.5 L371.6 606.2 L374.0 600.0 L375.0 597.2 L376.3 593.8 L378.6 587.5 L380.9 581.2 L381.2 580.4 L383.3 575.0 L385.7 568.8 L387.5 564.0 L388.1 562.5 L390.6 556.2 L393.3 550.0 L393.8 548.9 L396.2 543.8 L399.3 537.5 L400.0 536.1 L402.8 531.2 L406.2 525.8 L406.9 525.0 L411.8 518.8 L412.5 517.9 L418.3 512.5 L418.8 512.0 L425.0 507.9 L428.8 506.3 L431.2 505.2 L437.5 504.0 L443.8 504.3 L449.5 506.3 L450.0 506.4 L456.2 510.4 L458.5 512.5 L462.5 516.5 L464.3 518.8 L468.8 524.9 L468.8 525.0 L472.7 531.2 L475.0 535.4 L476.1 537.5 L479.4 543.8 L481.2 547.5 L482.5 550.0 L485.6 556.2 L487.5 560.3 L488.6 562.5 L491.6 568.8 L493.8 573.4 L494.5 575.0 L497.5 581.2 L500.0 586.6 L500.5 587.5 L503.5 593.8 L506.2 599.6 L506.5 600.0 L509.6 606.2 L512.5 612.4 L512.5 612.5 L515.7 618.8 L518.7 625.0 L518.8 625.1 L521.9 631.2 L525.0 637.5 L525.0 637.6 L528.3 643.8 L531.2 649.2 L531.7 650.0 L535.4 656.2 L537.5 659.5 L539.5 662.5 L543.8 668.2 L544.2 668.8 L549.8 675.0 L550.0 675.2 L556.2 680.7 L557.0 681.2 L562.5 684.9 L567.2 687.5 L568.8 688.2 L575.0 690.7 L581.2 692.6 L586.8 693.8 L587.5 693.9 L593.8 694.5 L600.0 694.6 L606.2 694.3 L609.9 693.8 L612.5 693.3 L618.8 691.9 L625.0 690.0 L631.2 687.7 L631.8 687.5 L637.5 684.9 L643.8 681.9 L645.1 681.2 L650.0 678.6 L656.2 675.3 L656.8 675.0 L662.5 671.7 L667.9 668.8 L668.8 668.2 L675.0 664.6 L678.8 662.5 L681.2 661.0 L687.5 657.4 L689.6 656.2 L693.8 653.8 L700.0 650.3 L700.5 650.0 L706.2 646.6 L711.3 643.8 L712.5 643.0 L718.8 639.4 L722.1 637.5 L725.0 635.8 L731.2 632.2 L732.9 631.2 L737.5 628.5 L743.7 625.0 L743.7 625.0 L750.0 621.3 L754.5 618.8 L756.3 617.7 L762.5 614.1 L765.3 612.5 L768.8 610.4 L775.0 606.9 L776.1 606.2 L781.2 603.2 L786.9 600.0 L787.5 599.7 L793.8 596.0 L797.7 593.8 L800.0 592.4 L806.2 588.8 L808.5 587.5 L812.5 585.2 L818.7 581.6 L819.4 581.2 L825.0 578.0 L830.3 575.0 L831.2 574.4 L837.5 570.8 L841.1 568.8 L843.8 567.2 L850.0 563.6 L851.9 562.5 L856.2 560.0 L862.5 556.5 L863.0 556.2 L868.8 553.0 L874.5 550.0 L875.0 549.7 L881.2 546.5 L887.4 543.8 L887.4 543.8 L893.8 541.0 L900.0 538.8 L904.3 537.5 L906.2 536.9 L912.5 535.3 L918.8 534.2 L925.0 533.4 L931.3 532.9 L937.5 532.8 L943.8 533.0 L950.0 533.5 L956.2 534.1 L962.5 535.0 L968.8 535.9 L975.0 536.7 L981.2 537.3 L987.5 537.5 L993.7 537.0 L1000.0 535.7 L1006.2 533.0 L1008.9 531.2 L1012.5 528.1 L1014.9 525.0 L1018.7 518.8 L1018.7 518.8 L1021.2 512.5 L1023.2 506.3 L1024.9 500.0 L1024.9 500.0 L1026.2 493.8 L1027.3 487.5 L1028.3 481.2 L1029.4 475.0 L1030.4 468.8 L1031.2 464.0 L1031.5 462.5 L1032.4 456.2 L1033.4 450.0 L1034.4 443.8 L1035.4 437.5 L1036.5 431.2 L1037.5 425.1 L1038.5 418.8 L1039.4 412.5 L1040.4 406.2 L1041.4 400.0 L1042.5 393.8 L1043.6 387.5 L1043.8 386.4 L1044.6 381.2 L1045.6 375.0 L1046.6 368.8 L1047.6 362.5 L1048.7 356.2 L1049.7 350.0 L1050.0 348.5 L1050.7 343.8 L1051.7 337.5 L1052.7 331.2 L1053.7 325.0 L1054.7 318.8 L1055.8 312.5 L1056.2 309.5 L1056.8 306.2 L1057.7 300.0 L1058.7 293.8 L1059.7 287.5 L1060.7 281.2 L1061.8 275.0 L1062.5 270.7 L1062.8 268.8 L1063.8 262.5 L1064.8 256.2 L1065.8 250.0 L1066.8 243.8 L1067.8 237.5 L1068.8 232.1 L1068.9 231.2 L1069.8 225.0 L1070.8 218.8 L1071.8 212.5 L1072.8 206.2 L1073.8 200.0 L1074.9 193.8 L1075.0 193.1 L1075.9 187.5 L1076.8 181.2 L1077.9 175.0 L1078.9 168.8 L1079.9 162.5 L1081.0 156.2 L1081.2 155.0 L1082.0 150.0 L1083.0 143.8 L1084.0 137.5 L1085.0 131.2 L1085.9 125.0 L1086.3 118.8 L1085.9 112.5 L1084.5 106.2 L1081.7 100.0 L1081.2 99.4 L1076.0 93.8 L1075.0 93.0 L1068.8 89.5 L1064.1 87.5 L1062.5 87.0 L1056.2 85.5 L1050.0 84.4 L1043.8 83.7 L1037.5 83.1 L1031.2 82.6 L1025.0 82.3 L1018.8 81.9 L1012.5 81.5 L1007.3 81.2 L1006.2 81.2 L1000.0 81.0 L993.7 80.7 L987.5 80.5 L981.2 80.4 L975.0 80.3 L968.8 80.2 L962.5 80.1 L956.2 80.1 L950.0 80.0 L943.8 80.0 L937.5 80.0 L931.3 80.0 L925.0 80.0 L918.8 80.0 L912.5 80.0 L906.2 80.0 L900.0 80.0 L893.8 80.0 L887.5 80.0 L881.2 80.0 L875.0 80.0 L868.8 80.0 L862.5 80.0 L856.2 80.0 L850.0 80.0 L843.8 80.0 L837.5 80.0 L831.2 80.0 L825.0 80.0 L818.7 80.0 L812.5 80.0 L806.2 80.0 L800.0 80.0 L793.8 80.1 L787.5 80.1 L781.2 80.2 L775.0 80.3 L768.8 80.4 L762.5 80.6 L756.3 80.8 L750.0 81.1 L747.3 81.2 L743.8 81.5 L737.5 82.0 L731.2 82.5 L725.0 83.1 L718.8 83.7 L712.5 84.3 L706.2 85.0 L700.0 85.6 L693.8 86.2 L687.5 86.9 L681.2 87.5 L681.2 87.5 L675.0 88.3 L668.8 89.0 L662.5 89.8 L656.2 90.5 L650.0 91.3 L643.8 92.0 L637.5 92.8 L631.2 93.6 L629.7 93.8 L625.0 94.5 L618.8 95.5 L612.5 96.5 L606.2 97.6 L600.0 98.6 L593.8 99.7 L591.9 100.0 L587.5 100.9 L581.2 102.3 L575.0 103.6 L568.8 104.9 L562.5 106.2 L562.1 106.2 L556.2 107.7 L550.0 109.2 L543.8 110.7 L537.5 112.2 L536.3 112.5 L531.2 113.9 L525.0 115.6 L518.8 117.3 L513.2 118.8 L512.5 119.0 L506.2 120.9 L500.0 122.8 L493.8 124.6 L492.4 125.0 L487.5 126.6 L481.2 128.6 L475.0 130.5 L472.0 131.2 L468.8 132.2 L462.5 133.7 L456.2 134.8 L450.0 135.5 L443.8 135.6 L437.5 135.1 L431.2 134.0 L425.0 132.3 L422.4 131.2 L418.8 130.0 L412.5 127.2 L408.2 125.0 L406.2 124.0 L400.0 120.4 L397.4 118.8 L393.8 116.5 L387.8 112.5 L381.2 108.0 L378.8 106.2 L375.0 103.7 L369.8 100.0 L368.8 99.3 L362.5 95.1 L360.5 93.8 L356.3 91.1 L350.6 87.5 L350.0 87.2 L343.8 83.6 L339.6 81.2 L337.5 80.2 L331.2 77.1 L326.6 75.0 L325.0 74.3 L318.8 71.9 L312.5 69.8 L309.2 68.8 L306.2 67.9 L300.0 66.5 L293.8 65.3 L287.5 64.4 L281.2 63.7 L275.0 63.2 L268.8 62.9 L262.5 62.8 L256.2 62.7 L250.0 62.8 L243.8 63.0 L237.5 63.2 L231.2 63.5 L225.0 63.9 L218.8 64.2 L212.5 64.6 L206.2 65.0 L200.0 65.5 L193.7 65.9 L187.5 66.3 L181.2 66.7 L175.0 67.1 L168.8 67.5 L162.5 67.9 L156.2 68.2 L150.0 68.7 " fill="none" stroke="#8a6f4796" stroke-width="0.8" stroke-linecap="round"/>
<path d="M1081.2 586.9 L1077.3 587.5 L1075.0 587.8 L1068.8 589.4 L1062.5 592.0 L1059.7 593.8 L1056.2 596.1 L1052.1 600.0 L1050.0 602.4 L1047.3 606.2 L1043.8 612.4 L1043.7 612.5 L1041.0 618.8 L1038.8 625.0 L1037.5 629.0 L1036.8 631.2 L1035.1 637.5 L1033.5 643.8 L1032.0 650.0 L1031.2 653.3 L1030.6 656.2 L1029.2 662.5 L1027.9 668.8 L1026.6 675.0 L1025.2 681.2 L1025.0 682.3 L1023.9 687.5 L1022.5 693.8 L1021.2 700.0 L1019.9 706.2 L1018.8 711.5 L1018.5 712.5 L1017.2 718.8 L1015.9 725.0 L1014.5 731.2 L1013.2 737.5 L1012.5 740.7 L1011.9 743.8 L1010.5 750.0 L1009.2 756.2 L1007.9 762.5 L1006.6 768.8 L1006.2 770.3 L1005.3 775.0 L1003.9 781.2 L1002.6 787.5 L1001.3 793.8 L1000.0 799.9 L1000.0 800.0 L998.6 806.2 L997.3 812.5 L996.0 818.8 L994.6 825.0 L993.7 829.2 L993.3 831.2 L992.0 837.5 L990.6 843.8 L989.3 850.0 L987.9 856.2 L987.5 858.3 L986.6 862.5 L985.3 868.8 L984.3 875.0 L983.6 881.2 L983.4 887.5 L983.8 893.8 L985.2 900.0 L987.5 905.9 L987.7 906.2 L991.9 912.5 L993.7 914.4 L998.7 918.8 L1000.0 919.6 L1006.2 923.0 L1011.1 925.0 L1012.5 925.5 L1018.8 927.2 L1025.0 928.4 L1031.2 929.4 L1037.5 930.1 L1043.8 930.5 L1050.0 930.9 L1056.2 931.1 L1062.5 931.2 L1066.2 931.2 L1068.8 931.3 L1075.0 931.4 L1081.2 931.4 L1087.5 931.4 L1093.8 931.4 L1100.0 931.4 L1106.2 931.4 L1112.5 931.4 L1118.8 931.4 L1125.0 931.4 L1131.2 931.4 L1137.5 931.4 L1143.8 931.4 L1150.0 931.4 L1156.2 931.4 L1162.5 931.4 L1168.8 931.4 L1175.0 931.4 L1181.2 931.4 L1187.5 931.4 L1193.8 931.4 L1200.0 931.4 L1206.2 931.4 L1212.5 931.4 L1218.8 931.4 L1225.0 931.4 L1231.2 931.4 L1237.5 931.5 L1243.8 931.5 L1250.0 931.5 L1256.2 931.4 L1259.4 931.2 L1262.5 931.1 L1268.8 930.5 L1275.0 929.5 L1281.2 927.9 L1287.5 925.3 L1288.1 925.0 L1293.8 920.7 L1295.6 918.8 L1299.3 912.5 L1300.0 910.3 L1301.1 906.2 L1301.7 900.0 L1301.6 893.8 L1301.0 887.5 L1300.1 881.2 L1298.8 875.0 L1297.3 868.8 L1295.9 862.5 L1294.6 856.2 L1293.8 852.2 L1293.3 850.0 L1292.1 843.8 L1291.0 837.5 L1290.0 831.2 L1289.2 825.0 L1288.5 818.8 L1287.9 812.5 L1287.5 806.5 L1287.1 800.0 L1286.9 793.8 L1286.8 787.5 L1286.8 781.2 L1286.9 775.0 L1287.0 768.8 L1287.3 762.5 L1287.5 758.7 L1287.6 756.2 L1288.0 750.0 L1288.4 743.8 L1288.9 737.5 L1289.5 731.2 L1290.2 725.0 L1291.0 718.8 L1291.9 712.5 L1292.9 706.2 L1293.8 701.6 L1294.0 700.0 L1295.1 693.8 L1296.3 687.5 L1297.5 681.2 L1298.6 675.0 L1299.6 668.8 L1300.0 665.5 L1300.3 662.5 L1300.7 656.2 L1300.6 650.0 L1300.0 643.8 L1298.7 637.5 L1296.4 631.2 L1293.8 626.0 L1293.1 625.0 L1288.0 618.8 L1287.5 618.3 L1281.2 613.3 L1279.9 612.5 L1275.0 609.8 L1268.8 607.3 L1265.3 606.2 L1262.5 605.4 L1256.2 604.1 L1250.0 603.1 L1243.8 602.3 L1237.5 601.5 L1231.2 600.8 L1225.0 600.1 L1223.9 600.0 L1218.8 599.4 L1212.5 598.7 L1206.2 598.0 L1200.0 597.2 L1193.8 596.5 L1187.5 595.8 L1181.2 595.1 L1175.0 594.3 L1169.8 593.8 L1168.8 593.6 L1162.5 592.9 L1156.2 592.2 L1150.0 591.5 L1143.8 590.8 L1137.5 590.1 L1131.2 589.4 L1125.0 588.7 L1118.8 588.0 L1113.2 587.5 L1112.5 587.4 L1106.2 586.9 L1100.0 586.6 L1093.8 586.4 L1087.5 586.5 L1081.2 586.9 " fill="none" stroke="#8a6f4796" stroke-width="0.8" stroke-linecap="round"/>
<path d="M193.7 87.2 L189.1 87.5 L187.5 87.6 L181.2 88.1 L175.0 88.5 L168.8 88.9 L162.5 89.3 L156.2 89.8 L150.0 90.3 L143.8 91.2 L137.5 92.6 L134.4 93.8 L131.2 95.3 L125.0 99.7 L124.7 100.0 L120.7 106.2 L118.7 111.6 L118.5 112.5 L117.9 118.8 L117.9 125.0 L118.5 131.2 L118.7 133.6 L119.4 137.5 L120.3 143.8 L121.1 150.0 L121.9 156.2 L122.5 162.5 L123.0 168.8 L123.4 175.0 L123.6 181.2 L123.8 187.5 L123.8 193.8 L123.8 200.0 L123.7 206.2 L123.4 212.5 L123.1 218.8 L122.7 225.0 L122.1 231.2 L121.5 237.5 L120.8 243.8 L120.0 250.0 L119.1 256.2 L118.7 258.4 L118.2 262.5 L117.4 268.8 L116.5 275.0 L115.5 281.2 L114.5 287.5 L113.4 293.8 L112.5 299.1 L112.4 300.0 L111.5 306.2 L110.6 312.5 L109.7 318.8 L108.7 325.0 L107.7 331.2 L106.7 337.5 L106.2 340.3 L105.8 343.8 L104.9 350.0 L104.0 356.2 L103.0 362.5 L102.0 368.8 L100.8 375.0 L100.0 379.0 L99.6 381.2 L98.6 387.5 L97.5 393.8 L96.3 400.0 L95.1 406.2 L93.9 412.5 L93.8 413.2 L93.0 418.8 L92.2 425.0 L91.6 431.2 L91.2 437.5 L91.1 443.8 L91.2 450.0 L91.7 456.2 L92.3 462.5 L93.2 468.8 L93.8 471.8 L94.4 475.0 L95.8 481.2 L97.2 487.5 L98.6 493.8 L99.8 500.0 L100.0 500.8 L101.3 506.3 L102.5 512.5 L103.6 518.8 L104.5 525.0 L105.2 531.2 L105.8 537.5 L106.1 543.8 L106.2 546.9 L106.4 550.0 L106.5 556.2 L106.4 562.5 L106.2 568.4 L106.2 568.8 L106.0 575.0 L105.7 581.2 L105.3 587.5 L105.0 593.8 L104.6 600.0 L104.3 606.2 L104.1 612.5 L104.0 618.8 L104.0 625.0 L104.2 631.2 L104.5 637.5 L105.0 643.8 L105.6 650.0 L106.2 656.2 L106.2 656.4 L107.4 662.5 L108.8 668.8 L110.6 675.0 L112.5 680.5 L112.8 681.2 L116.3 687.5 L118.7 691.0 L121.2 693.8 L125.0 697.3 L128.9 700.0 L131.2 701.3 L137.5 703.9 L143.8 705.6 L147.3 706.2 L150.0 706.6 L156.2 707.2 L162.5 707.7 L168.8 708.1 L175.0 708.6 L181.2 709.0 L187.5 709.5 L193.7 710.0 L200.0 710.4 L206.2 710.9 L212.5 711.4 L218.8 711.9 L225.0 712.4 L225.9 712.5 L231.2 712.9 L237.5 713.3 L243.8 713.7 L250.0 714.1 L256.2 714.4 L262.5 714.6 L268.8 714.5 L275.0 713.9 L281.2 712.8 L282.2 712.5 L287.5 710.5 L293.8 707.2 L295.1 706.2 L300.0 702.0 L301.9 700.0 L306.2 694.4 L306.7 693.8 L310.3 687.5 L312.5 683.3 L313.4 681.2 L316.0 675.0 L318.6 668.8 L318.6 668.8 L320.9 662.5 L323.2 656.2 L325.0 651.8 L325.6 650.0 L327.9 643.8 L330.3 637.5 L331.2 635.0 L332.6 631.2 L334.9 625.0 L337.3 618.8 L337.5 618.2 L339.5 612.5 L341.8 606.2 L343.8 601.3 L344.2 600.0 L346.4 593.8 L348.8 587.5 L350.0 584.3 L351.1 581.2 L353.3 575.0 L355.8 568.8 L356.3 567.5 L358.0 562.5 L360.3 556.2 L362.5 550.8 L362.8 550.0 L365.0 543.8 L367.5 537.5 L368.8 534.5 L370.0 531.2 L372.4 525.0 L375.0 519.2 L375.2 518.8 L377.9 512.5 L380.9 506.3 L381.2 505.7 L384.1 500.0 L387.5 494.0 L391.3 487.5 L393.8 483.6 L395.2 481.2 L399.3 475.0 L400.0 473.9 L403.4 468.8 L406.2 464.0 L407.2 462.5 L410.7 456.2 L412.5 452.2 L413.5 450.0 L415.7 443.8 L417.2 437.5 L418.1 431.2 L418.7 425.0 L418.8 424.1 L419.0 418.8 L419.0 412.5 L418.9 406.2 L418.8 400.0 L418.8 398.8 L418.6 393.8 L418.4 387.5 L418.2 381.2 L417.9 375.0 L417.7 368.8 L417.4 362.5 L417.2 356.2 L416.9 350.0 L416.7 343.8 L416.4 337.5 L416.2 331.2 L416.0 325.0 L415.8 318.8 L415.6 312.5 L415.4 306.2 L415.3 300.0 L415.0 293.8 L414.8 287.5 L414.6 281.2 L414.3 275.0 L414.1 268.8 L413.8 262.5 L413.6 256.2 L413.3 250.0 L413.1 243.8 L412.9 237.5 L412.7 231.2 L412.5 226.4 L412.5 225.0 L412.3 218.8 L412.0 212.5 L411.8 206.2 L411.4 200.0 L410.8 193.8 L409.8 187.5 L408.1 181.2 L406.2 176.5 L405.6 175.0 L402.3 168.8 L400.0 165.5 L398.0 162.5 L393.8 157.5 L392.7 156.2 L387.5 150.9 L386.7 150.0 L381.2 144.9 L380.1 143.8 L375.0 139.3 L373.1 137.5 L368.8 133.8 L365.9 131.2 L362.5 128.3 L358.7 125.0 L356.3 123.0 L351.3 118.8 L350.0 117.8 L343.8 112.8 L337.5 108.3 L334.6 106.2 L331.2 104.1 L325.0 100.1 L318.8 96.8 L312.7 93.8 L306.2 91.3 L300.0 89.2 L294.2 87.5 L293.8 87.4 L287.5 86.3 L281.2 85.4 L275.0 84.8 L268.8 84.4 L262.5 84.2 L256.2 84.2 L250.0 84.3 L243.8 84.5 L237.5 84.7 L231.2 85.0 L225.0 85.3 L218.8 85.7 L212.5 86.1 L206.2 86.4 L200.0 86.8 L193.7 87.2 " fill="none" stroke="#8a6f4796" stroke-width="0.8" stroke-linecap="round"/>
<path d="M1087.5 617.3 L1083.3 618.8 L1081.2 619.7 L1075.0 624.0 L1073.9 625.0 L1068.8 631.2 L1065.5 637.5 L1062.9 643.8 L1062.5 644.8 L1061.0 650.0 L1059.4 656.2 L1058.0 662.5 L1056.5 668.8 L1056.2 669.9 L1055.2 675.0 L1054.0 681.2 L1052.6 687.5 L1051.3 693.8 L1050.0 699.1 L1049.8 700.0 L1048.6 706.2 L1047.3 712.5 L1045.9 718.8 L1044.5 725.0 L1043.8 728.3 L1043.2 731.2 L1041.9 737.5 L1040.6 743.8 L1039.3 750.0 L1037.8 756.2 L1037.5 757.7 L1036.6 762.5 L1035.3 768.8 L1034.0 775.0 L1032.6 781.2 L1031.2 787.3 L1031.2 787.5 L1030.0 793.8 L1028.7 800.0 L1027.4 806.2 L1026.0 812.5 L1025.0 816.8 L1024.6 818.8 L1023.4 825.0 L1022.1 831.2 L1020.7 837.5 L1019.3 843.8 L1018.8 846.0 L1018.0 850.0 L1016.7 856.2 L1015.4 862.5 L1014.1 868.8 L1013.1 875.0 L1012.7 881.2 L1013.5 887.5 L1015.7 893.8 L1018.8 898.1 L1020.5 900.0 L1025.0 903.0 L1031.2 906.1 L1031.8 906.2 L1037.5 907.6 L1043.8 908.6 L1050.0 909.2 L1056.2 909.6 L1062.5 909.7 L1068.8 909.8 L1075.0 909.9 L1081.2 910.0 L1087.5 910.0 L1093.8 910.0 L1100.0 910.0 L1106.2 910.0 L1112.5 910.0 L1118.8 910.0 L1125.0 910.0 L1131.2 910.0 L1137.5 910.0 L1143.8 910.0 L1150.0 910.0 L1156.2 910.0 L1162.5 910.0 L1168.8 910.0 L1175.0 910.0 L1181.2 910.0 L1187.5 910.0 L1193.8 910.0 L1200.0 910.0 L1206.2 910.0 L1212.5 910.0 L1218.8 910.0 L1225.0 910.0 L1231.2 910.0 L1237.5 910.0 L1243.8 910.0 L1250.0 909.7 L1256.2 909.0 L1262.5 907.7 L1266.4 906.2 L1268.8 904.9 L1274.1 900.0 L1275.0 898.4 L1276.8 893.8 L1277.6 887.5 L1277.4 881.2 L1276.6 875.0 L1275.4 868.8 L1275.0 866.6 L1274.0 862.5 L1272.6 856.2 L1271.4 850.0 L1270.3 843.8 L1269.4 837.5 L1268.8 832.7 L1268.5 831.2 L1267.6 825.0 L1266.9 818.8 L1266.3 812.5 L1265.9 806.2 L1265.6 800.0 L1265.4 793.8 L1265.3 787.5 L1265.3 781.2 L1265.4 775.0 L1265.5 768.8 L1265.8 762.5 L1266.1 756.2 L1266.5 750.0 L1266.9 743.8 L1267.5 737.5 L1268.1 731.2 L1268.8 725.8 L1268.8 725.0 L1269.5 718.8 L1270.3 712.5 L1271.2 706.2 L1272.2 700.0 L1273.3 693.8 L1274.6 687.5 L1275.0 685.4 L1275.7 681.2 L1276.6 675.0 L1277.3 668.8 L1277.5 662.5 L1277.0 656.2 L1275.5 650.0 L1275.0 648.8 L1272.1 643.8 L1268.8 640.0 L1265.6 637.5 L1262.5 635.7 L1256.2 633.2 L1250.0 631.5 L1248.5 631.2 L1243.8 630.5 L1237.5 629.8 L1231.2 629.2 L1225.0 628.5 L1218.8 627.8 L1212.5 627.0 L1206.2 626.3 L1200.0 625.5 L1196.3 625.0 L1193.8 624.7 L1187.5 624.1 L1181.2 623.4 L1175.0 622.7 L1168.8 622.0 L1162.5 621.3 L1156.2 620.5 L1150.0 619.8 L1143.8 619.0 L1141.7 618.8 L1137.5 618.3 L1131.2 617.7 L1125.0 617.0 L1118.8 616.4 L1112.5 615.8 L1106.2 615.4 L1100.0 615.4 L1093.8 616.0 L1087.5 617.3 " fill="none" stroke="#8a6f4796" stroke-width="0.8" stroke-linecap="round"/>
<path d="M842.6 592.6 L690.2 680.9 L622.7 752.3 L639.8 807.0 L650.0 842.2 L653.1 857.8 L657.0 871.1 L661.7 882.0 L665.6 895.3 L668.8 910.9 L673.0 925.4 L678.5 938.7 L688.3 945.3 L702.3 945.3 L710.2 944.5 L711.7 943.0 L723.4 942.2 L745.3 942.2 L757.0 941.4 L758.6 939.8 L782.8 939.1 L829.7 939.1 L853.9 939.8 L855.5 941.4 L878.9 942.2 L924.2 942.2 L947.7 943.0 L949.2 944.5 L954.7 945.3 L964.1 945.3 L969.9 944.1 L972.3 941.8 L975.0 929.7 L978.1 907.8 L981.2 893.0 L984.4 885.2 L986.7 874.2 L988.3 860.2 L990.6 849.2 L993.8 841.4 L996.1 830.5 L997.7 816.4 L1000.0 805.5 L1003.1 797.7 L1006.2 782.8 L1009.4 760.9 L1012.5 746.1 L1015.6 738.3 L1018.0 727.3 L1019.5 713.3 L1021.9 702.3 L1025.0 694.5 L1032.0 663.3 L1043.0 608.6 L1044.9 578.5 L1037.9 573.0 L1028.1 569.5 L1015.6 568.0 L1005.5 565.6 L997.7 562.5 L990.6 560.9 L984.4 560.9 L980.5 560.2 L978.9 558.6 L975.0 557.8 L968.8 557.8 L964.8 557.0 L963.3 555.5 L959.4 554.7 L953.1 554.7 L946.1 553.1 L938.3 550.0 L930.5 548.4 L922.7 548.4 Z" fill="none" stroke="#4a38225a" stroke-width="0.9" stroke-linecap="round" stroke-dasharray="5.0 4.0"/>
<path d="M403.5 527.0 L366.8 627.7 L346.9 680.5 L343.8 685.2 L341.4 691.4 L339.8 699.2 L337.5 705.5 L334.4 710.2 L332.0 716.4 L330.5 724.2 L328.1 730.5 L325.0 735.2 L323.8 739.5 L324.6 743.4 L378.5 735.5 L485.5 716.0 L510.9 649.2 L454.7 535.2 L425.4 477.7 L423.0 477.0 Z" fill="none" stroke="#4a38225a" stroke-width="0.9" stroke-linecap="round" stroke-dasharray="5.0 4.0"/>
<path d="M736.7 49.2 L735.2 50.8 L730.9 52.0 L723.8 52.7 L721.1 56.3 L722.7 62.5 L725.8 69.5 L730.5 77.3 L739.1 98.4 L751.6 132.8 L760.2 153.9 L764.8 161.7 L805.5 260.9 L882.0 451.6 L927.0 548.0 L940.2 550.4 L947.7 552.3 L949.2 553.9 L953.1 554.7 L959.4 554.7 L963.3 555.5 L964.8 557.0 L968.8 557.8 L975.0 557.8 L978.9 558.6 L980.5 560.2 L984.4 560.9 L990.6 560.9 L997.7 562.5 L1005.5 565.6 L1015.6 568.0 L1028.1 569.5 L1035.5 567.6 L1037.9 562.1 L1039.8 550.0 L1041.4 531.2 L1046.1 502.3 L1053.9 463.3 L1057.8 439.1 L1057.8 429.7 L1062.5 400.8 L1071.9 352.3 L1076.6 323.4 L1076.6 314.1 L1080.5 289.8 L1088.3 250.8 L1092.2 226.6 L1092.2 217.2 L1096.9 188.3 L1106.2 139.8 L1112.5 101.6 L1115.6 73.4 L1118.0 58.6 L1119.5 57.0 L1109.0 55.9 L1086.3 55.1 L1074.2 53.9 L1072.7 52.3 L1058.6 51.6 L1032.0 51.6 L1018.0 50.8 L1016.4 49.2 L946.1 48.4 L807.0 48.4 Z" fill="none" stroke="#4a38225a" stroke-width="0.9" stroke-linecap="round" stroke-dasharray="5.0 4.0"/>
<path d="M705.5 52.3 L703.9 53.9 L697.7 54.7 L686.7 54.7 L680.5 55.5 L678.9 57.0 L665.6 58.6 L640.6 60.2 L627.3 61.7 L625.8 63.3 L611.7 68.0 L585.2 75.8 L561.7 83.6 L541.4 91.4 L528.9 95.3 L524.2 95.3 L521.1 96.1 L519.5 97.7 L507.8 101.6 L485.9 107.8 L462.5 115.6 L437.5 125.0 L423.4 129.7 L420.3 129.7 L416.8 130.9 L412.9 133.2 L414.1 219.5 L420.3 389.8 L451.6 532.0 L507.8 646.1 L537.1 704.3 L539.5 706.6 L549.2 709.4 L566.4 712.5 L575.8 714.8 L577.3 716.4 L581.2 717.2 L587.5 717.2 L594.5 718.8 L602.3 721.9 L609.4 723.4 L615.6 723.4 L620.3 721.9 L623.4 718.8 L628.9 715.6 L636.7 712.5 L646.1 707.0 L657.0 699.2 L677.3 687.5 L707.0 671.9 L727.3 660.2 L738.3 652.3 L753.1 643.8 L771.9 634.4 L786.7 625.8 L797.7 618.0 L818.0 606.2 L847.7 590.6 L877.0 573.8 L905.9 555.9 L871.1 425.0 L772.7 181.2 L722.3 57.4 L719.9 53.5 L715.6 51.6 L709.4 51.6 Z" fill="none" stroke="#4a38225a" stroke-width="0.9" stroke-linecap="round" stroke-dasharray="5.0 4.0"/>
<path d="M524.2 708.6 L522.7 710.2 L514.1 711.7 L498.4 713.3 L489.8 714.8 L488.3 716.4 L484.4 717.2 L478.1 717.2 L474.2 718.0 L472.7 719.5 L468.0 720.3 L460.2 720.3 L455.5 721.1 L453.9 722.7 L449.2 723.4 L441.4 723.4 L436.7 724.2 L435.2 725.8 L426.6 727.3 L410.9 728.9 L402.3 730.5 L400.8 732.0 L396.9 732.8 L390.6 732.8 L386.7 733.6 L385.2 735.2 L380.5 735.9 L372.7 735.9 L368.0 736.7 L366.4 738.3 L357.8 739.8 L342.2 741.4 L333.6 743.0 L332.0 744.5 L328.9 745.3 L324.2 745.3 L320.7 746.5 L318.4 748.8 L316.4 776.6 L314.8 829.7 L313.3 857.0 L311.7 858.6 L311.3 877.0 L312.1 912.1 L323.4 930.5 L345.3 932.0 L357.0 933.6 L358.6 935.2 L365.6 935.9 L378.1 935.9 L385.2 936.7 L386.7 938.3 L393.8 939.1 L406.2 939.1 L413.3 939.8 L414.8 941.4 L421.9 942.2 L434.4 942.2 L441.4 943.0 L443.0 944.5 L450.0 945.3 L462.5 945.3 L469.5 946.1 L471.1 947.7 L479.7 948.4 L495.3 948.4 L503.9 949.2 L505.5 950.8 L530.5 951.6 L578.9 951.6 L603.9 950.8 L605.5 949.2 L617.2 948.4 L639.1 948.4 L650.8 947.7 L652.3 946.1 L659.8 944.9 L673.0 944.1 L671.9 918.8 L656.2 868.8 L648.4 841.4 L648.4 836.7 L646.1 828.9 L641.4 818.0 L635.9 799.2 L629.7 772.7 L624.2 753.9 L619.5 743.0 L617.2 735.2 L617.2 730.5 L613.7 726.2 L606.6 722.3 L596.9 719.5 L584.4 718.0 L577.3 716.4 L575.8 714.8 L572.7 714.1 L568.0 714.1 L561.7 712.5 L553.9 709.4 L543.8 707.8 L531.2 707.8 Z" fill="none" stroke="#4a38225a" stroke-width="0.9" stroke-linecap="round" stroke-dasharray="5.0 4.0"/>
<path d="M1048.0 587.9 L1044.1 598.0 L1040.6 614.1 L1037.5 635.9 L1034.4 650.8 L1031.3 658.6 L1028.9 669.5 L1027.3 683.6 L1025.0 694.5 L1021.9 702.3 L1019.5 713.3 L1018.0 727.3 L1015.6 738.3 L1012.5 746.1 L1009.4 760.9 L1006.2 782.8 L1003.1 797.7 L1000.0 805.5 L997.7 816.4 L996.1 830.5 L993.8 841.4 L990.6 849.2 L988.3 860.2 L986.7 874.2 L982.0 896.9 L974.2 928.1 L983.2 944.1 L1009.0 944.9 L1022.7 946.1 L1024.2 947.7 L1093.8 948.4 L1231.2 948.4 L1300.8 949.2 L1302.3 950.8 L1310.2 951.6 L1324.2 951.6 L1331.6 948.0 L1332.4 941.0 L1326.6 915.6 L1314.1 871.9 L1307.0 839.1 L1305.5 817.2 L1303.9 805.5 L1302.3 803.9 L1302.3 784.4 L1303.9 746.9 L1309.4 709.4 L1318.8 671.9 L1323.4 645.3 L1323.4 629.7 L1324.2 620.3 L1325.8 617.2 L1325.4 614.5 L1323.0 612.1 L1315.6 610.9 L1303.1 610.9 L1296.1 610.2 L1294.5 608.6 L1287.5 607.8 L1275.0 607.8 L1268.0 607.0 L1266.4 605.5 L1259.4 604.7 L1246.9 604.7 L1239.8 603.9 L1238.3 602.3 L1225.0 600.8 L1200.0 599.2 L1186.7 597.7 L1185.2 596.1 L1178.1 595.3 L1165.6 595.3 L1158.6 594.5 L1157.0 593.0 L1150.0 592.2 L1137.5 592.2 L1130.5 591.4 L1128.9 589.8 L1121.9 589.1 L1109.4 589.1 L1102.3 588.3 L1100.8 586.7 L1087.5 585.2 L1062.5 583.6 Z" fill="none" stroke="#4a38225a" stroke-width="0.9" stroke-linecap="round" stroke-dasharray="5.0 4.0"/>
<path d="M1305.5 49.2 L1303.9 50.8 L1292.2 51.6 L1270.3 51.6 L1258.6 52.3 L1257.0 53.9 L1222.7 54.7 L1155.5 54.7 L1120.7 55.9 L1118.4 58.2 L1115.6 73.4 L1112.5 101.6 L1106.2 139.8 L1096.9 188.3 L1092.2 217.2 L1092.2 226.6 L1088.3 250.8 L1080.5 289.8 L1076.6 314.1 L1076.6 323.4 L1075.0 333.6 L1071.9 344.5 L1061.7 405.5 L1044.5 516.4 L1039.5 574.6 L1046.5 580.1 L1062.5 583.6 L1087.5 585.2 L1100.8 586.7 L1102.3 588.3 L1109.4 589.1 L1121.9 589.1 L1128.9 589.8 L1130.5 591.4 L1137.5 592.2 L1150.0 592.2 L1157.0 593.0 L1158.6 594.5 L1165.6 595.3 L1178.1 595.3 L1185.2 596.1 L1186.7 597.7 L1200.0 599.2 L1225.0 600.8 L1238.3 602.3 L1239.8 603.9 L1246.9 604.7 L1259.4 604.7 L1266.4 605.5 L1268.0 607.0 L1275.0 607.8 L1287.5 607.8 L1294.5 608.6 L1296.1 610.2 L1303.1 610.9 L1315.6 610.9 L1322.7 611.7 L1324.2 613.3 L1324.6 600.4 L1323.8 573.0 L1324.2 558.6 L1325.8 557.0 L1328.1 536.7 L1331.2 497.7 L1333.6 477.3 L1335.2 475.8 L1335.9 468.8 L1335.9 456.2 L1336.7 449.2 L1338.3 447.7 L1338.3 405.5 L1336.7 322.7 L1332.0 262.5 L1324.2 225.0 L1320.3 192.2 L1320.3 164.1 L1321.1 149.2 L1322.7 147.7 L1323.4 139.8 L1323.4 125.8 L1324.2 118.0 L1325.8 116.4 L1326.6 108.6 L1326.6 94.5 L1327.3 86.7 L1328.9 85.2 L1329.7 75.8 L1329.7 58.6 L1323.8 49.6 L1312.1 48.8 Z" fill="none" stroke="#4a38225a" stroke-width="0.9" stroke-linecap="round" stroke-dasharray="5.0 4.0"/>
<path d="M221.1 49.2 L219.5 50.8 L209.4 51.6 L190.6 51.6 L180.5 52.3 L178.9 53.9 L164.8 54.7 L138.3 54.7 L124.2 55.5 L122.7 57.0 L111.3 58.2 L90.2 59.0 L78.9 71.9 L77.3 96.9 L79.7 121.1 L85.9 144.5 L89.1 175.0 L89.1 212.5 L88.3 232.0 L86.7 233.6 L85.9 239.1 L85.9 248.4 L82.8 268.0 L76.6 297.7 L71.9 328.1 L68.8 359.4 L63.3 390.6 L55.5 421.9 L52.3 446.9 L53.9 465.6 L59.4 489.8 L68.8 519.5 L73.4 543.0 L73.4 560.2 L71.9 576.6 L68.8 592.2 L67.2 612.5 L67.2 637.5 L71.5 670.7 L80.1 712.1 L93.8 732.8 L112.5 732.8 L122.7 733.6 L124.2 735.2 L134.4 735.9 L153.1 735.9 L163.3 736.7 L164.8 738.3 L175.8 739.1 L196.1 739.1 L207.0 739.8 L208.6 741.4 L218.8 742.2 L237.5 742.2 L247.7 743.0 L249.2 744.5 L260.2 745.3 L280.5 745.3 L291.4 746.1 L293.0 747.7 L300.0 748.4 L312.5 748.4 L321.5 743.4 L327.0 733.2 L330.5 724.2 L332.0 716.4 L334.4 710.2 L337.5 705.5 L339.8 699.2 L341.4 691.4 L343.8 685.2 L346.9 680.5 L354.7 659.4 L367.2 621.9 L385.9 571.1 L410.9 507.0 L420.3 389.8 L414.1 219.5 L386.3 112.9 L337.1 69.9 L289.8 48.4 L244.5 48.4 Z" fill="none" stroke="#4a38225a" stroke-width="0.9" stroke-linecap="round" stroke-dasharray="5.0 4.0"/>
<path d="M84.0 755.1 L83.2 799.6 L82.0 822.7 L80.5 824.2 L79.7 831.2 L79.7 843.8 L76.6 864.8 L70.3 894.5 L66.8 919.9 L66.0 941.0 L67.2 951.6 L70.3 951.6 L72.7 950.8 L74.2 949.2 L82.8 948.4 L98.4 948.4 L107.0 947.7 L108.6 946.1 L120.3 944.5 L142.2 943.0 L153.9 941.4 L155.5 939.8 L160.2 939.1 L168.0 939.1 L172.7 938.3 L174.2 936.7 L178.1 935.9 L184.4 935.9 L188.3 935.2 L189.8 933.6 L194.5 932.8 L202.3 932.8 L207.0 932.0 L208.6 930.5 L214.8 929.7 L225.8 929.7 L232.0 928.9 L233.6 927.3 L250.8 926.6 L283.6 926.6 L300.8 927.3 L302.3 928.9 L304.7 929.7 L307.8 929.7 L310.9 884.4 L314.1 793.8 L310.2 748.4 L299.2 748.4 L293.0 747.7 L291.4 746.1 L280.5 745.3 L260.2 745.3 L249.2 744.5 L247.7 743.0 L237.5 742.2 L218.8 742.2 L208.6 741.4 L207.0 739.8 L196.1 739.1 L175.8 739.1 L164.8 738.3 L163.3 736.7 L153.1 735.9 L134.4 735.9 L124.2 735.2 L122.7 733.6 L112.5 732.8 L93.8 732.8 Z" fill="none" stroke="#4a38225a" stroke-width="0.9" stroke-linecap="round" stroke-dasharray="5.0 4.0"/>
<path d="M318.0 51.6 L322.7 57.8 L346.1 78.9 L388.3 114.8 L410.9 132.8 L414.1 132.8 L430.5 127.3 L460.2 116.4 L478.9 110.2 L486.7 108.6 L498.4 104.7 L514.1 98.4 L524.2 95.3 L528.9 95.3 L532.0 94.5 L533.6 93.0 L535.9 92.2 L539.1 92.2 L541.4 91.4 L543.0 89.8 L545.3 89.1 L548.4 89.1 L550.8 88.3 L552.3 86.7 L554.7 85.9 L557.8 85.9 L560.2 85.2 L561.7 83.6 L564.1 82.8 L567.2 82.8 L569.5 82.0 L571.1 80.5 L573.4 79.7 L576.6 79.7 L578.9 78.9 L580.5 77.3 L592.6 73.0 L615.2 66.0 L617.6 62.1 L599.6 61.3 L589.8 60.2 L588.3 58.6 L573.4 57.8 L545.3 57.8 L530.5 57.0 L528.9 55.5 L477.3 53.9 L375.8 52.3 L324.2 50.8 L322.7 49.2 L320.3 48.4 L317.2 48.4 Z" fill="none" stroke="#4a38225a" stroke-width="0.9" stroke-linecap="round" stroke-dasharray="5.0 4.0"/>
<path d="M221.1 49.2 L219.5 50.8 L209.4 51.6 L190.6 51.6 L180.5 52.3 L178.9 53.9 L153.9 55.5 L105.5 57.0 L80.1 61.3 L77.7 68.4 L76.6 81.2 L76.6 100.0 L79.7 121.1 L85.9 144.5 L89.1 175.0 L89.1 212.5 L88.3 232.0 L86.7 233.6 L85.9 239.1 L85.9 248.4 L82.8 268.0 L76.6 297.7 L71.9 328.1 L68.8 359.4 L63.3 390.6 L55.5 421.9 L52.3 446.9 L53.9 465.6 L59.4 489.8 L68.8 519.5 L73.4 543.0 L73.4 560.2 L71.9 576.6 L68.8 592.2 L67.2 612.5 L67.2 637.5 L71.1 668.0 L78.9 703.9 L82.8 746.9 L82.8 796.9 L82.0 822.7 L80.5 824.2 L79.7 831.2 L79.7 843.8 L76.6 864.8 L70.3 894.5 L66.8 919.9 L66.0 941.0 L67.2 951.6 L70.3 951.6 L72.7 950.8 L74.2 949.2 L82.8 948.4 L98.4 948.4 L107.0 947.7 L108.6 946.1 L120.3 944.5 L142.2 943.0 L153.9 941.4 L155.5 939.8 L160.2 939.1 L168.0 939.1 L172.7 938.3 L174.2 936.7 L178.1 935.9 L184.4 935.9 L188.3 935.2 L189.8 933.6 L194.5 932.8 L202.3 932.8 L207.0 932.0 L208.6 930.5 L214.8 929.7 L225.8 929.7 L232.0 928.9 L233.6 927.3 L250.8 926.6 L283.6 926.6 L300.8 927.3 L302.3 928.9 L309.4 929.7 L321.9 929.7 L328.9 930.5 L330.5 932.0 L337.5 932.8 L350.0 932.8 L357.0 933.6 L358.6 935.2 L365.6 935.9 L378.1 935.9 L385.2 936.7 L386.7 938.3 L393.8 939.1 L406.2 939.1 L413.3 939.8 L414.8 941.4 L428.9 943.0 L455.5 944.5 L469.5 946.1 L471.1 947.7 L479.7 948.4 L495.3 948.4 L503.9 949.2 L505.5 950.8 L530.5 951.6 L578.9 951.6 L603.9 950.8 L605.5 949.2 L632.0 947.7 L683.6 946.1 L710.2 944.5 L711.7 943.0 L723.4 942.2 L745.3 942.2 L757.0 941.4 L758.6 939.8 L806.2 939.8 L900.0 941.4 L947.7 943.0 L949.2 944.5 L968.0 945.3 L1003.9 945.3 L1022.7 946.1 L1024.2 947.7 L1093.8 948.4 L1231.2 948.4 L1300.8 949.2 L1302.3 950.8 L1310.2 951.6 L1324.2 951.6 L1331.6 948.0 L1332.4 941.0 L1326.6 915.6 L1314.1 871.9 L1307.0 839.1 L1305.5 817.2 L1303.9 805.5 L1302.3 803.9 L1303.1 778.9 L1306.2 730.5 L1311.7 693.0 L1319.5 666.4 L1323.4 645.3 L1323.4 629.7 L1324.2 621.1 L1325.8 619.5 L1325.8 603.9 L1324.2 574.2 L1324.2 558.6 L1325.8 557.0 L1328.1 536.7 L1331.2 497.7 L1333.6 477.3 L1335.2 475.8 L1335.9 468.8 L1335.9 456.2 L1336.7 449.2 L1338.3 447.7 L1338.3 405.5 L1336.7 322.7 L1332.0 262.5 L1324.2 225.0 L1320.3 192.2 L1320.3 164.1 L1321.1 149.2 L1322.7 147.7 L1323.4 139.8 L1323.4 125.8 L1324.2 118.0 L1325.8 116.4 L1326.6 108.6 L1326.6 94.5 L1327.3 86.7 L1328.9 85.2 L1329.3 75.4 L1328.5 57.4 L1322.7 48.4 L1311.7 48.4 L1305.5 49.2 L1303.9 50.8 L1292.2 51.6 L1270.3 51.6 L1258.6 52.3 L1257.0 53.9 L1210.9 54.7 L1120.3 54.7 L1074.2 53.9 L1072.7 52.3 L1058.6 51.6 L1032.0 51.6 L1018.0 50.8 L1016.4 49.2 L946.1 48.4 L807.0 48.4 L736.7 49.2 L735.2 50.8 L727.3 51.6 L713.3 51.6 L705.5 52.3 L703.9 53.9 L689.8 55.5 L663.3 57.0 L649.2 58.6 L647.7 60.2 L632.8 60.9 L604.7 60.9 L589.8 60.2 L588.3 58.6 L573.4 57.8 L545.3 57.8 L530.5 57.0 L528.9 55.5 L506.2 54.7 L462.5 54.7 L439.8 53.9 L438.3 52.3 L383.6 50.8 L275.8 49.2 Z" fill="none" stroke="#4a3822" stroke-width="2.2" stroke-linecap="round"/>
<path d="M221.1 49.2 L219.5 50.8 L209.4 51.6 L190.6 51.6 L180.5 52.3 L178.9 53.9 L153.9 55.5 L105.5 57.0 L80.1 61.3 L77.7 68.4 L76.6 81.2 L76.6 100.0 L79.7 121.1 L85.9 144.5 L89.1 175.0 L89.1 212.5 L88.3 232.0 L86.7 233.6 L85.9 239.1 L85.9 248.4 L82.8 268.0 L76.6 297.7 L71.9 328.1 L68.8 359.4 L63.3 390.6 L55.5 421.9 L52.3 446.9 L53.9 465.6 L59.4 489.8 L68.8 519.5 L73.4 543.0 L73.4 560.2 L71.9 576.6 L68.8 592.2 L67.2 612.5 L67.2 637.5 L71.1 668.0 L78.9 703.9 L82.8 746.9 L82.8 796.9 L82.0 822.7 L80.5 824.2 L79.7 831.2 L79.7 843.8 L76.6 864.8 L70.3 894.5 L66.8 919.9 L66.0 941.0 L67.2 951.6 L70.3 951.6 L72.7 950.8 L74.2 949.2 L82.8 948.4 L98.4 948.4 L107.0 947.7 L108.6 946.1 L120.3 944.5 L142.2 943.0 L153.9 941.4 L155.5 939.8 L160.2 939.1 L168.0 939.1 L172.7 938.3 L174.2 936.7 L178.1 935.9 L184.4 935.9 L188.3 935.2 L189.8 933.6 L194.5 932.8 L202.3 932.8 L207.0 932.0 L208.6 930.5 L214.8 929.7 L225.8 929.7 L232.0 928.9 L233.6 927.3 L250.8 926.6 L283.6 926.6 L300.8 927.3 L302.3 928.9 L309.4 929.7 L321.9 929.7 L328.9 930.5 L330.5 932.0 L337.5 932.8 L350.0 932.8 L357.0 933.6 L358.6 935.2 L365.6 935.9 L378.1 935.9 L385.2 936.7 L386.7 938.3 L393.8 939.1 L406.2 939.1 L413.3 939.8 L414.8 941.4 L428.9 943.0 L455.5 944.5 L469.5 946.1 L471.1 947.7 L479.7 948.4 L495.3 948.4 L503.9 949.2 L505.5 950.8 L530.5 951.6 L578.9 951.6 L603.9 950.8 L605.5 949.2 L632.0 947.7 L683.6 946.1 L710.2 944.5 L711.7 943.0 L723.4 942.2 L745.3 942.2 L757.0 941.4 L758.6 939.8 L806.2 939.8 L900.0 941.4 L947.7 943.0 L949.2 944.5 L968.0 945.3 L1003.9 945.3 L1022.7 946.1 L1024.2 947.7 L1093.8 948.4 L1231.2 948.4 L1300.8 949.2 L1302.3 950.8 L1310.2 951.6 L1324.2 951.6 L1331.6 948.0 L1332.4 941.0 L1326.6 915.6 L1314.1 871.9 L1307.0 839.1 L1305.5 817.2 L1303.9 805.5 L1302.3 803.9 L1303.1 778.9 L1306.2 730.5 L1311.7 693.0 L1319.5 666.4 L1323.4 645.3 L1323.4 629.7 L1324.2 621.1 L1325.8 619.5 L1325.8 603.9 L1324.2 574.2 L1324.2 558.6 L1325.8 557.0 L1328.1 536.7 L1331.2 497.7 L1333.6 477.3 L1335.2 475.8 L1335.9 468.8 L1335.9 456.2 L1336.7 449.2 L1338.3 447.7 L1338.3 405.5 L1336.7 322.7 L1332.0 262.5 L1324.2 225.0 L1320.3 192.2 L1320.3 164.1 L1321.1 149.2 L1322.7 147.7 L1323.4 139.8 L1323.4 125.8 L1324.2 118.0 L1325.8 116.4 L1326.6 108.6 L1326.6 94.5 L1327.3 86.7 L1328.9 85.2 L1329.3 75.4 L1328.5 57.4 L1322.7 48.4 L1311.7 48.4 L1305.5 49.2 L1303.9 50.8 L1292.2 51.6 L1270.3 51.6 L1258.6 52.3 L1257.0 53.9 L1210.9 54.7 L1120.3 54.7 L1074.2 53.9 L1072.7 52.3 L1058.6 51.6 L1032.0 51.6 L1018.0 50.8 L1016.4 49.2 L946.1 48.4 L807.0 48.4 L736.7 49.2 L735.2 50.8 L727.3 51.6 L713.3 51.6 L705.5 52.3 L703.9 53.9 L689.8 55.5 L663.3 57.0 L649.2 58.6 L647.7 60.2 L632.8 60.9 L604.7 60.9 L589.8 60.2 L588.3 58.6 L573.4 57.8 L545.3 57.8 L530.5 57.0 L528.9 55.5 L506.2 54.7 L462.5 54.7 L439.8 53.9 L438.3 52.3 L383.6 50.8 L275.8 49.2 Z" fill="none" stroke="#4a382246" stroke-width="5.5" stroke-linecap="round"/>
<path d="M845.7 763.8 Q1023.2 523.8 946.0 258.1" fill="none" stroke="#7a5a38aa" stroke-width="2.3"/>
<path d="M845.7 763.8 Q835.8 548.8 636.4 387.6" fill="none" stroke="#7a5a38aa" stroke-width="1.9"/>
<path d="M429.4 643.4 Q396.2 493.8 237.1 393.7" fill="none" stroke="#7a5a38aa" stroke-width="2.0"/>
<path d="M429.4 643.4 Q784.8 517.2 946.0 258.1" fill="none" stroke="#7a5a38aa" stroke-width="1.4"/>
<path d="M946.0 258.1 Q557.4 234.8 237.1 393.7" fill="none" stroke="#7a5a38aa" stroke-width="2.6"/>
<path d="M946.0 258.1 Q921.4 547.3 1160.5 781.3" fill="none" stroke="#7a5a38aa" stroke-width="2.6"/>
<path d="M636.4 387.6 Q799.2 651.9 1160.5 781.3" fill="none" stroke="#7a5a38aa" stroke-width="2.6"/>
<path d="M636.4 387.6 Q823.8 362.7 946.0 258.1" fill="none" stroke="#7a5a38aa" stroke-width="2.6"/>
<path d="M488.6 839.6 Q676.4 632.6 636.4 387.6" fill="none" stroke="#7a5a38aa" stroke-width="2.1"/>
<path d="M488.6 839.6 Q839.2 896.8 1160.5 781.3" fill="none" stroke="#7a5a38aa" stroke-width="1.9"/>
<path d="M1160.5 781.3 Q997.6 517.1 636.4 387.6" fill="none" stroke="#7a5a38aa" stroke-width="2.6"/>
<path d="M1160.5 781.3 Q1185.1 492.2 946.0 258.1" fill="none" stroke="#7a5a38aa" stroke-width="2.2"/>
<path d="M1205.2 343.1 Q1072.4 556.5 1160.5 781.3" fill="none" stroke="#7a5a38aa" stroke-width="2.3"/>
<path d="M1205.2 343.1 Q909.6 292.2 636.4 387.6" fill="none" stroke="#7a5a38aa" stroke-width="2.2"/>
<path d="M237.1 393.7 Q438.3 442.0 636.4 387.6" fill="none" stroke="#7a5a38aa" stroke-width="2.6"/>
<path d="M237.1 393.7 Q601.1 706.2 1160.5 781.3" fill="none" stroke="#7a5a38aa" stroke-width="2.6"/>
<path d="M192.1 840.7 Q327.2 623.0 237.1 393.7" fill="none" stroke="#7a5a38aa" stroke-width="2.5"/>
<path d="M192.1 840.7 Q528.4 671.3 636.4 387.6" fill="none" stroke="#7a5a38aa" stroke-width="2.4"/>
<path d="M453.7 82.5 Q655.6 233.6 946.0 258.1" fill="none" stroke="#7a5a38aa" stroke-width="1.8"/>
<path d="M453.7 82.5 Q468.2 258.5 636.4 387.6" fill="none" stroke="#7a5a38aa" stroke-width="1.6"/>
<text x="239.1" y="445.3" font-family="'DejaVu Serif',Georgia,serif" font-size="16.5" fill="#4a3822" text-anchor="middle" font-weight="bold" stroke="#e9dec4c8" stroke-width="2.5" paint-order="stroke" stroke-linejoin="round">crates/ctx2img-render</text>
<text x="239.1" y="423.9" font-family="'DejaVu Sans',Verdana,sans-serif" font-size="14.8" fill="#8a6f47" text-anchor="middle">▲</text>
<text x="1157.8" y="767.2" font-family="'DejaVu Serif',Georgia,serif" font-size="16.5" fill="#4a3822" text-anchor="middle" font-weight="bold" stroke="#e9dec4c8" stroke-width="2.5" paint-order="stroke" stroke-linejoin="round">crates/ctx2img-index</text>
<text x="1157.8" y="745.7" font-family="'DejaVu Sans',Verdana,sans-serif" font-size="14.8" fill="#8a6f47" text-anchor="middle">▲</text>
<text x="657.8" y="467.2" font-family="'DejaVu Serif',Georgia,serif" font-size="16.5" fill="#4a3822" text-anchor="middle" font-weight="bold" stroke="#e9dec4c8" stroke-width="2.5" paint-order="stroke" stroke-linejoin="round">crates/ctx2img-core</text>
<text x="935.9" y="204.7" font-family="'DejaVu Serif',Georgia,serif" font-size="16.5" fill="#4a3822" text-anchor="middle" font-weight="bold" stroke="#e9dec4c8" stroke-width="2.5" paint-order="stroke" stroke-linejoin="round">crates/ctx2img-cli</text>
<text x="1198.4" y="448.4" font-family="'DejaVu Serif',Georgia,serif" font-size="16.5" fill="#4a3822" text-anchor="middle" font-weight="bold" stroke="#e9dec4c8" stroke-width="2.5" paint-order="stroke" stroke-linejoin="round">crates/ctx2img-layout</text>
<text x="839.1" y="767.2" font-family="'DejaVu Serif',Georgia,serif" font-size="16.5" fill="#4a3822" text-anchor="middle" font-weight="bold" stroke="#e9dec4c8" stroke-width="2.5" paint-order="stroke" stroke-linejoin="round">/</text>
<text x="179.7" y="839.1" font-family="'DejaVu Serif',Georgia,serif" font-size="16.5" fill="#4a3822" text-anchor="middle" font-weight="bold" stroke="#e9dec4c8" stroke-width="2.5" paint-order="stroke" stroke-linejoin="round">docs</text>
<text x="526.6" y="829.7" font-family="'DejaVu Serif',Georgia,serif" font-size="16.5" fill="#4a3822" text-anchor="middle" font-weight="bold" stroke="#e9dec4c8" stroke-width="2.5" paint-order="stroke" stroke-linejoin="round">crates/ctx2img-eval</text>
<text x="435.9" y="651.6" font-family="'DejaVu Serif',Georgia,serif" font-size="16.5" fill="#4a3822" text-anchor="middle" font-weight="bold" stroke="#e9dec4c8" stroke-width="2.5" paint-order="stroke" stroke-linejoin="round">assets</text>
<text x="407.8" y="92.2" font-family="'DejaVu Serif',Georgia,serif" font-size="16.5" fill="#4a3822" text-anchor="middle" font-weight="bold" stroke="#e9dec4c8" stroke-width="2.5" paint-order="stroke" stroke-linejoin="round">skills</text>
<circle cx="839.1" cy="815.4" r="3.1" fill="#4a3822"/>
<circle cx="754.7" cy="731.0" r="2.3" fill="#4a3822"/>
<circle cx="923.4" cy="752.7" r="2.0" fill="#4a3822"/>
<circle cx="435.9" cy="673.0" r="3.1" fill="#4a3822"/>
<circle cx="398.4" cy="635.5" r="2.3" fill="#4a3822"/>
<circle cx="935.9" cy="248.4" r="3.1" fill="#4a3822"/>
<text x="935.9" y="262.0" font-family="'DejaVu Serif',Georgia,serif" font-size="11.0" fill="#4a3822" text-anchor="middle" stroke="#e9dec4be" stroke-width="2.5" paint-order="stroke" stroke-linejoin="round">providers.rs</text>
<circle cx="859.4" cy="171.9" r="2.3" fill="#4a3822"/>
<text x="859.4" y="184.6" font-family="'DejaVu Serif',Georgia,serif" font-size="11.0" fill="#4a3822" text-anchor="middle" stroke="#e9dec4be" stroke-width="2.5" paint-order="stroke" stroke-linejoin="round">ops.rs</text>
<circle cx="1012.5" cy="191.6" r="2.0" fill="#4a3822"/>
<circle cx="657.8" cy="533.3" r="3.1" fill="#4a3822"/>
<text x="657.8" y="546.8" font-family="'DejaVu Serif',Georgia,serif" font-size="11.0" fill="#4a3822" text-anchor="middle" stroke="#e9dec4be" stroke-width="2.5" paint-order="stroke" stroke-linejoin="round">types.rs</text>
<circle cx="542.2" cy="417.6" r="2.3" fill="#4a3822"/>
<text x="542.2" y="430.4" font-family="'DejaVu Serif',Georgia,serif" font-size="11.0" fill="#4a3822" text-anchor="middle" stroke="#e9dec4be" stroke-width="2.5" paint-order="stroke" stroke-linejoin="round">history.rs</text>
<circle cx="773.4" cy="447.4" r="2.0" fill="#4a3822"/>
<circle cx="526.6" cy="863.6" r="3.1" fill="#4a3822"/>
<circle cx="467.2" cy="804.2" r="2.3" fill="#4a3822"/>
<circle cx="585.9" cy="819.5" r="2.0" fill="#4a3822"/>
<circle cx="1157.8" cy="809.2" r="3.1" fill="#4a3822"/>
<text x="1157.8" y="822.7" font-family="'DejaVu Serif',Georgia,serif" font-size="11.0" fill="#4a3822" text-anchor="middle" stroke="#e9dec4be" stroke-width="2.5" paint-order="stroke" stroke-linejoin="round">handles.rs</text>
<circle cx="1084.4" cy="735.7" r="2.3" fill="#4a3822"/>
<text x="1084.4" y="748.4" font-family="'DejaVu Serif',Georgia,serif" font-size="11.0" fill="#4a3822" text-anchor="middle" stroke="#e9dec4be" stroke-width="2.5" paint-order="stroke" stroke-linejoin="round">cache.rs</text>
<circle cx="1231.2" cy="754.6" r="2.0" fill="#4a3822"/>
<circle cx="1198.4" cy="488.6" r="3.1" fill="#4a3822"/>
<text x="1198.4" y="502.1" font-family="'DejaVu Serif',Georgia,serif" font-size="11.0" fill="#4a3822" text-anchor="middle" stroke="#e9dec4be" stroke-width="2.5" paint-order="stroke" stroke-linejoin="round">lib.rs</text>
<circle cx="1128.1" cy="418.3" r="2.3" fill="#4a3822"/>
<text x="1128.1" y="431.0" font-family="'DejaVu Serif',Georgia,serif" font-size="11.0" fill="#4a3822" text-anchor="middle" stroke="#e9dec4be" stroke-width="2.5" paint-order="stroke" stroke-linejoin="round">grid.rs</text>
<circle cx="1268.8" cy="436.4" r="2.0" fill="#4a3822"/>
<circle cx="239.1" cy="498.0" r="3.1" fill="#4a3822"/>
<text x="239.1" y="511.5" font-family="'DejaVu Serif',Georgia,serif" font-size="11.0" fill="#4a3822" text-anchor="middle" stroke="#e9dec4be" stroke-width="2.5" paint-order="stroke" stroke-linejoin="round">display.rs</text>
<circle cx="146.9" cy="405.8" r="2.3" fill="#4a3822"/>
<text x="146.9" y="418.5" font-family="'DejaVu Serif',Georgia,serif" font-size="11.0" fill="#4a3822" text-anchor="middle" stroke="#e9dec4be" stroke-width="2.5" paint-order="stroke" stroke-linejoin="round">text.rs</text>
<circle cx="331.2" cy="429.5" r="2.0" fill="#4a3822"/>
<circle cx="179.7" cy="866.7" r="3.1" fill="#4a3822"/>
<circle cx="407.8" cy="102.9" r="3.1" fill="#4a3822"/>
<circle cx="46.4" cy="896.6" r="14.1" fill="#c6b18c" stroke="#4a3822" stroke-width="1.2"/>
<text x="46.4" y="919.2" font-family="'DejaVu Serif',Georgia,serif" font-size="10.5" fill="#4a3822d2" text-anchor="middle">anyhow</text>
<circle cx="210.6" cy="968.9" r="20.1" fill="#c6b18c" stroke="#4a3822" stroke-width="1.2"/>
<circle cx="1356.2" cy="210.4" r="16.5" fill="#c6b18c" stroke="#4a3822" stroke-width="1.2"/>
<text x="1356.2" y="235.3" font-family="'DejaVu Serif',Georgia,serif" font-size="10.5" fill="#4a3822d2" text-anchor="middle">ctx2img_layout</text>
<circle cx="50.3" cy="201.9" r="19.5" fill="#c6b18c" stroke="#4a3822" stroke-width="1.2"/>
<text x="50.3" y="229.9" font-family="'DejaVu Serif',Georgia,serif" font-size="10.5" fill="#4a3822d2" text-anchor="middle">rayon</text>
<text x="700.0" y="52.0" font-family="'DejaVu Serif',Georgia,serif" font-size="26.0" fill="#4a3822" text-anchor="middle" font-weight="bold" stroke="#e9dec4dc" stroke-width="2.5" paint-order="stroke" stroke-linejoin="round">The Realm of h5i-context2map</text>
<text x="28.0" y="975.0" font-family="'DejaVu Serif',Georgia,serif" font-size="12.0" fill="#4a3822c8" text-anchor="start">10 regions · 10.8k lines charted</text>
<path d="M1309.0 43.0 L1318.9 75.0 L1299.1 75.0 Z" fill="#4a3822"/>
<path d="M1326.4 62.6 L1314.1 78.6 L1303.9 71.4 Z" fill="#8a6f47"/>
<path d="M1353.8 75.0 L1309.0 82.0 L1309.0 68.0 Z" fill="#4a3822"/>
<path d="M1326.4 87.4 L1303.9 78.6 L1314.1 71.4 Z" fill="#8a6f47"/>
<path d="M1309.0 107.0 L1299.1 75.0 L1318.9 75.0 Z" fill="#4a3822"/>
<path d="M1291.6 87.4 L1303.9 71.4 L1314.1 78.6 Z" fill="#8a6f47"/>
<path d="M1264.2 75.0 L1309.0 68.0 L1309.0 82.0 Z" fill="#4a3822"/>
<path d="M1291.6 62.6 L1314.1 71.4 L1303.9 78.6 Z" fill="#8a6f47"/>
<circle cx="1309.0" cy="75.0" r="2.2" fill="#e9dec4" stroke="#4a3822" stroke-width="1.0"/>
<text x="1309.0" y="28.6" font-family="'DejaVu Serif',Georgia,serif" font-size="14.0" fill="#4a3822" text-anchor="middle" font-weight="bold">N</text>
</svg>
