<svg xmlns="http://www.w3.org/2000/svg" width="1280" height="640" viewBox="0 0 1280 640">
<rect width="1280" height="640" fill="#ddd2b2"/>
<path d="M650.7 49.3 L609.3 59.3 L577.1 64.3 L554.3 64.3 L542.1 63.6 L540.7 62.1 L525.0 60.7 L495.0 59.3 L479.3 57.9 L477.9 56.4 L465.0 55.7 L440.7 55.7 L427.9 55.0 L426.4 53.6 L413.6 52.1 L389.3 50.7 L376.4 49.3 L375.0 47.9 L310.0 47.9 L181.4 49.3 L114.3 50.7 L108.6 52.1 L105.4 55.4 L104.6 60.4 L111.4 75.7 L125.7 101.4 L132.1 126.4 L130.7 150.7 L115.7 195.0 L87.1 259.3 L80.0 302.1 L94.3 323.6 L100.0 352.9 L97.1 390.0 L105.7 425.0 L125.7 457.9 L134.3 487.1 L131.4 512.9 L124.6 540.4 L113.9 569.6 L120.7 582.1 L145.0 577.9 L164.3 573.6 L178.6 569.3 L189.3 567.1 L196.4 567.1 L200.7 566.4 L202.1 565.0 L221.4 564.3 L258.6 564.3 L295.0 568.6 L330.7 577.1 L365.0 582.9 L397.9 585.7 L415.0 587.9 L416.4 589.3 L423.6 590.0 L436.4 590.0 L443.6 590.7 L445.0 592.1 L452.1 592.9 L465.0 592.9 L472.1 593.6 L473.6 595.0 L499.3 595.0 L549.3 593.6 L575.0 592.1 L576.4 590.7 L583.6 590.0 L596.4 590.0 L603.6 589.3 L605.0 587.9 L630.0 585.0 L678.6 580.7 L703.6 577.9 L705.0 576.4 L717.1 575.7 L740.0 575.7 L752.1 576.4 L753.6 577.9 L761.4 578.6 L775.7 578.6 L783.6 579.3 L785.0 580.7 L813.6 581.4 L869.3 581.4 L897.9 582.1 L899.3 583.6 L912.1 584.3 L936.4 584.3 L949.3 585.0 L950.7 586.4 L959.3 587.1 L975.0 587.1 L983.6 587.9 L985.0 589.3 L1011.4 590.0 L1062.9 590.0 L1089.3 589.3 L1090.7 587.9 L1098.6 587.1 L1112.9 587.1 L1120.7 586.4 L1122.1 585.0 L1134.3 584.3 L1157.1 584.3 L1161.8 570.4 L1148.2 542.5 L1141.4 519.3 L1141.4 500.7 L1143.6 482.1 L1147.9 463.6 L1155.7 443.6 L1167.1 422.1 L1175.7 391.4 L1181.4 351.4 L1188.6 317.1 L1197.1 288.6 L1200.0 249.3 L1197.1 199.3 L1190.0 161.4 L1178.6 135.7 L1174.3 105.0 L1177.1 69.3 L1153.2 51.1 L1102.5 50.4 L1076.4 49.3 L1075.0 47.9 L1040.0 47.1 L971.4 47.1 L936.4 46.4 L935.0 45.0 L927.1 44.3 L912.9 44.3 L905.0 45.0 L903.6 46.4 L896.4 47.1 L883.6 47.1 L872.1 48.6 L862.1 51.4 L852.1 52.9 L842.1 52.9 L836.4 53.6 L835.0 55.0 L825.7 55.7 L808.6 55.7 L799.3 55.0 L797.9 53.6 L785.0 51.4 L760.7 48.6 L747.9 46.4 L746.4 45.0 L727.1 44.3 L690.0 44.3 Z" fill="#e2d7be"/>
<path d="M923.9 364.6 L874.6 508.2 L861.8 580.4 L885.4 581.1 L897.9 582.1 L899.3 583.6 L912.1 584.3 L936.4 584.3 L949.3 585.0 L950.7 586.4 L959.3 587.1 L975.0 587.1 L983.6 587.9 L985.0 589.3 L1011.4 590.0 L1062.9 590.0 L1089.3 589.3 L1090.7 587.9 L1098.6 587.1 L1112.9 587.1 L1120.7 586.4 L1122.1 585.0 L1134.3 584.3 L1157.1 584.3 L1161.8 570.4 L1148.2 542.5 L1141.4 519.3 L1141.4 500.7 L1143.6 482.1 L1147.9 463.6 L1155.7 442.9 L1167.1 420.0 L1141.1 381.1 L1077.5 326.1 L1021.4 297.1 L972.9 294.3 Z" fill="#c5bd9f"/>
<path d="M1155.4 206.1 L1083.2 266.8 L1050.4 301.1 L1056.8 308.9 L1087.9 336.4 L1143.6 383.6 L1174.6 388.2 L1181.1 350.4 L1188.6 317.1 L1197.1 288.6 L1200.7 253.6 L1199.3 212.1 L1196.8 187.5 L1193.2 179.6 Z" fill="#bca885"/>
<path d="M356.8 92.5 L356.1 183.2 L405.4 250.4 L504.6 293.9 L587.5 277.5 L653.9 201.1 L682.1 134.3 L672.1 77.1 L663.9 48.2 L657.5 47.5 L637.9 51.4 L605.0 60.0 L577.1 64.3 L554.3 64.3 L542.1 63.6 L540.7 62.1 L533.6 61.4 L520.7 61.4 L513.6 60.7 L512.1 59.3 L490.7 57.9 L449.3 56.4 L427.9 55.0 L426.4 53.6 L420.7 52.9 L410.7 52.9 L405.0 52.1 L403.6 50.7 L391.4 49.3 L368.6 47.9 Z" fill="#d49368"/>
<path d="M655.4 198.9 L588.9 273.9 L563.6 357.9 L579.3 450.7 L615.4 517.5 L671.8 558.2 L701.4 577.9 L704.3 576.4 L717.1 575.7 L740.0 575.7 L752.1 576.4 L753.6 577.9 L761.4 578.6 L775.7 578.6 L783.6 579.3 L785.0 580.7 L801.4 581.4 L832.9 581.4 L873.2 509.6 L922.5 366.1 L928.9 268.9 L892.5 218.2 L854.3 190.0 L814.3 184.3 L793.6 180.7 L792.1 179.3 L787.9 178.6 L780.7 178.6 L776.4 177.9 L775.0 176.4 L770.7 175.7 L763.6 175.7 L759.3 175.0 L757.9 173.6 L753.6 172.9 L746.4 172.9 L742.1 172.1 L740.7 170.7 L736.4 170.0 L729.3 170.0 L725.0 169.3 L723.6 167.9 L719.3 167.1 L712.1 167.1 L707.9 166.4 L706.4 165.0 L702.1 164.3 L695.0 164.3 L690.7 163.6 L689.3 162.1 Z" fill="#e19d6f"/>
<path d="M91.1 253.9 L84.6 261.8 L79.3 272.1 L75.0 285.0 L80.0 302.1 L94.3 323.6 L100.0 352.9 L97.1 390.0 L105.7 425.0 L125.7 457.9 L133.6 490.0 L129.3 521.4 L122.1 548.6 L112.1 571.4 L108.9 583.2 L112.5 583.9 L115.0 583.6 L116.4 582.1 L120.0 581.4 L125.7 581.4 L142.5 578.2 L170.4 571.8 L196.4 500.7 L220.7 365.0 L198.2 285.4 L128.9 261.8 Z" fill="#da976b"/>
<path d="M293.6 47.9 L292.1 49.3 L247.9 50.0 L160.7 50.0 L113.9 51.1 L107.5 53.2 L106.4 60.7 L110.7 73.6 L117.1 86.4 L125.7 99.3 L130.7 114.3 L132.1 131.4 L130.7 150.7 L126.4 172.1 L116.4 199.3 L100.7 232.1 L126.8 260.4 L194.6 283.9 L232.9 294.3 L241.4 291.4 L273.2 273.9 L328.2 241.8 L355.7 181.4 L355.7 92.9 L340.4 48.2 L309.6 47.5 Z" fill="#feb17e"/>
<path d="M900.4 81.8 L883.9 156.8 L893.2 218.9 L928.2 268.2 L970.7 294.3 L1020.7 297.1 L1083.2 267.5 L1158.2 205.4 L1190.0 161.4 L1178.6 135.7 L1174.3 105.0 L1177.1 69.3 L1153.2 51.1 L1102.5 50.4 L1076.4 49.3 L1075.0 47.9 L1040.0 47.1 L971.4 47.1 L936.4 46.4 L935.0 45.0 L927.9 44.3 L915.0 44.3 Z" fill="#dd9a6d"/>
<path d="M323.9 244.6 L263.2 279.6 L220.7 364.3 L196.4 498.6 L207.5 565.4 L253.9 564.6 L291.4 567.9 L320.0 575.0 L342.1 579.3 L357.9 580.7 L366.4 582.1 L367.9 583.6 L373.6 584.3 L383.6 584.3 L389.3 585.0 L390.7 586.4 L411.4 588.6 L451.4 591.4 L472.1 593.6 L473.6 595.0 L487.9 595.7 L515.0 595.7 L543.2 571.8 L572.5 523.9 L579.3 454.3 L563.6 362.9 L505.4 294.6 L404.6 249.6 Z" fill="#ffb27e"/>
<path d="M670.4 48.2 L668.2 56.1 L671.4 82.9 L680.0 128.6 L686.1 154.6 L689.6 161.1 L695.0 164.3 L702.1 164.3 L706.4 165.0 L707.9 166.4 L712.1 167.1 L719.3 167.1 L723.6 167.9 L725.0 169.3 L729.3 170.0 L736.4 170.0 L740.7 170.7 L742.1 172.1 L746.4 172.9 L753.6 172.9 L757.9 173.6 L759.3 175.0 L763.6 175.7 L770.7 175.7 L775.0 176.4 L776.4 177.9 L780.7 178.6 L787.9 178.6 L792.1 179.3 L793.6 180.7 L814.3 184.3 L854.3 190.0 L882.1 155.7 L897.9 81.4 L905.0 45.0 L903.6 46.4 L896.4 47.1 L883.6 47.1 L872.1 48.6 L862.1 51.4 L852.1 52.9 L842.1 52.9 L836.4 53.6 L835.0 55.0 L825.7 55.7 L808.6 55.7 L799.3 55.0 L797.9 53.6 L785.0 51.4 L760.7 48.6 L747.9 46.4 L746.4 45.0 L727.1 44.3 L690.0 44.3 Z" fill="#d6caa4"/>
<path d="M574.3 522.9 L545.7 571.4 L555.7 593.6 L604.3 589.3 L629.3 586.4 L630.7 585.0 L637.1 584.3 L648.6 584.3 L655.0 583.6 L656.4 582.1 L662.9 581.4 L674.3 581.4 L684.6 580.4 L693.9 578.2 L671.1 557.5 L616.1 518.2 Z" fill="#d5c9a3"/>
<path d="M251.4 34.3 L250.8 34.3 L245.7 34.3 L240.0 34.4 L234.3 34.4 L228.6 34.4 L222.9 34.5 L217.1 34.5 L211.4 34.5 L205.7 34.5 L200.0 34.5 L194.3 34.5 L188.6 34.5 L182.9 34.5 L177.1 34.5 L171.4 34.6 L165.7 34.7 L160.0 35.0 L154.3 35.4 L148.6 36.0 L142.9 36.9 L137.1 38.2 L131.4 40.0 L131.4 40.0 L125.7 42.5 L120.5 45.7 L120.0 46.0 L114.3 51.2 L114.1 51.4 L110.0 57.1 L108.6 60.0 L107.3 62.9 L105.7 68.6 L104.9 74.3 L104.9 80.0 L105.4 85.7 L106.4 91.4 L107.6 97.1 L108.6 101.3 L108.9 102.9 L110.2 108.6 L111.4 114.3 L112.5 120.0 L113.2 125.7 L113.7 131.4 L113.8 137.1 L113.5 142.9 L112.9 148.6 L112.0 154.3 L110.9 160.0 L109.5 165.7 L108.6 169.3 L107.9 171.4 L106.1 177.1 L104.1 182.9 L102.9 186.5 L102.1 188.6 L99.9 194.3 L97.9 200.0 L97.1 202.1 L95.8 205.7 L94.0 211.4 L92.3 217.1 L91.4 220.8 L90.9 222.9 L89.7 228.6 L88.8 234.3 L88.1 240.0 L87.8 245.7 L87.7 251.4 L87.8 257.1 L88.3 262.9 L89.0 268.6 L90.1 274.3 L91.4 279.4 L91.6 280.0 L93.4 285.7 L95.4 291.4 L97.1 295.7 L97.8 297.1 L100.4 302.9 L102.9 308.3 L103.0 308.6 L105.6 314.3 L107.9 320.0 L108.6 321.9 L109.9 325.7 L111.6 331.4 L112.9 337.1 L113.8 342.9 L114.3 347.0 L114.5 348.6 L115.0 354.3 L115.2 360.0 L115.3 365.7 L115.4 371.4 L115.5 377.1 L115.7 382.9 L116.2 388.6 L116.9 394.3 L117.9 400.0 L119.3 405.7 L120.0 408.1 L121.1 411.4 L123.4 417.1 L125.7 422.7 L125.8 422.9 L128.6 428.6 L131.4 434.3 L131.4 434.3 L134.3 440.0 L136.8 445.7 L137.1 446.5 L139.1 451.4 L141.0 457.1 L142.5 462.9 L142.9 464.3 L143.7 468.6 L144.5 474.3 L145.1 480.0 L145.3 485.7 L145.2 491.4 L145.0 497.1 L144.5 502.9 L143.9 508.6 L143.4 514.3 L142.9 520.0 L142.9 520.5 L142.6 525.7 L142.6 531.4 L142.9 533.7 L143.2 537.1 L144.6 542.9 L147.2 548.6 L148.6 550.4 L151.8 554.3 L154.3 556.4 L159.3 560.0 L160.0 560.4 L165.7 563.5 L170.6 565.7 L171.4 566.1 L177.1 568.2 L182.9 570.0 L188.3 571.4 L188.6 571.5 L194.3 572.8 L200.0 573.9 L205.7 574.8 L211.4 575.6 L217.1 576.1 L222.9 576.5 L228.6 576.8 L234.3 577.0 L238.1 577.1 L240.0 577.2 L245.7 577.4 L251.4 577.7 L257.1 578.0 L262.9 578.4 L268.6 578.9 L274.3 579.5 L280.0 580.3 L285.7 581.1 L291.4 582.0 L296.8 582.9 L297.1 582.9 L302.9 584.0 L308.6 585.1 L314.3 586.2 L320.0 587.3 L325.7 588.4 L326.4 588.6 L331.4 589.6 L337.1 590.7 L342.9 591.7 L348.6 592.7 L354.3 593.6 L359.0 594.3 L360.0 594.4 L365.7 595.3 L371.4 596.2 L377.1 596.9 L382.9 597.7 L388.6 598.3 L394.3 599.0 L400.0 599.7 L403.2 600.0 L405.7 600.3 L411.4 600.9 L417.1 601.6 L422.9 602.2 L428.6 602.8 L434.3 603.4 L440.0 603.9 L445.7 604.5 L451.4 605.0 L457.1 605.5 L459.9 605.7 L462.9 606.0 L468.6 606.4 L474.3 606.8 L480.0 607.0 L485.7 607.2 L491.4 607.2 L497.1 607.0 L502.9 606.6 L508.6 606.0 L510.5 605.7 L514.3 605.2 L520.0 604.1 L525.7 602.7 L531.4 601.1 L534.5 600.0 L537.1 599.1 L542.9 597.0 L548.6 594.5 L549.1 594.3 L554.3 591.9 L560.0 589.2 L561.3 588.6 L565.7 586.4 L571.4 583.6 L573.1 582.9 L577.1 580.9 L582.9 578.4 L586.2 577.1 L588.6 576.2 L594.3 574.3 L600.0 572.9 L605.7 572.0 L611.4 571.5 L612.5 571.4 L617.1 571.3 L620.0 571.4 L622.9 571.5 L628.6 571.9 L634.3 572.6 L640.0 573.3 L645.7 574.1 L651.4 575.0 L657.1 575.9 L662.9 576.9 L664.6 577.1 L668.6 577.8 L674.3 578.7 L680.0 579.5 L685.7 580.3 L691.4 581.0 L697.1 581.5 L702.9 582.0 L708.6 582.4 L714.3 582.8 L715.5 582.9 L720.0 583.1 L725.7 583.4 L731.4 583.7 L737.1 584.0 L742.9 584.3 L748.6 584.6 L754.3 585.0 L760.0 585.4 L765.7 585.8 L771.4 586.2 L777.1 586.6 L782.9 586.9 L788.6 587.2 L794.3 587.5 L800.0 587.6 L805.7 587.6 L811.4 587.5 L817.1 587.2 L822.9 586.8 L828.6 586.1 L834.3 585.2 L840.0 584.1 L845.1 582.9 L845.7 582.7 L851.4 581.2 L857.1 579.4 L862.9 577.6 L864.1 577.1 L868.6 575.6 L874.3 573.5 L880.0 571.6 L880.6 571.4 L885.7 569.8 L891.4 568.2 L897.1 566.9 L902.9 566.0 L905.2 565.7 L908.6 565.3 L914.3 564.9 L920.0 564.9 L925.7 565.0 L931.4 565.3 L937.1 565.6 L938.4 565.7 L942.9 566.0 L948.6 566.3 L954.3 566.7 L960.0 567.1 L965.7 567.5 L971.4 567.9 L977.1 568.3 L982.9 568.7 L988.6 569.0 L994.3 569.3 L1000.0 569.6 L1005.7 569.8 L1011.4 570.0 L1017.1 570.1 L1022.9 570.2 L1028.6 570.3 L1034.3 570.3 L1040.0 570.3 L1045.7 570.2 L1051.4 570.2 L1057.1 570.0 L1062.9 569.9 L1068.6 569.7 L1074.3 569.4 L1080.0 569.1 L1085.7 568.6 L1091.4 568.0 L1097.1 567.2 L1102.9 566.0 L1103.8 565.7 L1108.6 564.1 L1114.3 561.3 L1116.2 560.0 L1120.0 556.4 L1121.7 554.3 L1124.4 548.6 L1125.7 543.0 L1126.1 537.1 L1126.1 531.4 L1125.7 525.7 L1125.2 520.0 L1124.8 514.3 L1124.4 508.6 L1124.3 502.9 L1124.5 497.1 L1124.9 491.4 L1125.5 485.7 L1125.7 484.4 L1126.3 480.0 L1127.3 474.3 L1128.5 468.6 L1130.0 462.9 L1131.4 457.8 L1131.6 457.1 L1133.3 451.4 L1135.2 445.7 L1137.1 440.5 L1137.3 440.0 L1139.4 434.3 L1141.6 428.6 L1142.9 425.3 L1143.8 422.9 L1145.8 417.1 L1147.9 411.4 L1148.6 409.5 L1149.8 405.7 L1151.5 400.0 L1153.1 394.3 L1154.3 390.0 L1154.6 388.6 L1155.9 382.9 L1157.1 377.1 L1158.3 371.4 L1159.4 365.7 L1160.0 362.7 L1160.5 360.0 L1161.5 354.3 L1162.6 348.6 L1163.8 342.9 L1165.0 337.1 L1165.7 334.1 L1166.3 331.4 L1167.5 325.7 L1168.8 320.0 L1170.2 314.3 L1171.4 309.5 L1171.7 308.6 L1172.9 302.9 L1174.2 297.1 L1175.5 291.4 L1176.6 285.7 L1177.1 282.9 L1177.6 280.0 L1178.4 274.3 L1179.1 268.6 L1179.6 262.9 L1180.0 257.1 L1180.2 251.4 L1180.3 245.7 L1180.3 240.0 L1180.2 234.3 L1179.9 228.6 L1179.6 222.9 L1179.2 217.1 L1178.7 211.4 L1178.1 205.7 L1177.4 200.0 L1177.1 198.2 L1176.5 194.3 L1175.4 188.6 L1174.2 182.9 L1172.9 177.1 L1171.4 171.6 L1169.6 165.7 L1167.8 160.0 L1166.1 154.3 L1165.7 153.0 L1164.3 148.6 L1162.5 142.9 L1161.0 137.1 L1160.0 132.9 L1159.6 131.4 L1158.4 125.7 L1157.4 120.0 L1156.5 114.3 L1155.7 108.6 L1154.9 102.9 L1154.3 99.7 L1153.7 97.1 L1152.1 91.4 L1149.9 85.7 L1148.6 83.2 L1146.4 80.0 L1142.9 76.3 L1140.3 74.3 L1137.1 72.4 L1131.4 70.0 L1126.4 68.6 L1125.7 68.4 L1120.0 67.5 L1114.3 66.9 L1108.6 66.5 L1102.9 66.3 L1097.1 66.2 L1091.4 66.0 L1085.7 65.8 L1080.0 65.6 L1074.3 65.3 L1068.6 65.1 L1062.9 64.9 L1057.1 64.7 L1051.4 64.5 L1045.7 64.3 L1040.0 64.2 L1034.3 64.1 L1028.6 64.0 L1022.9 63.9 L1017.1 63.9 L1011.4 63.9 L1005.7 63.9 L1000.0 63.9 L994.3 63.9 L988.6 63.8 L982.9 63.8 L977.1 63.7 L971.4 63.7 L965.7 63.6 L960.0 63.4 L954.3 63.3 L948.6 63.1 L942.9 62.9 L939.9 62.9 L937.1 62.8 L931.4 62.7 L925.7 62.7 L920.0 62.7 L914.3 62.8 L911.8 62.9 L908.6 63.0 L902.9 63.3 L897.1 63.7 L891.4 64.2 L885.7 64.7 L880.0 65.3 L874.3 66.0 L868.6 66.6 L862.9 67.3 L857.1 67.9 L851.4 68.5 L850.9 68.6 L845.7 69.1 L840.0 69.7 L834.3 70.1 L828.6 70.4 L822.9 70.6 L817.1 70.6 L811.4 70.6 L805.7 70.3 L800.0 70.0 L794.3 69.5 L788.6 68.9 L785.6 68.6 L782.9 68.3 L777.1 67.6 L771.4 66.9 L765.7 66.1 L760.0 65.3 L754.3 64.6 L748.6 63.9 L742.9 63.2 L739.4 62.9 L737.1 62.6 L731.4 62.1 L725.7 61.6 L720.0 61.0 L714.3 60.3 L708.6 59.6 L702.9 58.7 L697.1 57.7 L694.1 57.1 L691.4 56.7 L685.7 55.7 L680.0 54.7 L674.3 53.8 L668.6 53.1 L662.9 52.5 L657.1 52.2 L651.4 52.1 L645.7 52.2 L640.0 52.5 L634.3 53.1 L628.6 53.8 L622.9 54.6 L617.1 55.5 L611.4 56.5 L607.6 57.1 L605.7 57.5 L600.0 58.4 L594.3 59.2 L588.6 60.0 L582.9 60.6 L577.1 61.0 L571.4 61.4 L565.7 61.5 L560.0 61.6 L554.3 61.5 L548.6 61.4 L542.9 61.1 L537.1 60.8 L531.4 60.4 L525.7 59.9 L520.0 59.4 L514.3 58.9 L508.6 58.5 L502.9 58.0 L497.1 57.5 L493.0 57.1 L491.4 57.0 L485.7 56.6 L480.0 56.1 L474.3 55.7 L468.6 55.4 L462.9 55.0 L457.1 54.6 L451.4 54.2 L445.7 53.8 L440.0 53.4 L434.3 53.0 L428.6 52.6 L422.9 52.0 L417.1 51.4 L411.4 50.7 L405.7 49.9 L400.0 48.9 L394.3 47.8 L388.6 46.5 L385.3 45.7 L382.9 45.1 L377.1 43.6 L371.4 42.0 L365.7 40.5 L364.0 40.0 L360.0 38.9 L354.3 37.6 L348.6 36.3 L342.9 35.3 L337.1 34.4 L335.9 34.3 L331.4 33.7 L325.7 33.2 L320.0 32.8 L314.3 32.7 L308.6 32.6 L302.9 32.7 L297.1 32.8 L291.4 33.0 L285.7 33.2 L280.0 33.4 L274.3 33.7 L268.6 33.9 L262.9 34.0 L257.1 34.2 L251.4 34.3 " fill="none" stroke="#8a6f4796" stroke-width="0.8" stroke-linecap="round"/>
<path d="M154.3 50.4 L149.1 51.4 L148.6 51.5 L142.9 53.3 L137.1 55.8 L134.9 57.1 L131.4 59.8 L128.3 62.9 L125.7 66.5 L124.5 68.6 L122.4 74.3 L121.5 80.0 L121.5 85.7 L122.0 91.4 L122.8 97.1 L123.9 102.9 L125.0 108.6 L125.7 112.4 L126.1 114.3 L127.0 120.0 L127.7 125.7 L128.0 131.4 L128.1 137.1 L127.8 142.9 L127.3 148.6 L126.5 154.3 L125.7 158.3 L125.4 160.0 L124.1 165.7 L122.6 171.4 L120.9 177.1 L120.0 179.9 L119.0 182.9 L117.0 188.6 L115.0 194.3 L114.3 196.2 L112.9 200.0 L111.0 205.7 L109.2 211.4 L108.6 213.8 L107.7 217.1 L106.4 222.9 L105.6 228.6 L105.1 234.3 L105.1 240.0 L105.6 245.7 L106.6 251.4 L108.2 257.1 L108.6 258.2 L110.6 262.9 L113.8 268.6 L114.3 269.3 L118.4 274.3 L120.0 276.1 L124.4 280.0 L125.7 281.1 L131.4 285.0 L132.6 285.7 L137.1 288.3 L142.9 291.0 L143.9 291.4 L148.6 293.5 L154.3 295.7 L158.3 297.1 L160.0 297.8 L165.7 300.1 L171.4 302.5 L172.2 302.9 L177.1 305.6 L181.8 308.6 L182.9 309.4 L188.1 314.3 L188.6 314.9 L191.8 320.0 L194.2 325.7 L194.3 325.9 L195.3 331.4 L195.7 337.1 L195.5 342.9 L195.0 348.6 L194.3 353.9 L194.2 354.3 L193.2 360.0 L192.1 365.7 L191.1 371.4 L190.1 377.1 L189.2 382.9 L188.6 386.6 L188.2 388.6 L187.1 394.3 L186.1 400.0 L185.1 405.7 L184.1 411.4 L183.2 417.1 L182.9 419.7 L182.3 422.9 L181.3 428.6 L180.5 434.3 L179.6 440.0 L178.9 445.7 L178.2 451.4 L177.5 457.1 L177.1 460.0 L176.8 462.9 L176.1 468.6 L175.3 474.3 L174.6 480.0 L173.9 485.7 L173.1 491.4 L172.4 497.1 L171.7 502.9 L171.4 505.3 L171.1 508.6 L170.8 514.3 L170.9 520.0 L171.4 525.5 L171.4 525.7 L172.7 531.4 L175.0 537.1 L177.1 540.3 L178.9 542.9 L182.9 546.6 L185.1 548.6 L188.6 550.8 L194.3 554.0 L194.9 554.3 L200.0 556.4 L205.7 558.3 L211.4 559.7 L212.7 560.0 L217.1 560.8 L222.9 561.6 L228.6 562.2 L234.3 562.6 L240.0 562.9 L245.7 563.2 L251.4 563.5 L257.1 563.8 L262.9 564.2 L268.6 564.7 L274.3 565.3 L278.0 565.7 L280.0 566.0 L285.7 566.7 L291.4 567.6 L297.1 568.6 L302.9 569.6 L308.6 570.7 L312.3 571.4 L314.3 571.8 L320.0 572.9 L325.7 574.1 L331.4 575.2 L337.1 576.3 L342.0 577.1 L342.9 577.3 L348.6 578.3 L354.3 579.3 L360.0 580.2 L365.7 581.0 L371.4 581.8 L377.1 582.6 L379.0 582.9 L382.9 583.4 L388.6 584.1 L394.3 584.8 L400.0 585.4 L405.7 586.1 L411.4 586.7 L417.1 587.3 L422.9 587.9 L428.6 588.5 L429.1 588.6 L434.3 589.1 L440.0 589.7 L445.7 590.2 L451.4 590.8 L457.1 591.3 L462.9 591.8 L468.6 592.2 L474.3 592.5 L480.0 592.8 L485.7 592.9 L491.4 592.8 L497.1 592.5 L502.9 592.0 L508.6 591.2 L514.3 590.1 L520.0 588.6 L525.7 586.8 L531.4 584.6 L535.2 582.9 L537.1 581.9 L542.9 578.9 L545.9 577.1 L548.6 575.4 L554.3 571.6 L560.0 567.3 L562.2 565.7 L565.7 562.7 L569.1 560.0 L571.4 557.9 L575.7 554.3 L577.1 553.0 L582.6 548.6 L582.6 548.6 L588.6 544.3 L591.2 542.9 L594.3 541.2 L600.0 539.2 L605.7 538.3 L611.4 538.4 L617.1 539.4 L622.9 541.0 L628.0 542.9 L628.6 543.1 L634.3 545.3 L640.0 547.6 L642.3 548.6 L645.7 549.9 L651.4 552.0 L657.1 554.0 L657.9 554.3 L662.9 555.8 L668.6 557.5 L674.3 559.1 L678.1 560.0 L680.0 560.4 L685.7 561.6 L691.4 562.6 L697.1 563.5 L702.9 564.2 L708.6 564.8 L714.3 565.3 L720.0 565.7 L720.8 565.7 L725.7 566.0 L731.4 566.3 L737.1 566.6 L742.9 566.9 L748.6 567.2 L754.3 567.6 L760.0 567.9 L765.7 568.3 L771.4 568.8 L777.1 569.2 L782.9 569.5 L788.6 569.9 L794.3 570.1 L800.0 570.2 L805.7 570.2 L811.4 569.9 L817.1 569.4 L822.9 568.7 L828.6 567.6 L834.3 566.2 L835.8 565.7 L840.0 564.3 L845.7 562.0 L850.0 560.0 L851.4 559.2 L857.1 555.8 L859.6 554.3 L862.9 551.7 L866.8 548.6 L868.6 546.8 L872.5 542.9 L874.3 540.6 L877.1 537.1 L880.0 532.7 L880.9 531.4 L884.1 525.7 L885.7 522.1 L886.7 520.0 L889.0 514.3 L891.0 508.6 L891.4 507.4 L893.1 502.9 L895.1 497.1 L897.0 491.4 L897.1 491.0 L899.1 485.7 L901.0 480.0 L902.9 474.5 L905.0 468.6 L906.9 462.9 L908.6 457.9 L908.8 457.1 L910.8 451.4 L912.7 445.7 L914.3 440.9 L914.6 440.0 L916.6 434.3 L918.5 428.6 L920.0 423.8 L920.3 422.9 L922.3 417.1 L924.2 411.4 L925.7 406.7 L926.1 405.7 L928.0 400.0 L929.9 394.3 L931.4 389.6 L931.8 388.6 L933.7 382.9 L935.6 377.1 L937.1 372.4 L937.5 371.4 L939.5 365.7 L941.3 360.0 L942.9 355.2 L943.2 354.3 L945.1 348.6 L946.9 342.9 L948.5 337.1 L948.5 337.1 L950.1 331.4 L951.5 325.7 L952.7 320.0 L953.5 314.3 L954.0 308.6 L954.2 302.9 L954.0 297.1 L953.5 291.4 L952.5 285.7 L951.1 280.0 L949.1 274.3 L948.6 272.9 L946.8 268.6 L944.1 262.9 L942.9 260.6 L941.0 257.1 L937.5 251.4 L937.1 250.9 L933.9 245.7 L931.4 242.1 L930.0 240.0 L926.0 234.3 L925.7 233.9 L922.0 228.6 L920.0 225.9 L917.8 222.9 L914.3 218.2 L913.5 217.1 L908.9 211.4 L908.6 211.0 L904.2 205.7 L902.9 204.2 L898.9 200.0 L897.1 198.2 L893.0 194.3 L891.4 192.9 L886.0 188.6 L880.0 184.4 L877.4 182.9 L874.3 181.0 L868.6 178.2 L866.1 177.1 L862.9 175.7 L857.1 173.6 L851.4 171.9 L849.6 171.4 L845.7 170.3 L840.0 168.9 L834.3 167.7 L828.6 166.6 L823.4 165.7 L822.9 165.6 L817.1 164.5 L811.4 163.5 L805.7 162.6 L800.0 161.6 L794.3 160.7 L789.7 160.0 L788.6 159.8 L782.9 158.8 L777.1 157.8 L771.4 156.9 L765.7 155.9 L760.0 155.0 L755.4 154.3 L754.3 154.1 L748.6 153.1 L742.9 152.0 L737.1 150.9 L731.4 149.8 L725.8 148.6 L720.0 147.0 L714.3 145.3 L708.6 143.3 L707.4 142.9 L702.9 140.7 L697.1 137.5 L696.5 137.1 L691.4 133.1 L689.5 131.4 L685.7 126.9 L684.8 125.7 L681.4 120.0 L680.0 117.1 L678.8 114.3 L676.4 108.6 L674.3 103.9 L673.8 102.9 L670.5 97.1 L668.6 94.8 L665.7 91.4 L662.9 89.1 L657.9 85.7 L657.1 85.3 L651.4 83.0 L645.7 81.5 L640.0 80.7 L634.3 80.5 L628.6 80.7 L622.9 81.3 L617.1 82.0 L611.4 82.8 L605.7 83.6 L600.0 84.5 L594.3 85.2 L589.4 85.7 L588.6 85.8 L582.9 86.4 L577.1 86.9 L571.4 87.2 L565.7 87.4 L560.0 87.4 L554.3 87.3 L548.6 87.1 L542.9 86.9 L537.1 86.5 L531.4 86.1 L527.0 85.7 L525.7 85.6 L520.0 85.2 L514.3 84.7 L508.6 84.3 L502.9 83.8 L497.1 83.3 L491.4 82.8 L485.7 82.4 L480.0 81.9 L474.3 81.5 L468.6 81.1 L462.9 80.7 L457.1 80.2 L453.8 80.0 L451.4 79.9 L445.7 79.5 L440.0 79.1 L434.3 78.8 L428.6 78.3 L422.9 77.8 L417.1 77.2 L411.4 76.3 L405.7 75.0 L403.1 74.3 L400.0 73.5 L394.3 71.8 L388.6 69.7 L386.2 68.6 L382.9 67.3 L377.1 64.8 L373.3 62.9 L371.4 62.1 L365.7 59.6 L360.1 57.1 L354.3 55.0 L348.6 53.1 L343.0 51.4 L337.1 50.0 L331.4 48.9 L325.7 48.1 L320.0 47.5 L314.3 47.2 L308.6 47.0 L302.9 47.0 L297.1 47.0 L291.4 47.2 L285.7 47.4 L280.0 47.6 L274.3 47.8 L268.6 48.0 L262.9 48.2 L257.1 48.3 L251.4 48.4 L245.7 48.5 L240.0 48.5 L234.3 48.5 L228.6 48.6 L222.9 48.6 L217.1 48.6 L211.4 48.6 L205.7 48.6 L200.0 48.6 L194.3 48.6 L188.6 48.6 L182.9 48.6 L177.1 48.7 L171.4 48.8 L165.7 49.1 L160.0 49.6 L154.3 50.4 " fill="none" stroke="#8a6f4796" stroke-width="0.8" stroke-linecap="round"/>
<path d="M182.9 62.8 L181.7 62.9 L177.1 63.0 L171.4 63.4 L165.7 64.1 L160.0 65.2 L154.3 66.9 L150.4 68.6 L148.6 69.6 L143.0 74.3 L139.9 80.0 L138.5 85.7 L138.1 91.4 L138.4 97.1 L139.0 102.9 L139.9 108.6 L140.7 114.3 L141.5 120.0 L142.1 125.7 L142.3 131.4 L142.4 137.1 L142.1 142.9 L141.6 148.6 L140.9 154.3 L139.9 160.0 L138.7 165.7 L137.3 171.4 L137.1 171.8 L135.7 177.1 L133.9 182.9 L132.0 188.6 L131.4 190.1 L130.0 194.3 L128.0 200.0 L126.1 205.7 L125.7 207.1 L124.5 211.4 L123.2 217.1 L122.2 222.9 L121.8 228.6 L122.1 234.3 L123.2 240.0 L125.3 245.7 L125.7 246.5 L128.9 251.4 L131.4 254.5 L134.2 257.1 L137.1 259.5 L142.4 262.9 L142.9 263.1 L148.6 266.0 L154.3 268.5 L154.6 268.6 L160.0 270.7 L165.7 272.8 L169.9 274.3 L171.4 274.8 L177.1 277.0 L182.9 279.3 L184.5 280.0 L188.6 281.8 L194.3 284.7 L196.1 285.7 L200.0 288.1 L204.5 291.4 L205.7 292.4 L210.5 297.1 L211.4 298.2 L214.9 302.9 L217.1 306.9 L218.0 308.6 L220.1 314.3 L221.5 320.0 L222.2 325.7 L222.4 331.4 L222.2 337.1 L221.8 342.9 L221.1 348.6 L220.2 354.3 L219.3 360.0 L218.3 365.7 L217.2 371.4 L217.1 372.0 L216.2 377.1 L215.2 382.9 L214.2 388.6 L213.2 394.3 L212.2 400.0 L211.4 404.2 L211.2 405.7 L210.2 411.4 L209.2 417.1 L208.1 422.9 L207.1 428.6 L206.1 434.3 L205.7 436.6 L205.1 440.0 L204.1 445.7 L203.1 451.4 L202.1 457.1 L201.0 462.9 L200.0 468.6 L199.0 474.3 L198.0 480.0 L197.0 485.7 L196.0 491.4 L195.1 497.1 L194.4 502.9 L194.3 504.1 L194.0 508.6 L194.0 514.3 L194.3 516.4 L194.7 520.0 L196.3 525.7 L199.1 531.4 L200.0 532.5 L204.1 537.1 L205.7 538.4 L211.4 542.0 L213.2 542.9 L217.1 544.3 L222.9 545.9 L228.6 547.1 L234.3 547.9 L240.0 548.5 L240.6 548.6 L245.7 548.9 L251.4 549.3 L257.1 549.6 L262.9 550.0 L268.6 550.4 L274.3 551.0 L280.0 551.6 L285.7 552.4 L291.4 553.3 L297.1 554.3 L297.2 554.3 L302.9 555.2 L308.6 556.3 L314.3 557.4 L320.0 558.5 L325.7 559.7 L327.2 560.0 L331.4 560.8 L337.1 561.9 L342.9 562.9 L348.6 563.9 L354.3 564.9 L358.9 565.7 L360.0 565.9 L365.7 566.7 L371.4 567.5 L377.1 568.3 L382.9 569.1 L388.6 569.8 L394.3 570.5 L400.0 571.2 L401.9 571.4 L405.7 571.8 L411.4 572.5 L417.1 573.1 L422.9 573.7 L428.6 574.3 L434.3 574.8 L440.0 575.4 L445.7 576.0 L451.4 576.6 L457.1 577.1 L457.7 577.1 L462.9 577.6 L468.6 578.0 L474.3 578.3 L480.0 578.5 L485.7 578.6 L491.4 578.5 L497.1 578.1 L502.9 577.4 L504.3 577.1 L508.6 576.3 L514.3 574.7 L520.0 572.7 L523.1 571.4 L525.7 570.2 L531.4 567.0 L533.4 565.7 L537.1 563.0 L540.9 560.0 L542.9 558.3 L547.1 554.3 L548.6 552.7 L552.4 548.6 L554.3 546.4 L557.3 542.9 L560.0 539.4 L561.9 537.1 L565.7 532.3 L566.5 531.4 L571.3 525.7 L571.3 525.7 L576.7 520.0 L577.1 519.5 L582.9 514.4 L588.6 510.2 L591.5 508.6 L594.3 507.0 L600.0 504.7 L605.7 503.3 L611.3 502.9 L611.3 502.9 L611.5 502.9 L617.1 503.3 L622.9 504.6 L628.6 506.7 L632.4 508.6 L634.3 509.5 L640.0 512.7 L642.4 514.3 L645.7 516.3 L651.3 520.0 L651.4 520.1 L657.1 523.5 L660.7 525.7 L662.9 526.9 L668.6 529.9 L671.6 531.4 L674.3 532.6 L680.0 535.0 L685.6 537.1 L685.7 537.2 L691.4 538.8 L697.1 540.2 L702.9 541.4 L708.6 542.5 L711.4 542.9 L714.3 543.2 L720.0 543.7 L725.7 544.1 L731.4 544.5 L737.1 544.8 L742.9 545.1 L748.6 545.4 L754.3 545.8 L760.0 546.1 L765.7 546.5 L771.4 547.0 L777.1 547.4 L782.9 547.8 L788.6 548.2 L794.3 548.4 L800.0 548.4 L805.7 548.1 L811.4 547.5 L817.1 546.3 L822.9 544.6 L827.1 542.9 L828.6 542.1 L834.3 538.4 L835.9 537.1 L840.0 533.1 L841.4 531.4 L845.5 525.7 L845.7 525.3 L848.5 520.0 L851.0 514.3 L851.4 513.1 L853.1 508.6 L855.0 502.9 L857.1 497.1 L857.1 497.1 L859.0 491.4 L860.9 485.7 L862.9 480.4 L863.0 480.0 L864.9 474.3 L866.9 468.6 L868.6 464.0 L869.0 462.9 L870.9 457.1 L872.8 451.4 L874.3 447.3 L874.8 445.7 L876.7 440.0 L878.6 434.3 L880.0 430.4 L880.6 428.6 L882.4 422.9 L884.4 417.1 L885.7 413.3 L886.3 411.4 L888.2 405.7 L890.1 400.0 L891.4 396.1 L892.0 394.3 L893.9 388.6 L895.8 382.9 L897.1 379.0 L897.7 377.1 L899.6 371.4 L901.5 365.7 L902.9 361.9 L903.5 360.0 L905.3 354.3 L907.2 348.6 L908.6 344.5 L909.1 342.9 L910.8 337.1 L912.5 331.4 L914.1 325.7 L914.3 324.7 L915.3 320.0 L916.2 314.3 L916.7 308.6 L916.8 302.9 L916.3 297.1 L915.4 291.4 L914.3 287.4 L913.8 285.7 L911.6 280.0 L908.9 274.3 L908.6 273.6 L905.7 268.6 L902.9 263.7 L902.3 262.9 L898.5 257.1 L897.1 255.1 L894.5 251.4 L891.4 247.0 L890.4 245.7 L886.1 240.0 L885.7 239.5 L881.4 234.3 L880.0 232.6 L876.2 228.6 L874.3 226.6 L870.3 222.9 L868.6 221.4 L863.1 217.1 L857.1 213.5 L853.2 211.4 L851.4 210.6 L845.7 208.4 L840.0 206.4 L837.6 205.7 L834.3 204.8 L828.6 203.5 L822.9 202.4 L817.1 201.3 L811.4 200.2 L810.2 200.0 L805.7 199.3 L800.0 198.4 L794.3 197.4 L788.6 196.5 L782.9 195.5 L777.1 194.5 L776.0 194.3 L771.4 193.6 L765.7 192.6 L760.0 191.7 L754.3 190.7 L748.6 189.8 L742.9 188.8 L741.8 188.6 L737.1 187.8 L731.4 186.9 L725.7 186.0 L720.0 185.2 L714.3 184.4 L708.6 183.7 L702.9 183.2 L697.1 182.9 L691.4 183.0 L685.7 183.5 L680.0 184.6 L674.3 186.2 L668.6 188.6 L662.9 192.0 L659.7 194.3 L657.1 196.3 L653.0 200.0 L651.4 201.5 L647.3 205.7 L645.7 207.4 L642.0 211.4 L640.0 213.6 L636.8 217.1 L634.3 220.0 L631.8 222.9 L628.6 226.5 L626.8 228.6 L622.9 233.1 L621.8 234.3 L617.1 239.6 L616.8 240.0 L611.8 245.7 L611.4 246.1 L606.8 251.4 L605.7 252.6 L601.7 257.1 L600.0 259.0 L596.5 262.9 L594.3 265.3 L591.1 268.6 L588.6 271.1 L585.1 274.3 L582.9 276.2 L577.6 280.0 L577.1 280.3 L571.4 283.3 L565.7 285.4 L564.4 285.7 L560.0 286.6 L554.3 286.9 L548.6 286.7 L542.9 285.9 L541.9 285.7 L537.1 284.6 L531.4 283.0 L525.7 281.2 L522.4 280.0 L520.0 279.1 L514.3 276.8 L508.6 274.5 L508.0 274.3 L502.9 272.0 L497.1 269.6 L494.8 268.6 L491.4 267.1 L485.7 264.6 L481.7 262.9 L480.0 262.1 L474.3 259.6 L468.6 257.2 L462.9 254.6 L457.1 252.2 L455.4 251.4 L451.4 249.7 L445.7 247.2 L442.2 245.7 L440.0 244.7 L434.3 242.2 L429.1 240.0 L428.6 239.8 L422.9 237.2 L417.1 234.7 L416.3 234.3 L411.4 231.9 L405.7 229.0 L404.9 228.6 L400.0 225.7 L395.7 222.9 L394.3 221.8 L388.6 217.2 L383.4 211.4 L382.9 210.6 L379.8 205.7 L377.1 200.1 L375.4 194.3 L374.2 188.6 L373.4 182.9 L372.9 177.1 L372.6 171.4 L372.5 165.7 L372.5 160.0 L372.5 154.3 L372.5 148.6 L372.5 142.9 L372.5 137.1 L372.5 131.4 L372.5 125.7 L372.4 120.0 L372.3 114.3 L371.7 108.6 L371.4 106.9 L370.7 102.9 L369.1 97.1 L366.5 91.4 L365.7 90.3 L362.9 85.7 L360.0 82.3 L358.0 80.0 L354.3 76.8 L351.2 74.3 L348.6 72.6 L342.9 69.4 L341.3 68.6 L337.1 66.9 L331.4 65.0 L325.7 63.5 L322.1 62.9 L320.0 62.5 L314.3 61.9 L308.6 61.5 L302.9 61.3 L297.1 61.3 L291.4 61.4 L285.7 61.6 L280.0 61.8 L274.3 62.0 L268.6 62.2 L262.9 62.3 L257.1 62.4 L251.4 62.5 L245.7 62.6 L240.0 62.6 L234.3 62.7 L228.6 62.7 L222.9 62.7 L217.1 62.7 L211.4 62.7 L205.7 62.7 L200.0 62.7 L194.3 62.7 L188.6 62.7 L182.9 62.8 " fill="none" stroke="#8a6f4796" stroke-width="0.8" stroke-linecap="round"/>
<path d="M177.1 84.0 L171.4 85.7 L165.7 89.8 L164.3 91.4 L161.7 97.1 L160.6 102.9 L160.5 108.6 L160.9 114.3 L161.5 120.0 L162.0 125.7 L162.2 131.4 L162.2 137.1 L162.0 142.9 L161.5 148.6 L160.7 154.3 L160.0 158.5 L159.8 160.0 L158.8 165.7 L157.6 171.4 L156.2 177.1 L154.4 182.9 L154.3 183.3 L152.8 188.6 L151.0 194.3 L149.0 200.0 L148.6 201.4 L147.4 205.7 L146.1 211.4 L145.4 217.1 L145.5 222.9 L146.8 228.6 L148.6 232.2 L149.9 234.3 L154.3 238.6 L156.0 240.0 L160.0 242.4 L165.7 245.3 L166.7 245.7 L171.4 247.5 L177.1 249.6 L181.9 251.4 L182.9 251.7 L188.6 253.7 L194.3 255.9 L197.2 257.1 L200.0 258.2 L205.7 260.7 L210.0 262.9 L211.4 263.6 L217.1 266.7 L220.0 268.6 L222.9 270.5 L227.7 274.3 L228.6 275.1 L233.6 280.0 L234.3 280.9 L238.1 285.7 L240.0 288.8 L241.5 291.4 L244.1 297.1 L245.7 302.0 L246.0 302.9 L247.5 308.6 L248.5 314.3 L249.0 320.0 L249.1 325.7 L248.9 331.4 L248.6 337.1 L248.0 342.9 L247.2 348.6 L246.3 354.3 L245.7 357.3 L245.3 360.0 L244.4 365.7 L243.4 371.4 L242.4 377.1 L241.3 382.9 L240.2 388.6 L240.0 389.6 L239.2 394.3 L238.3 400.0 L237.3 405.7 L236.3 411.4 L235.2 417.1 L234.3 422.0 L234.1 422.9 L233.2 428.6 L232.2 434.3 L231.2 440.0 L230.2 445.7 L229.1 451.4 L228.6 454.3 L228.1 457.1 L227.1 462.9 L226.1 468.6 L225.1 474.3 L224.0 480.0 L222.9 485.7 L222.9 486.1 L222.0 491.4 L221.2 497.1 L220.8 502.9 L221.2 508.6 L222.6 514.3 L222.9 514.8 L226.4 520.0 L228.6 522.0 L234.3 525.6 L234.6 525.7 L240.0 527.4 L245.7 528.6 L251.4 529.4 L257.1 529.9 L262.9 530.4 L268.6 530.9 L273.9 531.4 L274.3 531.5 L280.0 532.0 L285.7 532.7 L291.4 533.4 L297.1 534.3 L302.9 535.3 L308.6 536.4 L312.0 537.1 L314.3 537.5 L320.0 538.6 L325.7 539.6 L331.4 540.8 L337.1 542.0 L341.3 542.9 L342.9 543.1 L348.6 544.1 L354.3 545.0 L360.0 546.0 L365.7 546.9 L371.4 547.8 L376.1 548.6 L377.1 548.7 L382.9 549.4 L388.6 550.1 L394.3 550.7 L400.0 551.4 L405.7 552.1 L411.4 552.7 L417.1 553.4 L422.9 554.1 L424.4 554.3 L428.6 554.7 L434.3 555.2 L440.0 555.8 L445.7 556.3 L451.4 556.8 L457.1 557.3 L462.9 557.8 L468.6 558.3 L474.3 558.7 L480.0 558.9 L485.7 558.8 L491.4 558.4 L497.1 557.7 L502.9 556.4 L508.6 554.6 L509.2 554.3 L514.3 551.7 L519.2 548.6 L520.0 548.0 L525.7 543.0 L531.0 537.1 L531.4 536.6 L535.3 531.4 L537.1 528.7 L539.1 525.7 L542.9 520.0 L546.4 514.3 L548.6 511.0 L550.2 508.6 L554.0 502.9 L554.3 502.5 L557.8 497.1 L560.0 493.9 L561.7 491.4 L565.4 485.7 L565.7 485.2 L568.8 480.0 L571.4 474.8 L571.7 474.3 L574.0 468.6 L575.5 462.9 L576.3 457.1 L576.5 451.4 L576.2 445.7 L575.6 440.0 L574.7 434.3 L573.8 428.6 L572.7 422.9 L571.7 417.1 L571.4 415.7 L570.6 411.4 L569.6 405.7 L568.6 400.0 L567.5 394.3 L566.5 388.6 L565.7 384.4 L565.4 382.9 L564.4 377.1 L563.2 371.4 L561.8 365.7 L560.2 360.0 L560.0 359.5 L558.1 354.3 L555.4 348.6 L554.3 346.8 L551.8 342.9 L548.6 339.0 L546.9 337.1 L542.9 333.5 L540.4 331.4 L537.1 329.2 L531.9 325.7 L531.4 325.4 L525.7 322.3 L521.4 320.0 L520.0 319.3 L514.3 316.6 L509.5 314.3 L508.6 313.9 L502.9 311.3 L497.1 308.7 L491.4 306.2 L485.7 303.6 L484.0 302.9 L480.0 301.2 L474.3 298.7 L470.9 297.1 L468.6 296.2 L462.9 293.7 L457.8 291.4 L457.1 291.2 L451.4 288.8 L445.7 286.2 L444.6 285.7 L440.0 283.8 L434.3 281.3 L431.4 280.0 L428.6 278.8 L422.9 276.3 L418.3 274.3 L417.1 273.8 L411.4 271.3 L405.7 268.7 L400.0 266.2 L394.3 263.5 L393.0 262.9 L388.6 260.8 L382.9 257.8 L381.6 257.1 L377.1 254.7 L372.0 251.4 L371.4 251.0 L365.7 247.0 L364.1 245.7 L360.0 242.1 L357.8 240.0 L354.3 236.1 L352.8 234.3 L348.8 228.6 L348.6 228.2 L345.5 222.9 L343.0 217.1 L342.9 216.6 L341.0 211.4 L339.5 205.7 L338.4 200.0 L337.6 194.3 L337.1 189.4 L337.1 188.6 L336.6 182.9 L336.4 177.1 L336.2 171.4 L336.1 165.7 L336.1 160.0 L336.1 154.3 L336.1 148.6 L336.1 142.9 L336.1 137.1 L336.1 131.4 L336.1 125.7 L336.1 120.0 L336.0 114.3 L335.4 108.6 L334.2 102.9 L331.9 97.1 L331.4 96.4 L327.7 91.4 L325.7 89.7 L320.0 85.8 L314.3 83.8 L308.6 82.4 L302.9 81.6 L297.1 81.2 L291.4 81.1 L285.7 81.2 L280.0 81.4 L274.3 81.6 L268.6 81.7 L262.9 81.9 L257.1 82.0 L251.4 82.1 L245.7 82.2 L240.0 82.2 L234.3 82.2 L228.6 82.3 L222.9 82.3 L217.1 82.3 L211.4 82.3 L205.7 82.3 L200.0 82.3 L194.3 82.4 L188.6 82.6 L182.9 83.1 L177.1 84.0 " fill="none" stroke="#8a6f4796" stroke-width="0.8" stroke-linecap="round"/>
<path d="M923.9 364.6 L874.6 508.2 L861.8 580.4 L885.4 581.1 L897.9 582.1 L899.3 583.6 L912.1 584.3 L936.4 584.3 L949.3 585.0 L950.7 586.4 L959.3 587.1 L975.0 587.1 L983.6 587.9 L985.0 589.3 L1011.4 590.0 L1062.9 590.0 L1089.3 589.3 L1090.7 587.9 L1098.6 587.1 L1112.9 587.1 L1120.7 586.4 L1122.1 585.0 L1134.3 584.3 L1157.1 584.3 L1161.8 570.4 L1148.2 542.5 L1141.4 519.3 L1141.4 500.7 L1143.6 482.1 L1147.9 463.6 L1155.7 442.9 L1167.1 420.0 L1141.1 381.1 L1077.5 326.1 L1021.4 297.1 L972.9 294.3 Z" fill="none" stroke="#4a38225a" stroke-width="0.9" stroke-linecap="round" stroke-dasharray="5.0 4.0"/>
<path d="M1155.4 206.1 L1083.2 266.8 L1050.4 301.1 L1056.8 308.9 L1087.9 336.4 L1143.6 383.6 L1174.6 388.2 L1181.1 350.4 L1188.6 317.1 L1197.1 288.6 L1200.7 253.6 L1199.3 212.1 L1196.8 187.5 L1193.2 179.6 Z" fill="none" stroke="#4a38225a" stroke-width="0.9" stroke-linecap="round" stroke-dasharray="5.0 4.0"/>
<path d="M356.8 92.5 L356.1 183.2 L405.4 250.4 L504.6 293.9 L587.5 277.5 L653.9 201.1 L682.1 134.3 L672.1 77.1 L663.9 48.2 L657.5 47.5 L637.9 51.4 L605.0 60.0 L577.1 64.3 L554.3 64.3 L542.1 63.6 L540.7 62.1 L533.6 61.4 L520.7 61.4 L513.6 60.7 L512.1 59.3 L490.7 57.9 L449.3 56.4 L427.9 55.0 L426.4 53.6 L420.7 52.9 L410.7 52.9 L405.0 52.1 L403.6 50.7 L391.4 49.3 L368.6 47.9 Z" fill="none" stroke="#4a38225a" stroke-width="0.9" stroke-linecap="round" stroke-dasharray="5.0 4.0"/>
<path d="M655.4 198.9 L588.9 273.9 L563.6 357.9 L579.3 450.7 L615.4 517.5 L671.8 558.2 L701.4 577.9 L704.3 576.4 L717.1 575.7 L740.0 575.7 L752.1 576.4 L753.6 577.9 L761.4 578.6 L775.7 578.6 L783.6 579.3 L785.0 580.7 L801.4 581.4 L832.9 581.4 L873.2 509.6 L922.5 366.1 L928.9 268.9 L892.5 218.2 L854.3 190.0 L814.3 184.3 L793.6 180.7 L792.1 179.3 L787.9 178.6 L780.7 178.6 L776.4 177.9 L775.0 176.4 L770.7 175.7 L763.6 175.7 L759.3 175.0 L757.9 173.6 L753.6 172.9 L746.4 172.9 L742.1 172.1 L740.7 170.7 L736.4 170.0 L729.3 170.0 L725.0 169.3 L723.6 167.9 L719.3 167.1 L712.1 167.1 L707.9 166.4 L706.4 165.0 L702.1 164.3 L695.0 164.3 L690.7 163.6 L689.3 162.1 Z" fill="none" stroke="#4a38225a" stroke-width="0.9" stroke-linecap="round" stroke-dasharray="5.0 4.0"/>
<path d="M91.1 253.9 L84.6 261.8 L79.3 272.1 L75.0 285.0 L80.0 302.1 L94.3 323.6 L100.0 352.9 L97.1 390.0 L105.7 425.0 L125.7 457.9 L133.6 490.0 L129.3 521.4 L122.1 548.6 L112.1 571.4 L108.9 583.2 L112.5 583.9 L115.0 583.6 L116.4 582.1 L120.0 581.4 L125.7 581.4 L142.5 578.2 L170.4 571.8 L196.4 500.7 L220.7 365.0 L198.2 285.4 L128.9 261.8 Z" fill="none" stroke="#4a38225a" stroke-width="0.9" stroke-linecap="round" stroke-dasharray="5.0 4.0"/>
<path d="M293.6 47.9 L292.1 49.3 L247.9 50.0 L160.7 50.0 L113.9 51.1 L107.5 53.2 L106.4 60.7 L110.7 73.6 L117.1 86.4 L125.7 99.3 L130.7 114.3 L132.1 131.4 L130.7 150.7 L126.4 172.1 L116.4 199.3 L100.7 232.1 L126.8 260.4 L194.6 283.9 L232.9 294.3 L241.4 291.4 L273.2 273.9 L328.2 241.8 L355.7 181.4 L355.7 92.9 L340.4 48.2 L309.6 47.5 Z" fill="none" stroke="#4a38225a" stroke-width="0.9" stroke-linecap="round" stroke-dasharray="5.0 4.0"/>
<path d="M900.4 81.8 L883.9 156.8 L893.2 218.9 L928.2 268.2 L970.7 294.3 L1020.7 297.1 L1083.2 267.5 L1158.2 205.4 L1190.0 161.4 L1178.6 135.7 L1174.3 105.0 L1177.1 69.3 L1153.2 51.1 L1102.5 50.4 L1076.4 49.3 L1075.0 47.9 L1040.0 47.1 L971.4 47.1 L936.4 46.4 L935.0 45.0 L927.9 44.3 L915.0 44.3 Z" fill="none" stroke="#4a38225a" stroke-width="0.9" stroke-linecap="round" stroke-dasharray="5.0 4.0"/>
<path d="M323.9 244.6 L263.2 279.6 L220.7 364.3 L196.4 498.6 L207.5 565.4 L253.9 564.6 L291.4 567.9 L320.0 575.0 L342.1 579.3 L357.9 580.7 L366.4 582.1 L367.9 583.6 L373.6 584.3 L383.6 584.3 L389.3 585.0 L390.7 586.4 L411.4 588.6 L451.4 591.4 L472.1 593.6 L473.6 595.0 L487.9 595.7 L515.0 595.7 L543.2 571.8 L572.5 523.9 L579.3 454.3 L563.6 362.9 L505.4 294.6 L404.6 249.6 Z" fill="none" stroke="#4a38225a" stroke-width="0.9" stroke-linecap="round" stroke-dasharray="5.0 4.0"/>
<path d="M670.4 48.2 L668.2 56.1 L671.4 82.9 L680.0 128.6 L686.1 154.6 L689.6 161.1 L695.0 164.3 L702.1 164.3 L706.4 165.0 L707.9 166.4 L712.1 167.1 L719.3 167.1 L723.6 167.9 L725.0 169.3 L729.3 170.0 L736.4 170.0 L740.7 170.7 L742.1 172.1 L746.4 172.9 L753.6 172.9 L757.9 173.6 L759.3 175.0 L763.6 175.7 L770.7 175.7 L775.0 176.4 L776.4 177.9 L780.7 178.6 L787.9 178.6 L792.1 179.3 L793.6 180.7 L814.3 184.3 L854.3 190.0 L882.1 155.7 L897.9 81.4 L905.0 45.0 L903.6 46.4 L896.4 47.1 L883.6 47.1 L872.1 48.6 L862.1 51.4 L852.1 52.9 L842.1 52.9 L836.4 53.6 L835.0 55.0 L825.7 55.7 L808.6 55.7 L799.3 55.0 L797.9 53.6 L785.0 51.4 L760.7 48.6 L747.9 46.4 L746.4 45.0 L727.1 44.3 L690.0 44.3 Z" fill="none" stroke="#4a38225a" stroke-width="0.9" stroke-linecap="round" stroke-dasharray="5.0 4.0"/>
<path d="M574.3 522.9 L545.7 571.4 L555.7 593.6 L604.3 589.3 L629.3 586.4 L630.7 585.0 L637.1 584.3 L648.6 584.3 L655.0 583.6 L656.4 582.1 L662.9 581.4 L674.3 581.4 L684.6 580.4 L693.9 578.2 L671.1 557.5 L616.1 518.2 Z" fill="none" stroke="#4a38225a" stroke-width="0.9" stroke-linecap="round" stroke-dasharray="5.0 4.0"/>
<path d="M650.7 49.3 L609.3 59.3 L577.1 64.3 L554.3 64.3 L542.1 63.6 L540.7 62.1 L525.0 60.7 L495.0 59.3 L479.3 57.9 L477.9 56.4 L465.0 55.7 L440.7 55.7 L427.9 55.0 L426.4 53.6 L413.6 52.1 L389.3 50.7 L376.4 49.3 L375.0 47.9 L310.0 47.9 L181.4 49.3 L114.3 50.7 L108.6 52.1 L105.4 55.4 L104.6 60.4 L111.4 75.7 L125.7 101.4 L132.1 126.4 L130.7 150.7 L115.7 195.0 L87.1 259.3 L80.0 302.1 L94.3 323.6 L100.0 352.9 L97.1 390.0 L105.7 425.0 L125.7 457.9 L134.3 487.1 L131.4 512.9 L124.6 540.4 L113.9 569.6 L120.7 582.1 L145.0 577.9 L164.3 573.6 L178.6 569.3 L189.3 567.1 L196.4 567.1 L200.7 566.4 L202.1 565.0 L221.4 564.3 L258.6 564.3 L295.0 568.6 L330.7 577.1 L365.0 582.9 L397.9 585.7 L415.0 587.9 L416.4 589.3 L423.6 590.0 L436.4 590.0 L443.6 590.7 L445.0 592.1 L452.1 592.9 L465.0 592.9 L472.1 593.6 L473.6 595.0 L499.3 595.0 L549.3 593.6 L575.0 592.1 L576.4 590.7 L583.6 590.0 L596.4 590.0 L603.6 589.3 L605.0 587.9 L630.0 585.0 L678.6 580.7 L703.6 577.9 L705.0 576.4 L717.1 575.7 L740.0 575.7 L752.1 576.4 L753.6 577.9 L761.4 578.6 L775.7 578.6 L783.6 579.3 L785.0 580.7 L813.6 581.4 L869.3 581.4 L897.9 582.1 L899.3 583.6 L912.1 584.3 L936.4 584.3 L949.3 585.0 L950.7 586.4 L959.3 587.1 L975.0 587.1 L983.6 587.9 L985.0 589.3 L1011.4 590.0 L1062.9 590.0 L1089.3 589.3 L1090.7 587.9 L1098.6 587.1 L1112.9 587.1 L1120.7 586.4 L1122.1 585.0 L1134.3 584.3 L1157.1 584.3 L1161.8 570.4 L1148.2 542.5 L1141.4 519.3 L1141.4 500.7 L1143.6 482.1 L1147.9 463.6 L1155.7 443.6 L1167.1 422.1 L1175.7 391.4 L1181.4 351.4 L1188.6 317.1 L1197.1 288.6 L1200.0 249.3 L1197.1 199.3 L1190.0 161.4 L1178.6 135.7 L1174.3 105.0 L1177.1 69.3 L1153.2 51.1 L1102.5 50.4 L1076.4 49.3 L1075.0 47.9 L1040.0 47.1 L971.4 47.1 L936.4 46.4 L935.0 45.0 L927.1 44.3 L912.9 44.3 L905.0 45.0 L903.6 46.4 L896.4 47.1 L883.6 47.1 L872.1 48.6 L862.1 51.4 L852.1 52.9 L842.1 52.9 L836.4 53.6 L835.0 55.0 L825.7 55.7 L808.6 55.7 L799.3 55.0 L797.9 53.6 L785.0 51.4 L760.7 48.6 L747.9 46.4 L746.4 45.0 L727.1 44.3 L690.0 44.3 Z" fill="none" stroke="#4a3822" stroke-width="2.2" stroke-linecap="round"/>
<path d="M650.7 49.3 L609.3 59.3 L577.1 64.3 L554.3 64.3 L542.1 63.6 L540.7 62.1 L525.0 60.7 L495.0 59.3 L479.3 57.9 L477.9 56.4 L465.0 55.7 L440.7 55.7 L427.9 55.0 L426.4 53.6 L413.6 52.1 L389.3 50.7 L376.4 49.3 L375.0 47.9 L310.0 47.9 L181.4 49.3 L114.3 50.7 L108.6 52.1 L105.4 55.4 L104.6 60.4 L111.4 75.7 L125.7 101.4 L132.1 126.4 L130.7 150.7 L115.7 195.0 L87.1 259.3 L80.0 302.1 L94.3 323.6 L100.0 352.9 L97.1 390.0 L105.7 425.0 L125.7 457.9 L134.3 487.1 L131.4 512.9 L124.6 540.4 L113.9 569.6 L120.7 582.1 L145.0 577.9 L164.3 573.6 L178.6 569.3 L189.3 567.1 L196.4 567.1 L200.7 566.4 L202.1 565.0 L221.4 564.3 L258.6 564.3 L295.0 568.6 L330.7 577.1 L365.0 582.9 L397.9 585.7 L415.0 587.9 L416.4 589.3 L423.6 590.0 L436.4 590.0 L443.6 590.7 L445.0 592.1 L452.1 592.9 L465.0 592.9 L472.1 593.6 L473.6 595.0 L499.3 595.0 L549.3 593.6 L575.0 592.1 L576.4 590.7 L583.6 590.0 L596.4 590.0 L603.6 589.3 L605.0 587.9 L630.0 585.0 L678.6 580.7 L703.6 577.9 L705.0 576.4 L717.1 575.7 L740.0 575.7 L752.1 576.4 L753.6 577.9 L761.4 578.6 L775.7 578.6 L783.6 579.3 L785.0 580.7 L813.6 581.4 L869.3 581.4 L897.9 582.1 L899.3 583.6 L912.1 584.3 L936.4 584.3 L949.3 585.0 L950.7 586.4 L959.3 587.1 L975.0 587.1 L983.6 587.9 L985.0 589.3 L1011.4 590.0 L1062.9 590.0 L1089.3 589.3 L1090.7 587.9 L1098.6 587.1 L1112.9 587.1 L1120.7 586.4 L1122.1 585.0 L1134.3 584.3 L1157.1 584.3 L1161.8 570.4 L1148.2 542.5 L1141.4 519.3 L1141.4 500.7 L1143.6 482.1 L1147.9 463.6 L1155.7 443.6 L1167.1 422.1 L1175.7 391.4 L1181.4 351.4 L1188.6 317.1 L1197.1 288.6 L1200.0 249.3 L1197.1 199.3 L1190.0 161.4 L1178.6 135.7 L1174.3 105.0 L1177.1 69.3 L1153.2 51.1 L1102.5 50.4 L1076.4 49.3 L1075.0 47.9 L1040.0 47.1 L971.4 47.1 L936.4 46.4 L935.0 45.0 L927.1 44.3 L912.9 44.3 L905.0 45.0 L903.6 46.4 L896.4 47.1 L883.6 47.1 L872.1 48.6 L862.1 51.4 L852.1 52.9 L842.1 52.9 L836.4 53.6 L835.0 55.0 L825.7 55.7 L808.6 55.7 L799.3 55.0 L797.9 53.6 L785.0 51.4 L760.7 48.6 L747.9 46.4 L746.4 45.0 L727.1 44.3 L690.0 44.3 Z" fill="none" stroke="#4a382246" stroke-width="5.5" stroke-linecap="round"/>
<path d="M1018.7 460.8 Q873.4 266.6 513.9 163.2" fill="none" stroke="#7a5a38aa" stroke-width="2.5"/>
<path d="M1018.7 460.8 Q916.1 392.5 750.1 372.6" fill="none" stroke="#7a5a38aa" stroke-width="2.2"/>
<path d="M1144.2 292.8 Q717.9 293.3 390.1 429.6" fill="none" stroke="#7a5a38aa" stroke-width="2.0"/>
<path d="M1144.2 292.8 Q875.6 171.3 513.9 163.2" fill="none" stroke="#7a5a38aa" stroke-width="1.4"/>
<path d="M513.9 163.2 Q375.0 137.7 235.4 162.3" fill="none" stroke="#7a5a38aa" stroke-width="2.6"/>
<path d="M513.9 163.2 Q356.1 285.3 390.1 429.6" fill="none" stroke="#7a5a38aa" stroke-width="2.6"/>
<path d="M750.1 372.6 Q568.4 221.1 235.4 162.3" fill="none" stroke="#7a5a38aa" stroke-width="2.6"/>
<path d="M750.1 372.6 Q707.3 246.7 513.9 163.2" fill="none" stroke="#7a5a38aa" stroke-width="2.6"/>
<path d="M156.8 397.7 Q462.5 438.5 750.1 372.6" fill="none" stroke="#7a5a38aa" stroke-width="2.1"/>
<path d="M156.8 397.7 Q280.8 287.1 235.4 162.3" fill="none" stroke="#7a5a38aa" stroke-width="1.9"/>
<path d="M235.4 162.3 Q417.1 313.8 750.1 372.6" fill="none" stroke="#7a5a38aa" stroke-width="2.6"/>
<path d="M235.4 162.3 Q374.3 187.8 513.9 163.2" fill="none" stroke="#7a5a38aa" stroke-width="2.2"/>
<path d="M1029.0 161.1 Q631.7 90.3 235.4 162.3" fill="none" stroke="#7a5a38aa" stroke-width="2.2"/>
<path d="M1029.0 161.1 Q813.4 241.7 750.1 372.6" fill="none" stroke="#7a5a38aa" stroke-width="2.1"/>
<path d="M390.1 429.6 Q590.6 433.5 750.1 372.6" fill="none" stroke="#7a5a38aa" stroke-width="2.6"/>
<path d="M390.1 429.6 Q409.0 282.0 235.4 162.3" fill="none" stroke="#7a5a38aa" stroke-width="2.6"/>
<path d="M789.0 112.7 Q633.2 113.2 513.9 163.2" fill="none" stroke="#7a5a38aa" stroke-width="2.5"/>
<path d="M789.0 112.7 Q475.5 235.2 390.1 429.6" fill="none" stroke="#7a5a38aa" stroke-width="2.4"/>
<path d="M607.3 558.5 Q702.9 352.5 513.9 163.2" fill="none" stroke="#7a5a38aa" stroke-width="2.0"/>
<path d="M607.3 558.5 Q745.6 478.4 750.1 372.6" fill="none" stroke="#7a5a38aa" stroke-width="1.6"/>
<text x="384.3" y="412.9" font-family="'DejaVu Serif',Georgia,serif" font-size="11.0" fill="#4a3822" text-anchor="middle" font-weight="bold" stroke="#e9dec4c8" stroke-width="2.5" paint-order="stroke" stroke-linejoin="round">crates/c2m-render</text>
<text x="384.3" y="398.6" font-family="'DejaVu Sans',Verdana,sans-serif" font-size="9.9" fill="#8a6f47" text-anchor="middle">▲</text>
<text x="241.4" y="178.6" font-family="'DejaVu Serif',Georgia,serif" font-size="11.0" fill="#4a3822" text-anchor="middle" font-weight="bold" stroke="#e9dec4c8" stroke-width="2.5" paint-order="stroke" stroke-linejoin="round">crates/c2m-index</text>
<text x="241.4" y="164.3" font-family="'DejaVu Sans',Verdana,sans-serif" font-size="9.9" fill="#8a6f47" text-anchor="middle">▲</text>
<text x="744.3" y="355.7" font-family="'DejaVu Serif',Georgia,serif" font-size="11.0" fill="#4a3822" text-anchor="middle" font-weight="bold" stroke="#e9dec4c8" stroke-width="2.5" paint-order="stroke" stroke-linejoin="round">crates/c2m-core</text>
<text x="541.4" y="187.1" font-family="'DejaVu Serif',Georgia,serif" font-size="11.0" fill="#4a3822" text-anchor="middle" font-weight="bold" stroke="#e9dec4c8" stroke-width="2.5" paint-order="stroke" stroke-linejoin="round">crates/c2m-cli</text>
<text x="1032.9" y="430.0" font-family="'DejaVu Serif',Georgia,serif" font-size="11.0" fill="#4a3822" text-anchor="middle" font-weight="bold" stroke="#e9dec4c8" stroke-width="2.5" paint-order="stroke" stroke-linejoin="round">/</text>
<text x="1007.1" y="172.9" font-family="'DejaVu Serif',Georgia,serif" font-size="11.0" fill="#4a3822" text-anchor="middle" font-weight="bold" stroke="#e9dec4c8" stroke-width="2.5" paint-order="stroke" stroke-linejoin="round">crates/c2m-layout</text>
<text x="744.3" y="110.0" font-family="'DejaVu Serif',Georgia,serif" font-size="11.0" fill="#4a3822" text-anchor="middle" font-weight="bold" stroke="#e9dec4c8" stroke-width="2.5" paint-order="stroke" stroke-linejoin="round">docs</text>
<text x="164.3" y="335.7" font-family="'DejaVu Serif',Georgia,serif" font-size="11.0" fill="#4a3822" text-anchor="middle" font-weight="bold" stroke="#e9dec4c8" stroke-width="2.5" paint-order="stroke" stroke-linejoin="round">crates/c2m-eval</text>
<text x="1130.0" y="298.6" font-family="'DejaVu Serif',Georgia,serif" font-size="11.0" fill="#4a3822" text-anchor="middle" font-weight="bold" stroke="#e9dec4c8" stroke-width="2.5" paint-order="stroke" stroke-linejoin="round">assets</text>
<text x="601.4" y="550.0" font-family="'DejaVu Serif',Georgia,serif" font-size="11.0" fill="#4a3822" text-anchor="middle" font-weight="bold" stroke="#e9dec4c8" stroke-width="2.5" paint-order="stroke" stroke-linejoin="round">skills</text>
<circle cx="1032.9" cy="455.7" r="3.1" fill="#4a3822"/>
<circle cx="968.6" cy="410.7" r="2.3" fill="#4a3822"/>
<circle cx="1097.1" cy="422.3" r="2.0" fill="#4a3822"/>
<circle cx="1130.0" cy="311.7" r="3.1" fill="#4a3822"/>
<circle cx="1097.1" cy="288.7" r="2.3" fill="#4a3822"/>
<circle cx="541.4" cy="211.7" r="3.1" fill="#4a3822"/>
<text x="541.4" y="223.4" font-family="'DejaVu Serif',Georgia,serif" font-size="9.0" fill="#4a3822" text-anchor="middle" stroke="#e9dec4be" stroke-width="2.5" paint-order="stroke" stroke-linejoin="round">providers.rs</text>
<circle cx="480.0" cy="168.7" r="2.3" fill="#4a3822"/>
<text x="480.0" y="179.6" font-family="'DejaVu Serif',Georgia,serif" font-size="9.0" fill="#4a3822" text-anchor="middle" stroke="#e9dec4be" stroke-width="2.5" paint-order="stroke" stroke-linejoin="round">ops.rs</text>
<circle cx="602.9" cy="179.8" r="2.0" fill="#4a3822"/>
<circle cx="744.3" cy="391.7" r="3.1" fill="#4a3822"/>
<text x="744.3" y="403.4" font-family="'DejaVu Serif',Georgia,serif" font-size="9.0" fill="#4a3822" text-anchor="middle" stroke="#e9dec4be" stroke-width="2.5" paint-order="stroke" stroke-linejoin="round">types.rs</text>
<circle cx="654.3" cy="328.7" r="2.3" fill="#4a3822"/>
<text x="654.3" y="339.6" font-family="'DejaVu Serif',Georgia,serif" font-size="9.0" fill="#4a3822" text-anchor="middle" stroke="#e9dec4be" stroke-width="2.5" paint-order="stroke" stroke-linejoin="round">history.rs</text>
<circle cx="834.3" cy="344.9" r="2.0" fill="#4a3822"/>
<text x="834.3" y="355.4" font-family="'DejaVu Serif',Georgia,serif" font-size="9.0" fill="#4a3822" text-anchor="middle" stroke="#e9dec4be" stroke-width="2.5" paint-order="stroke" stroke-linejoin="round">regions.rs</text>
<circle cx="164.3" cy="347.7" r="3.1" fill="#4a3822"/>
<circle cx="134.3" cy="326.7" r="2.3" fill="#4a3822"/>
<circle cx="194.3" cy="332.1" r="2.0" fill="#4a3822"/>
<circle cx="241.4" cy="201.4" r="3.1" fill="#4a3822"/>
<text x="241.4" y="213.1" font-family="'DejaVu Serif',Georgia,serif" font-size="9.0" fill="#4a3822" text-anchor="middle" stroke="#e9dec4be" stroke-width="2.5" paint-order="stroke" stroke-linejoin="round">handles.rs</text>
<circle cx="184.3" cy="161.4" r="2.3" fill="#4a3822"/>
<circle cx="298.6" cy="171.7" r="2.0" fill="#4a3822"/>
<circle cx="1007.1" cy="197.4" r="3.1" fill="#4a3822"/>
<text x="1007.1" y="209.1" font-family="'DejaVu Serif',Georgia,serif" font-size="9.0" fill="#4a3822" text-anchor="middle" stroke="#e9dec4be" stroke-width="2.5" paint-order="stroke" stroke-linejoin="round">lib.rs</text>
<circle cx="945.7" cy="154.4" r="2.3" fill="#4a3822"/>
<circle cx="1068.6" cy="165.5" r="2.0" fill="#4a3822"/>
<circle cx="384.3" cy="446.6" r="3.1" fill="#4a3822"/>
<text x="384.3" y="458.3" font-family="'DejaVu Serif',Georgia,serif" font-size="9.0" fill="#4a3822" text-anchor="middle" stroke="#e9dec4be" stroke-width="2.5" paint-order="stroke" stroke-linejoin="round">display.rs</text>
<circle cx="300.0" cy="387.6" r="2.3" fill="#4a3822"/>
<text x="300.0" y="398.5" font-family="'DejaVu Serif',Georgia,serif" font-size="9.0" fill="#4a3822" text-anchor="middle" stroke="#e9dec4be" stroke-width="2.5" paint-order="stroke" stroke-linejoin="round">paint.rs</text>
<circle cx="468.6" cy="402.7" r="2.0" fill="#4a3822"/>
<text x="468.6" y="413.2" font-family="'DejaVu Serif',Georgia,serif" font-size="9.0" fill="#4a3822" text-anchor="middle" stroke="#e9dec4be" stroke-width="2.5" paint-order="stroke" stroke-linejoin="round">raster.rs</text>
<circle cx="744.3" cy="122.6" r="3.1" fill="#4a3822"/>
<circle cx="601.4" cy="558.0" r="3.1" fill="#4a3822"/>
<circle cx="95.2" cy="551.4" r="12.9" fill="#c6b18c" stroke="#4a3822" stroke-width="1.2"/>
<text x="95.2" y="571.6" font-family="'DejaVu Serif',Georgia,serif" font-size="9.0" fill="#4a3822d2" text-anchor="middle">anyhow</text>
<circle cx="1206.5" cy="109.4" r="19.1" fill="#c6b18c" stroke="#4a3822" stroke-width="1.2"/>
<text x="1206.5" y="135.8" font-family="'DejaVu Serif',Georgia,serif" font-size="9.0" fill="#4a3822d2" text-anchor="middle">serde</text>
<circle cx="950.7" cy="20.3" r="17.6" fill="#c6b18c" stroke="#4a3822" stroke-width="1.2"/>
<text x="950.7" y="45.2" font-family="'DejaVu Serif',Georgia,serif" font-size="9.0" fill="#4a3822d2" text-anchor="middle">c2m_layout</text>
<circle cx="95.8" cy="162.2" r="17.2" fill="#c6b18c" stroke="#4a3822" stroke-width="1.2"/>
<text x="95.8" y="186.7" font-family="'DejaVu Serif',Georgia,serif" font-size="9.0" fill="#4a3822d2" text-anchor="middle">rayon</text>
<circle cx="235.8" cy="591.1" r="18.4" fill="#c6b18c" stroke="#4a3822" stroke-width="1.2"/>
<text x="235.8" y="616.7" font-family="'DejaVu Serif',Georgia,serif" font-size="9.0" fill="#4a3822d2" text-anchor="middle">clap</text>
<circle cx="1219.3" cy="141.0" r="15.0" fill="#c6b18c" stroke="#4a3822" stroke-width="1.2"/>
<text x="1219.3" y="163.3" font-family="'DejaVu Serif',Georgia,serif" font-size="9.0" fill="#4a3822d2" text-anchor="middle">c2m_index</text>
<circle cx="57.9" cy="391.1" r="18.9" fill="#c6b18c" stroke="#4a3822" stroke-width="1.2"/>
<text x="57.9" y="417.2" font-family="'DejaVu Serif',Georgia,serif" font-size="9.0" fill="#4a3822d2" text-anchor="middle">fontdue</text>
<circle cx="1203.6" cy="398.7" r="14.8" fill="#c6b18c" stroke="#4a3822" stroke-width="1.2"/>
<text x="1203.6" y="420.7" font-family="'DejaVu Serif',Georgia,serif" font-size="9.0" fill="#4a3822d2" text-anchor="middle">serde_json</text>
<circle cx="105.4" cy="148.3" r="17.9" fill="#c6b18c" stroke="#4a3822" stroke-width="1.2"/>
<text x="640.0" y="33.3" font-family="'DejaVu Serif',Georgia,serif" font-size="16.6" fill="#4a3822" text-anchor="middle" font-weight="bold" stroke="#e9dec4dc" stroke-width="2.5" paint-order="stroke" stroke-linejoin="round">The Realm of h5i-context2map</text>
<text x="25.6" y="624.0" font-family="'DejaVu Serif',Georgia,serif" font-size="10.0" fill="#4a3822c8" text-anchor="start">10 regions · 10.1k lines charted</text>
<path d="M1196.8 27.5 L1205.8 48.0 L1187.8 48.0 Z" fill="#4a3822"/>
<path d="M1212.7 40.0 L1201.4 50.3 L1192.2 45.7 Z" fill="#8a6f47"/>
<path d="M1237.8 48.0 L1196.8 52.5 L1196.8 43.5 Z" fill="#4a3822"/>
<path d="M1212.7 56.0 L1192.2 50.3 L1201.4 45.7 Z" fill="#8a6f47"/>
<path d="M1196.8 68.5 L1187.8 48.0 L1205.8 48.0 Z" fill="#4a3822"/>
<path d="M1180.9 56.0 L1192.2 45.7 L1201.4 50.3 Z" fill="#8a6f47"/>
<path d="M1155.8 48.0 L1196.8 43.5 L1196.8 52.5 Z" fill="#4a3822"/>
<path d="M1180.9 40.0 L1201.4 45.7 L1192.2 50.3 Z" fill="#8a6f47"/>
<circle cx="1196.8" cy="48.0" r="2.2" fill="#e9dec4" stroke="#4a3822" stroke-width="1.0"/>
<text x="1196.8" y="18.3" font-family="'DejaVu Serif',Georgia,serif" font-size="10.0" fill="#4a3822" text-anchor="middle" font-weight="bold">N</text>
</svg>
